{
copyright = "Copyright (c) 2015, Cadson Demak (info@cadsondemak.com)";
customParameters = (
{
name = vendorID;
value = CDK;
},
{
name = description;
value = "Copyright (c) 2015, Cadson Demak (info@cadsondemak.com)";
},
{
name = license;

glyphs = (
{
glyphname = A;
lastChange = "2015-12-01 11:19:48 +0000";
layers = (
{
layerId = "29476F1E-CD12-4295-B0EC-F6BA1C34E337";
name = "Regular Italic";
paths = (
{
closed = 1;
nodes = (
"183 0 LINE",
"189 31 LINE",
"171 31 LINE SMOOTH",
"148 31 OFFCURVE",
"131 40 OFFCURVE",
"131 58 CURVE SMOOTH",
"131 64 OFFCURVE",
"133 72 OFFCURVE",
"138 80 CURVE SMOOTH",
"417 575 LINE",
"487 100 LINE SMOOTH",
"488 90 OFFCURVE",
"489 81 OFFCURVE",
"489 74 CURVE SMOOTH",
"489 46 OFFCURVE",
"479 31 OFFCURVE",
"439 31 CURVE SMOOTH",
"421 31 LINE",
"416 0 LINE",
"679 0 LINE",
"684 31 LINE",
"666 31 LINE SMOOTH",
"644 31 OFFCURVE",
"620 42 OFFCURVE",
"616 66 CURVE SMOOTH",
"506 717 LINE",
"414 683 LINE",
"60 67 LINE SMOOTH",
"46 44 OFFCURVE",
"12 31 OFFCURVE",
"-13 31 CURVE SMOOTH",
"-28 31 LINE",
"-34 0 LINE"
);
},
{
closed = 1;
nodes = (
"504 203 LINE",
"513 249 LINE",
"196 249 LINE",
"187 203 LINE"
);
}
);
width = 722;
}
);
leftKerningGroup = A;
note = A;
rightKerningGroup = A;
unicode = 0041;
},
{
glyphname = Aacute;
lastChange = "2015-12-01 11:19:47 +0000";
layers = (
{
layerId = "29476F1E-CD12-4295-B0EC-F6BA1C34E337";
name = "Regular Italic";
paths = (
{
closed = 1;
nodes = (
"183 0 LINE",
"189 31 LINE",
"171 31 LINE SMOOTH",
"148 31 OFFCURVE",
"131 40 OFFCURVE",
"131 58 CURVE SMOOTH",
"131 64 OFFCURVE",
"133 72 OFFCURVE",
"138 80 CURVE SMOOTH",
"417 575 LINE",
"487 100 LINE SMOOTH",
"488 90 OFFCURVE",
"489 81 OFFCURVE",
"489 74 CURVE SMOOTH",
"489 46 OFFCURVE",
"479 31 OFFCURVE",
"439 31 CURVE SMOOTH",
"421 31 LINE",
"416 0 LINE",
"679 0 LINE",
"684 31 LINE",
"666 31 LINE SMOOTH",
"644 31 OFFCURVE",
"620 42 OFFCURVE",
"616 66 CURVE SMOOTH",
"506 717 LINE",
"414 683 LINE",
"60 67 LINE SMOOTH",
"46 44 OFFCURVE",
"12 31 OFFCURVE",
"-13 31 CURVE SMOOTH",
"-28 31 LINE",
"-34 0 LINE"
);
},
{
closed = 1;
nodes = (
"504 203 LINE",
"513 249 LINE",
"196 249 LINE",
"187 203 LINE"
);
},
{
closed = 1;
nodes = (
"564 867 LINE SMOOTH",
"593 883 OFFCURVE",
"612 900 OFFCURVE",
"612 923 CURVE SMOOTH",
"612 938 OFFCURVE",
"603 951 OFFCURVE",
"581 951 CURVE SMOOTH",
"558 951 OFFCURVE",
"536 932 OFFCURVE",
"526 924 CURVE SMOOTH",
"390 810 LINE",
"403 780 LINE"
);
}
);
width = 722;
}
);
leftKerningGroup = A;
note = Aacute;
rightKerningGroup = A;
unicode = 00C1;
},
{
glyphname = Abreve;
lastChange = "2015-12-01 11:19:47 +0000";
layers = (
{
layerId = "29476F1E-CD12-4295-B0EC-F6BA1C34E337";
name = "Regular Italic";
paths = (
{
closed = 1;
nodes = (
"183 0 LINE",
"189 31 LINE",
"171 31 LINE SMOOTH",
"148 31 OFFCURVE",
"131 40 OFFCURVE",
"131 58 CURVE SMOOTH",
"131 64 OFFCURVE",
"133 72 OFFCURVE",
"138 80 CURVE SMOOTH",
"417 575 LINE",
"487 100 LINE SMOOTH",
"488 90 OFFCURVE",
"489 81 OFFCURVE",
"489 74 CURVE SMOOTH",
"489 46 OFFCURVE",
"479 31 OFFCURVE",
"439 31 CURVE SMOOTH",
"421 31 LINE",
"416 0 LINE",
"679 0 LINE",
"684 31 LINE",
"666 31 LINE SMOOTH",
"644 31 OFFCURVE",
"620 42 OFFCURVE",
"616 66 CURVE SMOOTH",
"506 717 LINE",
"414 683 LINE",
"60 67 LINE SMOOTH",
"46 44 OFFCURVE",
"12 31 OFFCURVE",
"-13 31 CURVE SMOOTH",
"-28 31 LINE",
"-34 0 LINE"
);
},
{
closed = 1;
nodes = (
"504 203 LINE",
"513 249 LINE",
"196 249 LINE",
"187 203 LINE"
);
},
{
closed = 1;
nodes = (
"586 776 OFFCURVE",
"636 839 OFFCURVE",
"654 913 CURVE",
"619 913 LINE",
"604 861 OFFCURVE",
"562 830 OFFCURVE",
"492 830 CURVE SMOOTH",
"422 830 OFFCURVE",
"392 861 OFFCURVE",
"396 913 CURVE",
"364 913 LINE",
"362 900 OFFCURVE",
"360 888 OFFCURVE",
"360 876 CURVE SMOOTH",
"360 818 OFFCURVE",
"392 776 OFFCURVE",
"481 776 CURVE SMOOTH"
);
}
);
width = 722;
}
);
leftKerningGroup = A;
note = Abreve;
rightKerningGroup = A;
unicode = 0102;
},
{
glyphname = Abreveacute;
lastChange = "2015-12-01 11:19:46 +0000";
layers = (
{
layerId = "29476F1E-CD12-4295-B0EC-F6BA1C34E337";
name = "Regular Italic";
paths = (
{
closed = 1;
nodes = (
"183 0 LINE",
"189 31 LINE",
"171 31 LINE SMOOTH",
"148 31 OFFCURVE",
"131 40 OFFCURVE",
"131 58 CURVE SMOOTH",
"131 64 OFFCURVE",
"133 72 OFFCURVE",
"138 80 CURVE SMOOTH",
"417 575 LINE",
"487 100 LINE SMOOTH",
"488 90 OFFCURVE",
"489 81 OFFCURVE",
"489 74 CURVE SMOOTH",
"489 46 OFFCURVE",
"479 31 OFFCURVE",
"439 31 CURVE SMOOTH",
"421 31 LINE",
"416 0 LINE",
"679 0 LINE",
"684 31 LINE",
"666 31 LINE SMOOTH",
"644 31 OFFCURVE",
"620 42 OFFCURVE",
"616 66 CURVE SMOOTH",
"506 717 LINE",
"414 683 LINE",
"60 67 LINE SMOOTH",
"46 44 OFFCURVE",
"12 31 OFFCURVE",
"-13 31 CURVE SMOOTH",
"-28 31 LINE",
"-34 0 LINE"
);
},
{
closed = 1;
nodes = (
"504 203 LINE",
"513 249 LINE",
"196 249 LINE",
"187 203 LINE"
);
},
{
closed = 1;
nodes = (
"587 778 OFFCURVE",
"635 840 OFFCURVE",
"653 914 CURVE",
"620 914 LINE",
"604 863 OFFCURVE",
"562 832 OFFCURVE",
"492 832 CURVE SMOOTH",
"421 832 OFFCURVE",
"392 863 OFFCURVE",
"397 914 CURVE",
"364 914 LINE",
"361 901 OFFCURVE",
"360 888 OFFCURVE",
"360 877 CURVE SMOOTH",
"360 819 OFFCURVE",
"393 778 OFFCURVE",
"481 778 CURVE SMOOTH"
);
},
{
closed = 1;
nodes = (
"614 968 LINE SMOOTH",
"645 984 OFFCURVE",
"666 1004 OFFCURVE",
"666 1025 CURVE SMOOTH",
"666 1039 OFFCURVE",
"657 1055 OFFCURVE",
"635 1055 CURVE SMOOTH",
"613 1055 OFFCURVE",
"591 1036 OFFCURVE",
"578 1024 CURVE SMOOTH",
"470 930 LINE",
"485 903 LINE"
);
}
);
width = 722;
}
);
leftKerningGroup = A;
note = Abreveacute;
rightKerningGroup = A;
unicode = 1EAE;
},
{
glyphname = Abrevedotbelow;
lastChange = "2015-12-01 11:19:46 +0000";
layers = (
{
layerId = "29476F1E-CD12-4295-B0EC-F6BA1C34E337";
name = "Regular Italic";
paths = (
{
closed = 1;
nodes = (
"183 0 LINE",
"189 31 LINE",
"171 31 LINE SMOOTH",
"148 31 OFFCURVE",
"131 40 OFFCURVE",
"131 58 CURVE SMOOTH",
"131 64 OFFCURVE",
"133 72 OFFCURVE",
"138 80 CURVE SMOOTH",
"417 575 LINE",
"487 100 LINE SMOOTH",
"488 90 OFFCURVE",
"489 81 OFFCURVE",
"489 74 CURVE SMOOTH",
"489 46 OFFCURVE",
"479 31 OFFCURVE",
"439 31 CURVE SMOOTH",
"421 31 LINE",
"416 0 LINE",
"679 0 LINE",
"684 31 LINE",
"666 31 LINE SMOOTH",
"644 31 OFFCURVE",
"620 42 OFFCURVE",
"616 66 CURVE SMOOTH",
"506 717 LINE",
"414 683 LINE",
"60 67 LINE SMOOTH",
"46 44 OFFCURVE",
"12 31 OFFCURVE",
"-13 31 CURVE SMOOTH",
"-28 31 LINE",
"-34 0 LINE"
);
},
{
closed = 1;
nodes = (
"322 -170 OFFCURVE",
"349 -141 OFFCURVE",
"349 -104 CURVE SMOOTH",
"349 -81 OFFCURVE",
"335 -64 OFFCURVE",
"309 -64 CURVE SMOOTH",
"274 -64 OFFCURVE",
"246 -93 OFFCURVE",
"246 -131 CURVE SMOOTH",
"246 -154 OFFCURVE",
"261 -170 OFFCURVE",
"287 -170 CURVE SMOOTH"
);
},
{
closed = 1;
nodes = (
"504 203 LINE",
"513 249 LINE",
"196 249 LINE",
"187 203 LINE"
);
},
{
closed = 1;
nodes = (
"586 777 OFFCURVE",
"636 840 OFFCURVE",
"654 914 CURVE",
"619 914 LINE",
"604 862 OFFCURVE",
"562 831 OFFCURVE",
"492 831 CURVE SMOOTH",
"422 831 OFFCURVE",
"392 862 OFFCURVE",
"396 914 CURVE",
"364 914 LINE",
"362 901 OFFCURVE",
"360 889 OFFCURVE",
"360 877 CURVE SMOOTH",
"360 819 OFFCURVE",
"392 777 OFFCURVE",
"481 777 CURVE SMOOTH"
);
}
);
width = 722;
}
);
leftKerningGroup = A;
note = Abrevedotbelow;
rightKerningGroup = A;
unicode = 1EB6;
},
{
glyphname = Abrevegrave;
lastChange = "2015-12-01 11:19:46 +0000";
layers = (
{
layerId = "29476F1E-CD12-4295-B0EC-F6BA1C34E337";
name = "Regular Italic";
paths = (
{
closed = 1;
nodes = (
"183 0 LINE",
"189 31 LINE",
"171 31 LINE SMOOTH",
"148 31 OFFCURVE",
"131 40 OFFCURVE",
"131 58 CURVE SMOOTH",
"131 64 OFFCURVE",
"133 72 OFFCURVE",
"138 80 CURVE SMOOTH",
"417 575 LINE",
"487 100 LINE SMOOTH",
"488 90 OFFCURVE",
"489 81 OFFCURVE",
"489 74 CURVE SMOOTH",
"489 46 OFFCURVE",
"479 31 OFFCURVE",
"439 31 CURVE SMOOTH",
"421 31 LINE",
"416 0 LINE",
"679 0 LINE",
"684 31 LINE",
"666 31 LINE SMOOTH",
"644 31 OFFCURVE",
"620 42 OFFCURVE",
"616 66 CURVE SMOOTH",
"506 717 LINE",
"414 683 LINE",
"60 67 LINE SMOOTH",
"46 44 OFFCURVE",
"12 31 OFFCURVE",
"-13 31 CURVE SMOOTH",
"-28 31 LINE",
"-34 0 LINE"
);
},
{
closed = 1;
nodes = (
"504 203 LINE",
"513 249 LINE",
"196 249 LINE",
"187 203 LINE"
);
},
{
closed = 1;
nodes = (
"587 778 OFFCURVE",
"635 840 OFFCURVE",
"653 914 CURVE",
"620 914 LINE",
"604 863 OFFCURVE",
"561 832 OFFCURVE",
"492 832 CURVE SMOOTH",
"421 832 OFFCURVE",
"392 863 OFFCURVE",
"397 914 CURVE",
"364 914 LINE",
"361 901 OFFCURVE",
"360 888 OFFCURVE",
"360 877 CURVE SMOOTH",
"360 819 OFFCURVE",
"393 778 OFFCURVE",
"481 778 CURVE SMOOTH"
);
},
{
closed = 1;
nodes = (
"548 929 LINE",
"478 1023 LINE SMOOTH",
"469 1035 OFFCURVE",
"457 1054 OFFCURVE",
"435 1054 CURVE SMOOTH",
"404 1054 OFFCURVE",
"388 1026 OFFCURVE",
"388 1010 CURVE SMOOTH",
"388 994 OFFCURVE",
"399 979 OFFCURVE",
"420 967 CURVE SMOOTH",
"522 902 LINE"
);
}
);
width = 722;
}
);
leftKerningGroup = A;
note = Abrevegrave;
rightKerningGroup = A;
unicode = 1EB0;
},
{
glyphname = Abrevehookabove;
lastChange = "2015-12-01 11:19:45 +0000";
layers = (
{
layerId = "29476F1E-CD12-4295-B0EC-F6BA1C34E337";
name = "Regular Italic";
paths = (
{
closed = 1;
nodes = (
"183 0 LINE",
"189 31 LINE",
"171 31 LINE SMOOTH",
"148 31 OFFCURVE",
"131 40 OFFCURVE",
"131 58 CURVE SMOOTH",
"131 64 OFFCURVE",
"133 72 OFFCURVE",
"138 80 CURVE SMOOTH",
"417 575 LINE",
"487 100 LINE SMOOTH",
"488 90 OFFCURVE",
"489 81 OFFCURVE",
"489 74 CURVE SMOOTH",
"489 46 OFFCURVE",
"479 31 OFFCURVE",
"439 31 CURVE SMOOTH",
"421 31 LINE",
"416 0 LINE",
"679 0 LINE",
"684 31 LINE",
"666 31 LINE SMOOTH",
"644 31 OFFCURVE",
"620 42 OFFCURVE",
"616 66 CURVE SMOOTH",
"506 717 LINE",
"414 683 LINE",
"60 67 LINE SMOOTH",
"46 44 OFFCURVE",
"12 31 OFFCURVE",
"-13 31 CURVE SMOOTH",
"-28 31 LINE",
"-34 0 LINE"
);
},
{
closed = 1;
nodes = (
"504 203 LINE",
"513 249 LINE",
"196 249 LINE",
"187 203 LINE"
);
},
{
closed = 1;
nodes = (
"587 778 OFFCURVE",
"635 840 OFFCURVE",
"653 914 CURVE",
"620 914 LINE",
"604 863 OFFCURVE",
"562 832 OFFCURVE",
"492 832 CURVE SMOOTH",
"421 832 OFFCURVE",
"392 863 OFFCURVE",
"397 914 CURVE",
"364 914 LINE",
"361 901 OFFCURVE",
"360 888 OFFCURVE",
"360 877 CURVE SMOOTH",
"360 819 OFFCURVE",
"393 778 OFFCURVE",
"481 778 CURVE SMOOTH"
);
},
{
closed = 1;
nodes = (
"549 912 LINE",
"533 920 OFFCURVE",
"523 922 OFFCURVE",
"527 940 CURVE SMOOTH",
"534 972 OFFCURVE",
"626 982 OFFCURVE",
"626 1038 CURVE SMOOTH",
"626 1070 OFFCURVE",
"589 1084 OFFCURVE",
"551 1084 CURVE SMOOTH",
"520 1084 OFFCURVE",
"473 1073 OFFCURVE",
"467 1041 CURVE SMOOTH",
"464 1028 OFFCURVE",
"473 1019 OFFCURVE",
"484 1019 CURVE SMOOTH",
"496 1019 OFFCURVE",
"503 1027 OFFCURVE",
"510 1036 CURVE SMOOTH",
"517 1047 OFFCURVE",
"527 1060 OFFCURVE",
"551 1060 CURVE SMOOTH",
"570 1060 OFFCURVE",
"576 1047 OFFCURVE",
"573 1032 CURVE SMOOTH",
"563 987 OFFCURVE",
"481 980 OFFCURVE",
"481 929 CURVE SMOOTH",
"481 908 OFFCURVE",
"495 892 OFFCURVE",
"537 892 CURVE"
);
}
);
width = 722;
}
);
leftKerningGroup = A;
note = Abrevehookabove;
rightKerningGroup = A;
unicode = 1EB2;
},
{
glyphname = Abrevetilde;
lastChange = "2015-12-01 11:19:47 +0000";
layers = (
{
layerId = "29476F1E-CD12-4295-B0EC-F6BA1C34E337";
name = "Regular Italic";
paths = (
{
closed = 1;
nodes = (
"183 0 LINE",
"189 31 LINE",
"171 31 LINE SMOOTH",
"148 31 OFFCURVE",
"131 40 OFFCURVE",
"131 58 CURVE SMOOTH",
"131 64 OFFCURVE",
"133 72 OFFCURVE",
"138 80 CURVE SMOOTH",
"417 575 LINE",
"487 100 LINE SMOOTH",
"488 90 OFFCURVE",
"489 81 OFFCURVE",
"489 74 CURVE SMOOTH",
"489 46 OFFCURVE",
"479 31 OFFCURVE",
"439 31 CURVE SMOOTH",
"421 31 LINE",
"416 0 LINE",
"679 0 LINE",
"684 31 LINE",
"666 31 LINE SMOOTH",
"644 31 OFFCURVE",
"620 42 OFFCURVE",
"616 66 CURVE SMOOTH",
"506 717 LINE",
"414 683 LINE",
"60 67 LINE SMOOTH",
"46 44 OFFCURVE",
"12 31 OFFCURVE",
"-13 31 CURVE SMOOTH",
"-28 31 LINE",
"-34 0 LINE"
);
},
{
closed = 1;
nodes = (
"504 203 LINE",
"513 249 LINE",
"196 249 LINE",
"187 203 LINE"
);
},
{
closed = 1;
nodes = (
"587 778 OFFCURVE",
"635 840 OFFCURVE",
"653 914 CURVE",
"620 914 LINE",
"604 863 OFFCURVE",
"562 832 OFFCURVE",
"492 832 CURVE SMOOTH",
"421 832 OFFCURVE",
"392 863 OFFCURVE",
"397 914 CURVE",
"364 914 LINE",
"361 901 OFFCURVE",
"360 888 OFFCURVE",
"360 877 CURVE SMOOTH",
"360 819 OFFCURVE",
"393 778 OFFCURVE",
"481 778 CURVE SMOOTH"
);
},
{
closed = 1;
nodes = (
"395 1011 OFFCURVE",
"416 1031 OFFCURVE",
"446 1031 CURVE SMOOTH",
"495 1031 OFFCURVE",
"531 979 OFFCURVE",
"580 979 CURVE SMOOTH",
"635 979 OFFCURVE",
"674 1034 OFFCURVE",
"697 1084 CURVE",
"678 1097 LINE",
"655 1057 OFFCURVE",
"636 1036 OFFCURVE",
"605 1036 CURVE SMOOTH",
"558 1036 OFFCURVE",
"520 1087 OFFCURVE",
"471 1087 CURVE SMOOTH",
"418 1087 OFFCURVE",
"375 1035 OFFCURVE",
"354 985 CURVE",
"372 972 LINE"
);
}
);
width = 722;
}
);
leftKerningGroup = A;
note = Abrevetilde;
rightKerningGroup = A;
unicode = 1EB4;
},
{
glyphname = Acaron;
lastChange = "2015-12-01 11:19:47 +0000";
layers = (
{
layerId = "29476F1E-CD12-4295-B0EC-F6BA1C34E337";
name = "Regular Italic";
paths = (
{
closed = 1;
nodes = (
"183 0 LINE",
"189 31 LINE",
"171 31 LINE SMOOTH",
"148 31 OFFCURVE",
"131 40 OFFCURVE",
"131 58 CURVE SMOOTH",
"131 64 OFFCURVE",
"133 72 OFFCURVE",
"138 80 CURVE SMOOTH",
"417 575 LINE",
"487 100 LINE SMOOTH",
"488 90 OFFCURVE",
"489 81 OFFCURVE",
"489 74 CURVE SMOOTH",
"489 46 OFFCURVE",
"479 31 OFFCURVE",
"439 31 CURVE SMOOTH",
"421 31 LINE",
"416 0 LINE",
"679 0 LINE",
"684 31 LINE",
"666 31 LINE SMOOTH",
"644 31 OFFCURVE",
"620 42 OFFCURVE",
"616 66 CURVE SMOOTH",
"506 717 LINE",
"414 683 LINE",
"60 67 LINE SMOOTH",
"46 44 OFFCURVE",
"12 31 OFFCURVE",
"-13 31 CURVE SMOOTH",
"-28 31 LINE",
"-34 0 LINE"
);
},
{
closed = 1;
nodes = (
"504 203 LINE",
"513 249 LINE",
"196 249 LINE",
"187 203 LINE"
);
},
{
closed = 1;
nodes = (
"512 781 LINE",
"666 921 LINE",
"651 944 LINE",
"522 855 LINE SMOOTH",
"512 848 OFFCURVE",
"501 842 OFFCURVE",
"494 842 CURVE SMOOTH",
"488 842 OFFCURVE",
"479 848 OFFCURVE",
"469 855 CURVE",
"377 944 LINE",
"354 921 LINE",
"452 781 LINE"
);
}
);
width = 722;
}
);
leftKerningGroup = A;
note = Acaron;
rightKerningGroup = A;
unicode = 01CD;
},
{
glyphname = Acircumflex;
lastChange = "2015-12-01 11:19:46 +0000";
layers = (
{
layerId = "29476F1E-CD12-4295-B0EC-F6BA1C34E337";
name = "Regular Italic";
paths = (
{
closed = 1;
nodes = (
"183 0 LINE",
"189 31 LINE",
"171 31 LINE SMOOTH",
"148 31 OFFCURVE",
"131 40 OFFCURVE",
"131 58 CURVE SMOOTH",
"131 64 OFFCURVE",
"133 72 OFFCURVE",
"138 80 CURVE SMOOTH",
"417 575 LINE",
"487 100 LINE SMOOTH",
"488 90 OFFCURVE",
"489 81 OFFCURVE",
"489 74 CURVE SMOOTH",
"489 46 OFFCURVE",
"479 31 OFFCURVE",
"439 31 CURVE SMOOTH",
"421 31 LINE",
"416 0 LINE",
"679 0 LINE",
"684 31 LINE",
"666 31 LINE SMOOTH",
"644 31 OFFCURVE",
"620 42 OFFCURVE",
"616 66 CURVE SMOOTH",
"506 717 LINE",
"414 683 LINE",
"60 67 LINE SMOOTH",
"46 44 OFFCURVE",
"12 31 OFFCURVE",
"-13 31 CURVE SMOOTH",
"-28 31 LINE",
"-34 0 LINE"
);
},
{
closed = 1;
nodes = (
"504 203 LINE",
"513 249 LINE",
"196 249 LINE",
"187 203 LINE"
);
},
{
closed = 1;
nodes = (
"472 870 LINE SMOOTH",
"484 878 OFFCURVE",
"495 883 OFFCURVE",
"502 883 CURVE SMOOTH",
"509 883 OFFCURVE",
"517 877 OFFCURVE",
"525 870 CURVE SMOOTH",
"618 781 LINE",
"642 804 LINE",
"544 944 LINE",
"485 944 LINE",
"330 804 LINE",
"346 781 LINE"
);
}
);
width = 722;
}
);
leftKerningGroup = A;
note = Acircumflex;
rightKerningGroup = A;
unicode = 00C2;
},
{
glyphname = Acircumflexacute;
lastChange = "2015-12-01 11:19:47 +0000";
layers = (
{
layerId = "29476F1E-CD12-4295-B0EC-F6BA1C34E337";
name = "Regular Italic";
paths = (
{
closed = 1;
nodes = (
"183 0 LINE",
"189 31 LINE",
"171 31 LINE SMOOTH",
"148 31 OFFCURVE",
"131 40 OFFCURVE",
"131 58 CURVE SMOOTH",
"131 64 OFFCURVE",
"133 72 OFFCURVE",
"138 80 CURVE SMOOTH",
"417 575 LINE",
"487 100 LINE SMOOTH",
"488 90 OFFCURVE",
"489 81 OFFCURVE",
"489 74 CURVE SMOOTH",
"489 46 OFFCURVE",
"479 31 OFFCURVE",
"439 31 CURVE SMOOTH",
"421 31 LINE",
"416 0 LINE",
"679 0 LINE",
"684 31 LINE",
"666 31 LINE SMOOTH",
"644 31 OFFCURVE",
"620 42 OFFCURVE",
"616 66 CURVE SMOOTH",
"506 717 LINE",
"414 683 LINE",
"60 67 LINE SMOOTH",
"46 44 OFFCURVE",
"12 31 OFFCURVE",
"-13 31 CURVE SMOOTH",
"-28 31 LINE",
"-34 0 LINE"
);
},
{
closed = 1;
nodes = (
"504 203 LINE",
"513 249 LINE",
"196 249 LINE",
"187 203 LINE"
);
},
{
closed = 1;
nodes = (
"468 862 LINE SMOOTH",
"482 872 OFFCURVE",
"495 882 OFFCURVE",
"505 882 CURVE SMOOTH",
"512 882 OFFCURVE",
"519 876 OFFCURVE",
"527 869 CURVE",
"617 780 LINE",
"640 803 LINE",
"546 943 LINE",
"489 943 LINE",
"336 803 LINE",
"350 780 LINE"
);
},
{
closed = 1;
nodes = (
"754 963 LINE SMOOTH",
"786 979 OFFCURVE",
"806 1000 OFFCURVE",
"806 1020 CURVE SMOOTH",
"806 1035 OFFCURVE",
"797 1050 OFFCURVE",
"775 1050 CURVE SMOOTH",
"753 1050 OFFCURVE",
"731 1031 OFFCURVE",
"717 1019 CURVE SMOOTH",
"611 925 LINE",
"624 898 LINE"
);
}
);
width = 722;
}
);
leftKerningGroup = A;
note = Acircumflexacute;
rightKerningGroup = A;
unicode = 1EA4;
},
{
glyphname = Acircumflexdotbelow;
lastChange = "2015-12-01 11:19:46 +0000";
layers = (
{
layerId = "29476F1E-CD12-4295-B0EC-F6BA1C34E337";
name = "Regular Italic";
paths = (
{
closed = 1;
nodes = (
"183 0 LINE",
"189 31 LINE",
"171 31 LINE SMOOTH",
"148 31 OFFCURVE",
"131 40 OFFCURVE",
"131 58 CURVE SMOOTH",
"131 64 OFFCURVE",
"133 72 OFFCURVE",
"138 80 CURVE SMOOTH",
"417 575 LINE",
"487 100 LINE SMOOTH",
"488 90 OFFCURVE",
"489 81 OFFCURVE",
"489 74 CURVE SMOOTH",
"489 46 OFFCURVE",
"479 31 OFFCURVE",
"439 31 CURVE SMOOTH",
"421 31 LINE",
"416 0 LINE",
"679 0 LINE",
"684 31 LINE",
"666 31 LINE SMOOTH",
"644 31 OFFCURVE",
"620 42 OFFCURVE",
"616 66 CURVE SMOOTH",
"506 717 LINE",
"414 683 LINE",
"60 67 LINE SMOOTH",
"46 44 OFFCURVE",
"12 31 OFFCURVE",
"-13 31 CURVE SMOOTH",
"-28 31 LINE",
"-34 0 LINE"
);
},
{
closed = 1;
nodes = (
"327 -170 OFFCURVE",
"353 -140 OFFCURVE",
"353 -103 CURVE SMOOTH",
"353 -80 OFFCURVE",
"339 -64 OFFCURVE",
"313 -64 CURVE SMOOTH",
"278 -64 OFFCURVE",
"250 -93 OFFCURVE",
"250 -131 CURVE SMOOTH",
"250 -154 OFFCURVE",
"265 -170 OFFCURVE",
"291 -170 CURVE SMOOTH"
);
},
{
closed = 1;
nodes = (
"504 203 LINE",
"513 249 LINE",
"196 249 LINE",
"187 203 LINE"
);
},
{
closed = 1;
nodes = (
"473 869 LINE SMOOTH",
"485 877 OFFCURVE",
"496 882 OFFCURVE",
"503 882 CURVE SMOOTH",
"510 882 OFFCURVE",
"518 876 OFFCURVE",
"526 869 CURVE SMOOTH",
"619 780 LINE",
"643 803 LINE",
"545 943 LINE",
"486 943 LINE",
"331 803 LINE",
"347 780 LINE"
);
}
);
width = 722;
}
);
leftKerningGroup = A;
note = Acircumflexdotbelow;
rightKerningGroup = A;
unicode = 1EAC;
},
{
glyphname = Acircumflexgrave;
lastChange = "2015-12-01 11:19:47 +0000";
layers = (
{
layerId = "29476F1E-CD12-4295-B0EC-F6BA1C34E337";
name = "Regular Italic";
paths = (
{
closed = 1;
nodes = (
"183 0 LINE",
"189 31 LINE",
"171 31 LINE SMOOTH",
"148 31 OFFCURVE",
"131 40 OFFCURVE",
"131 58 CURVE SMOOTH",
"131 64 OFFCURVE",
"133 72 OFFCURVE",
"138 80 CURVE SMOOTH",
"417 575 LINE",
"487 100 LINE SMOOTH",
"488 90 OFFCURVE",
"489 81 OFFCURVE",
"489 74 CURVE SMOOTH",
"489 46 OFFCURVE",
"479 31 OFFCURVE",
"439 31 CURVE SMOOTH",
"421 31 LINE",
"416 0 LINE",
"679 0 LINE",
"684 31 LINE",
"666 31 LINE SMOOTH",
"644 31 OFFCURVE",
"620 42 OFFCURVE",
"616 66 CURVE SMOOTH",
"506 717 LINE",
"414 683 LINE",
"60 67 LINE SMOOTH",
"46 44 OFFCURVE",
"12 31 OFFCURVE",
"-13 31 CURVE SMOOTH",
"-28 31 LINE",
"-34 0 LINE"
);
},
{
closed = 1;
nodes = (
"504 203 LINE",
"513 249 LINE",
"196 249 LINE",
"187 203 LINE"
);
},
{
closed = 1;
nodes = (
"420 925 LINE",
"351 1019 LINE",
"344 1031 OFFCURVE",
"329 1050 OFFCURVE",
"307 1050 CURVE SMOOTH",
"277 1050 OFFCURVE",
"260 1022 OFFCURVE",
"260 1006 CURVE SMOOTH",
"260 990 OFFCURVE",
"272 975 OFFCURVE",
"292 963 CURVE SMOOTH",
"395 898 LINE"
);
},
{
closed = 1;
nodes = (
"468 862 LINE SMOOTH",
"482 872 OFFCURVE",
"495 882 OFFCURVE",
"505 882 CURVE SMOOTH",
"512 882 OFFCURVE",
"519 876 OFFCURVE",
"527 869 CURVE",
"617 780 LINE",
"640 803 LINE",
"546 943 LINE",
"489 943 LINE",
"336 803 LINE",
"350 780 LINE"
);
}
);
width = 722;
}
);
leftKerningGroup = A;
note = Acircumflexgrave;
rightKerningGroup = A;
unicode = 1EA6;
},
{
glyphname = Acircumflexhookabove;
lastChange = "2015-12-01 11:19:46 +0000";
layers = (
{
layerId = "29476F1E-CD12-4295-B0EC-F6BA1C34E337";
name = "Regular Italic";
paths = (
{
closed = 1;
nodes = (
"183 0 LINE",
"189 31 LINE",
"171 31 LINE SMOOTH",
"148 31 OFFCURVE",
"131 40 OFFCURVE",
"131 58 CURVE SMOOTH",
"131 64 OFFCURVE",
"133 72 OFFCURVE",
"138 80 CURVE SMOOTH",
"417 575 LINE",
"487 100 LINE SMOOTH",
"488 90 OFFCURVE",
"489 81 OFFCURVE",
"489 74 CURVE SMOOTH",
"489 46 OFFCURVE",
"479 31 OFFCURVE",
"439 31 CURVE SMOOTH",
"421 31 LINE",
"416 0 LINE",
"679 0 LINE",
"684 31 LINE",
"666 31 LINE SMOOTH",
"644 31 OFFCURVE",
"620 42 OFFCURVE",
"616 66 CURVE SMOOTH",
"506 717 LINE",
"414 683 LINE",
"60 67 LINE SMOOTH",
"46 44 OFFCURVE",
"12 31 OFFCURVE",
"-13 31 CURVE SMOOTH",
"-28 31 LINE",
"-34 0 LINE"
);
},
{
closed = 1;
nodes = (
"504 203 LINE",
"513 249 LINE",
"196 249 LINE",
"187 203 LINE"
);
},
{
closed = 1;
nodes = (
"468 862 LINE SMOOTH",
"482 872 OFFCURVE",
"495 882 OFFCURVE",
"505 882 CURVE SMOOTH",
"512 882 OFFCURVE",
"519 876 OFFCURVE",
"527 869 CURVE",
"617 780 LINE",
"640 803 LINE",
"546 943 LINE",
"489 943 LINE",
"336 803 LINE",
"350 780 LINE"
);
},
{
closed = 1;
nodes = (
"686 907 LINE",
"670 915 OFFCURVE",
"660 917 OFFCURVE",
"664 935 CURVE SMOOTH",
"671 967 OFFCURVE",
"763 977 OFFCURVE",
"763 1033 CURVE SMOOTH",
"763 1065 OFFCURVE",
"727 1079 OFFCURVE",
"688 1079 CURVE SMOOTH",
"658 1079 OFFCURVE",
"612 1068 OFFCURVE",
"605 1036 CURVE SMOOTH",
"602 1023 OFFCURVE",
"612 1014 OFFCURVE",
"622 1014 CURVE SMOOTH",
"649 1014 OFFCURVE",
"645 1055 OFFCURVE",
"688 1055 CURVE SMOOTH",
"705 1055 OFFCURVE",
"711 1046 OFFCURVE",
"711 1035 CURVE SMOOTH",
"711 986 OFFCURVE",
"628 978 OFFCURVE",
"620 934 CURVE SMOOTH",
"619 930 OFFCURVE",
"619 927 OFFCURVE",
"619 923 CURVE SMOOTH",
"619 903 OFFCURVE",
"632 887 OFFCURVE",
"674 887 CURVE"
);
}
);
width = 722;
}
);
leftKerningGroup = A;
note = Acircumflexhookabove;
rightKerningGroup = A;
unicode = 1EA8;
},
{
glyphname = Acircumflextilde;
lastChange = "2015-12-01 11:19:45 +0000";
layers = (
{
layerId = "29476F1E-CD12-4295-B0EC-F6BA1C34E337";
name = "Regular Italic";
paths = (
{
closed = 1;
nodes = (
"183 0 LINE",
"189 31 LINE",
"171 31 LINE SMOOTH",
"148 31 OFFCURVE",
"131 40 OFFCURVE",
"131 58 CURVE SMOOTH",
"131 64 OFFCURVE",
"133 72 OFFCURVE",
"138 80 CURVE SMOOTH",
"417 575 LINE",
"487 100 LINE SMOOTH",
"488 90 OFFCURVE",
"489 81 OFFCURVE",
"489 74 CURVE SMOOTH",
"489 46 OFFCURVE",
"479 31 OFFCURVE",
"439 31 CURVE SMOOTH",
"421 31 LINE",
"416 0 LINE",
"679 0 LINE",
"684 31 LINE",
"666 31 LINE SMOOTH",
"644 31 OFFCURVE",
"620 42 OFFCURVE",
"616 66 CURVE SMOOTH",
"506 717 LINE",
"414 683 LINE",
"60 67 LINE SMOOTH",
"46 44 OFFCURVE",
"12 31 OFFCURVE",
"-13 31 CURVE SMOOTH",
"-28 31 LINE",
"-34 0 LINE"
);
},
{
closed = 1;
nodes = (
"504 203 LINE",
"513 249 LINE",
"196 249 LINE",
"187 203 LINE"
);
},
{
closed = 1;
nodes = (
"468 862 LINE SMOOTH",
"482 872 OFFCURVE",
"495 882 OFFCURVE",
"505 882 CURVE SMOOTH",
"512 882 OFFCURVE",
"519 876 OFFCURVE",
"527 869 CURVE",
"617 780 LINE",
"640 803 LINE",
"546 943 LINE",
"489 943 LINE",
"336 803 LINE",
"350 780 LINE"
);
},
{
closed = 1;
nodes = (
"405 1006 OFFCURVE",
"426 1026 OFFCURVE",
"457 1026 CURVE SMOOTH",
"506 1026 OFFCURVE",
"541 974 OFFCURVE",
"590 974 CURVE SMOOTH",
"645 974 OFFCURVE",
"684 1029 OFFCURVE",
"708 1079 CURVE",
"688 1092 LINE",
"665 1052 OFFCURVE",
"647 1031 OFFCURVE",
"615 1031 CURVE SMOOTH",
"568 1031 OFFCURVE",
"531 1082 OFFCURVE",
"482 1082 CURVE SMOOTH",
"428 1082 OFFCURVE",
"386 1030 OFFCURVE",
"365 980 CURVE",
"383 967 LINE"
);
}
);
width = 722;
}
);
leftKerningGroup = A;
note = Acircumflextilde;
rightKerningGroup = A;
unicode = 1EAA;
},
{
glyphname = Adieresis;
lastChange = "2015-12-01 11:19:46 +0000";
layers = (
{
layerId = "29476F1E-CD12-4295-B0EC-F6BA1C34E337";
name = "Regular Italic";
paths = (
{
closed = 1;
nodes = (
"183 0 LINE",
"189 31 LINE",
"171 31 LINE SMOOTH",
"148 31 OFFCURVE",
"131 40 OFFCURVE",
"131 58 CURVE SMOOTH",
"131 64 OFFCURVE",
"133 72 OFFCURVE",
"138 80 CURVE SMOOTH",
"417 575 LINE",
"487 100 LINE SMOOTH",
"488 90 OFFCURVE",
"489 81 OFFCURVE",
"489 74 CURVE SMOOTH",
"489 46 OFFCURVE",
"479 31 OFFCURVE",
"439 31 CURVE SMOOTH",
"421 31 LINE",
"416 0 LINE",
"679 0 LINE",
"684 31 LINE",
"666 31 LINE SMOOTH",
"644 31 OFFCURVE",
"620 42 OFFCURVE",
"616 66 CURVE SMOOTH",
"506 717 LINE",
"414 683 LINE",
"60 67 LINE SMOOTH",
"46 44 OFFCURVE",
"12 31 OFFCURVE",
"-13 31 CURVE SMOOTH",
"-28 31 LINE",
"-34 0 LINE"
);
},
{
closed = 1;
nodes = (
"504 203 LINE",
"513 249 LINE",
"196 249 LINE",
"187 203 LINE"
);
},
{
closed = 1;
nodes = (
"401 780 OFFCURVE",
"427 809 OFFCURVE",
"427 847 CURVE SMOOTH",
"427 870 OFFCURVE",
"413 885 OFFCURVE",
"386 885 CURVE SMOOTH",
"355 885 OFFCURVE",
"332 863 OFFCURVE",
"325 832 CURVE SMOOTH",
"324 828 OFFCURVE",
"324 824 OFFCURVE",
"324 820 CURVE SMOOTH",
"324 797 OFFCURVE",
"338 780 OFFCURVE",
"364 780 CURVE SMOOTH"
);
},
{
closed = 1;
nodes = (
"614 780 OFFCURVE",
"640 810 OFFCURVE",
"640 847 CURVE SMOOTH",
"640 870 OFFCURVE",
"626 885 OFFCURVE",
"600 885 CURVE SMOOTH",
"564 885 OFFCURVE",
"537 857 OFFCURVE",
"537 819 CURVE SMOOTH",
"537 796 OFFCURVE",
"551 780 OFFCURVE",
"578 780 CURVE SMOOTH"
);
}
);
width = 722;
}
);
leftKerningGroup = A;
note = Adieresis;
rightKerningGroup = A;
unicode = 00C4;
},
{
glyphname = Adotbelow;
lastChange = "2015-12-01 11:19:46 +0000";
layers = (
{
layerId = "29476F1E-CD12-4295-B0EC-F6BA1C34E337";
name = "Regular Italic";
paths = (
{
closed = 1;
nodes = (
"183 0 LINE",
"189 31 LINE",
"171 31 LINE SMOOTH",
"148 31 OFFCURVE",
"131 40 OFFCURVE",
"131 58 CURVE SMOOTH",
"131 64 OFFCURVE",
"133 72 OFFCURVE",
"138 80 CURVE SMOOTH",
"417 575 LINE",
"487 100 LINE SMOOTH",
"488 90 OFFCURVE",
"489 81 OFFCURVE",
"489 74 CURVE SMOOTH",
"489 46 OFFCURVE",
"479 31 OFFCURVE",
"439 31 CURVE SMOOTH",
"421 31 LINE",
"416 0 LINE",
"679 0 LINE",
"684 31 LINE",
"666 31 LINE SMOOTH",
"644 31 OFFCURVE",
"620 42 OFFCURVE",
"616 66 CURVE SMOOTH",
"506 717 LINE",
"414 683 LINE",
"60 67 LINE SMOOTH",
"46 44 OFFCURVE",
"12 31 OFFCURVE",
"-13 31 CURVE SMOOTH",
"-28 31 LINE",
"-34 0 LINE"
);
},
{
closed = 1;
nodes = (
"326 -170 OFFCURVE",
"352 -140 OFFCURVE",
"352 -103 CURVE SMOOTH",
"352 -80 OFFCURVE",
"338 -64 OFFCURVE",
"312 -64 CURVE SMOOTH",
"277 -64 OFFCURVE",
"249 -93 OFFCURVE",
"249 -131 CURVE SMOOTH",
"249 -154 OFFCURVE",
"264 -170 OFFCURVE",
"290 -170 CURVE SMOOTH"
);
},
{
closed = 1;
nodes = (
"504 203 LINE",
"513 249 LINE",
"196 249 LINE",
"187 203 LINE"
);
}
);
width = 722;
}
);
leftKerningGroup = A;
note = Adotbelow;
rightKerningGroup = A;
unicode = 1EA0;
},
{
glyphname = Agrave;
lastChange = "2015-12-01 11:19:47 +0000";
layers = (
{
layerId = "29476F1E-CD12-4295-B0EC-F6BA1C34E337";
name = "Regular Italic";
paths = (
{
closed = 1;
nodes = (
"183 0 LINE",
"189 31 LINE",
"171 31 LINE SMOOTH",
"148 31 OFFCURVE",
"131 40 OFFCURVE",
"131 58 CURVE SMOOTH",
"131 64 OFFCURVE",
"133 72 OFFCURVE",
"138 80 CURVE SMOOTH",
"417 575 LINE",
"487 100 LINE SMOOTH",
"488 90 OFFCURVE",
"489 81 OFFCURVE",
"489 74 CURVE SMOOTH",
"489 46 OFFCURVE",
"479 31 OFFCURVE",
"439 31 CURVE SMOOTH",
"421 31 LINE",
"416 0 LINE",
"679 0 LINE",
"684 31 LINE",
"666 31 LINE SMOOTH",
"644 31 OFFCURVE",
"620 42 OFFCURVE",
"616 66 CURVE SMOOTH",
"506 717 LINE",
"414 683 LINE",
"60 67 LINE SMOOTH",
"46 44 OFFCURVE",
"12 31 OFFCURVE",
"-13 31 CURVE SMOOTH",
"-28 31 LINE",
"-34 0 LINE"
);
},
{
closed = 1;
nodes = (
"504 203 LINE",
"513 249 LINE",
"196 249 LINE",
"187 203 LINE"
);
},
{
closed = 1;
nodes = (
"589 810 LINE",
"500 923 LINE SMOOTH",
"493 932 OFFCURVE",
"479 951 OFFCURVE",
"456 951 CURVE SMOOTH",
"431 951 OFFCURVE",
"416 934 OFFCURVE",
"412 917 CURVE",
"411 914 OFFCURVE",
"411 910 OFFCURVE",
"411 907 CURVE SMOOTH",
"411 891 OFFCURVE",
"420 880 OFFCURVE",
"438 867 CURVE SMOOTH",
"563 780 LINE"
);
}
);
width = 722;
}
);
leftKerningGroup = A;
note = Agrave;
rightKerningGroup = A;
unicode = 00C0;
},
{
glyphname = Ahookabove;
lastChange = "2015-12-01 11:19:46 +0000";
layers = (
{
layerId = "29476F1E-CD12-4295-B0EC-F6BA1C34E337";
name = "Regular Italic";
paths = (
{
closed = 1;
nodes = (
"183 0 LINE",
"189 31 LINE",
"171 31 LINE SMOOTH",
"148 31 OFFCURVE",
"131 40 OFFCURVE",
"131 58 CURVE SMOOTH",
"131 64 OFFCURVE",
"133 72 OFFCURVE",
"138 80 CURVE SMOOTH",
"417 575 LINE",
"487 100 LINE SMOOTH",
"488 90 OFFCURVE",
"489 81 OFFCURVE",
"489 74 CURVE SMOOTH",
"489 46 OFFCURVE",
"479 31 OFFCURVE",
"439 31 CURVE SMOOTH",
"421 31 LINE",
"416 0 LINE",
"679 0 LINE",
"684 31 LINE",
"666 31 LINE SMOOTH",
"644 31 OFFCURVE",
"620 42 OFFCURVE",
"616 66 CURVE SMOOTH",
"506 717 LINE",
"414 683 LINE",
"60 67 LINE SMOOTH",
"46 44 OFFCURVE",
"12 31 OFFCURVE",
"-13 31 CURVE SMOOTH",
"-28 31 LINE",
"-34 0 LINE"
);
},
{
closed = 1;
nodes = (
"504 203 LINE",
"513 249 LINE",
"196 249 LINE",
"187 203 LINE"
);
},
{
closed = 1;
nodes = (
"543 801 LINE",
"526 808 OFFCURVE",
"516 815 OFFCURVE",
"519 831 CURVE",
"526 865 OFFCURVE",
"618 879 OFFCURVE",
"628 932 CURVE",
"629 937 OFFCURVE",
"630 942 OFFCURVE",
"630 947 CURVE SMOOTH",
"630 982 OFFCURVE",
"601 1001 OFFCURVE",
"552 1001 CURVE SMOOTH",
"504 1001 OFFCURVE",
"458 983 OFFCURVE",
"450 947 CURVE SMOOTH",
"449 944 OFFCURVE",
"449 941 OFFCURVE",
"449 938 CURVE SMOOTH",
"449 925 OFFCURVE",
"457 919 OFFCURVE",
"469 919 CURVE SMOOTH",
"495 919 OFFCURVE",
"502 943 OFFCURVE",
"505 948 CURVE SMOOTH",
"514 962 OFFCURVE",
"530 968 OFFCURVE",
"545 968 CURVE SMOOTH",
"564 968 OFFCURVE",
"574 953 OFFCURVE",
"570 936 CURVE SMOOTH",
"560 886 OFFCURVE",
"467 878 OFFCURVE",
"467 821 CURVE SMOOTH",
"467 798 OFFCURVE",
"482 779 OFFCURVE",
"530 779 CURVE"
);
}
);
width = 722;
}
);
leftKerningGroup = A;
note = Ahookabove;
rightKerningGroup = A;
unicode = 1EA2;
},
{
glyphname = Amacron;
lastChange = "2015-12-01 11:19:47 +0000";
layers = (
{
layerId = "29476F1E-CD12-4295-B0EC-F6BA1C34E337";
name = "Regular Italic";
paths = (
{
closed = 1;
nodes = (
"183 0 LINE",
"189 31 LINE",
"171 31 LINE SMOOTH",
"148 31 OFFCURVE",
"131 40 OFFCURVE",
"131 58 CURVE SMOOTH",
"131 64 OFFCURVE",
"133 72 OFFCURVE",
"138 80 CURVE SMOOTH",
"417 575 LINE",
"487 100 LINE SMOOTH",
"488 90 OFFCURVE",
"489 81 OFFCURVE",
"489 74 CURVE SMOOTH",
"489 46 OFFCURVE",
"479 31 OFFCURVE",
"439 31 CURVE SMOOTH",
"421 31 LINE",
"416 0 LINE",
"679 0 LINE",
"684 31 LINE",
"666 31 LINE SMOOTH",
"644 31 OFFCURVE",
"620 42 OFFCURVE",
"616 66 CURVE SMOOTH",
"506 717 LINE",
"414 683 LINE",
"60 67 LINE SMOOTH",
"46 44 OFFCURVE",
"12 31 OFFCURVE",
"-13 31 CURVE SMOOTH",
"-28 31 LINE",
"-34 0 LINE"
);
},
{
closed = 1;
nodes = (
"504 203 LINE",
"513 249 LINE",
"196 249 LINE",
"187 203 LINE"
);
},
{
closed = 1;
nodes = (
"653 781 LINE",
"662 829 LINE",
"325 829 LINE",
"316 781 LINE"
);
}
);
width = 722;
}
);
leftKerningGroup = A;
note = Amacron;
rightKerningGroup = A;
unicode = 0100;
},
{
glyphname = Aogonek;
lastChange = "2015-12-01 11:19:46 +0000";
layers = (
{
layerId = "29476F1E-CD12-4295-B0EC-F6BA1C34E337";
name = "Regular Italic";
paths = (
{
closed = 1;
nodes = (
"183 0 LINE",
"189 31 LINE",
"171 31 LINE SMOOTH",
"148 31 OFFCURVE",
"131 40 OFFCURVE",
"131 58 CURVE SMOOTH",
"131 64 OFFCURVE",
"133 72 OFFCURVE",
"138 80 CURVE SMOOTH",
"417 575 LINE",
"487 100 LINE SMOOTH",
"488 90 OFFCURVE",
"489 81 OFFCURVE",
"489 74 CURVE SMOOTH",
"489 46 OFFCURVE",
"479 31 OFFCURVE",
"439 31 CURVE SMOOTH",
"421 31 LINE",
"416 0 LINE",
"679 0 LINE",
"684 31 LINE",
"666 31 LINE SMOOTH",
"644 31 OFFCURVE",
"620 42 OFFCURVE",
"616 66 CURVE SMOOTH",
"506 717 LINE",
"414 683 LINE",
"60 67 LINE SMOOTH",
"46 44 OFFCURVE",
"12 31 OFFCURVE",
"-13 31 CURVE SMOOTH",
"-28 31 LINE",
"-34 0 LINE"
);
},
{
closed = 1;
nodes = (
"593 -205 OFFCURVE",
"626 -197 OFFCURVE",
"655 -177 CURVE",
"652 -155 LINE",
"636 -162 OFFCURVE",
"617 -166 OFFCURVE",
"605 -166 CURVE SMOOTH",
"577 -166 OFFCURVE",
"557 -153 OFFCURVE",
"557 -124 CURVE SMOOTH",
"557 -79 OFFCURVE",
"594 -31 OFFCURVE",
"653 6 CURVE",
"610 6 LINE",
"543 -25 OFFCURVE",
"486 -78 OFFCURVE",
"486 -138 CURVE SMOOTH",
"486 -169 OFFCURVE",
"503 -205 OFFCURVE",
"567 -205 CURVE SMOOTH"
);
},
{
closed = 1;
nodes = (
"504 203 LINE",
"513 249 LINE",
"196 249 LINE",
"187 203 LINE"
);
}
);
width = 722;
}
);
leftKerningGroup = A;
note = Aogonek;
rightKerningGroup = A;
unicode = 0104;
},
{
glyphname = Aring;
lastChange = "2015-12-01 11:19:45 +0000";
layers = (
{
layerId = "29476F1E-CD12-4295-B0EC-F6BA1C34E337";
name = "Regular Italic";
paths = (
{
closed = 1;
nodes = (
"183 0 LINE",
"189 31 LINE",
"171 31 LINE SMOOTH",
"148 31 OFFCURVE",
"131 40 OFFCURVE",
"131 58 CURVE SMOOTH",
"131 64 OFFCURVE",
"133 72 OFFCURVE",
"138 80 CURVE SMOOTH",
"417 575 LINE",
"487 100 LINE SMOOTH",
"488 90 OFFCURVE",
"489 81 OFFCURVE",
"489 74 CURVE SMOOTH",
"489 46 OFFCURVE",
"479 31 OFFCURVE",
"439 31 CURVE SMOOTH",
"421 31 LINE",
"416 0 LINE",
"679 0 LINE",
"684 31 LINE",
"666 31 LINE SMOOTH",
"644 31 OFFCURVE",
"620 42 OFFCURVE",
"616 66 CURVE SMOOTH",
"506 717 LINE",
"414 683 LINE",
"60 67 LINE SMOOTH",
"46 44 OFFCURVE",
"12 31 OFFCURVE",
"-13 31 CURVE SMOOTH",
"-28 31 LINE",
"-34 0 LINE"
);
},
{
closed = 1;
nodes = (
"504 203 LINE",
"513 249 LINE",
"196 249 LINE",
"187 203 LINE"
);
},
{
closed = 1;
nodes = (
"540 751 OFFCURVE",
"592 800 OFFCURVE",
"592 868 CURVE SMOOTH",
"592 911 OFFCURVE",
"562 939 OFFCURVE",
"514 939 CURVE SMOOTH",
"457 939 OFFCURVE",
"410 901 OFFCURVE",
"398 845 CURVE SMOOTH",
"397 838 OFFCURVE",
"396 831 OFFCURVE",
"396 824 CURVE SMOOTH",
"396 780 OFFCURVE",
"426 751 OFFCURVE",
"475 751 CURVE SMOOTH"
);
},
{
closed = 1;
nodes = (
"459 792 OFFCURVE",
"442 807 OFFCURVE",
"442 832 CURVE SMOOTH",
"442 871 OFFCURVE",
"472 898 OFFCURVE",
"505 898 CURVE SMOOTH",
"530 898 OFFCURVE",
"547 883 OFFCURVE",
"547 858 CURVE SMOOTH",
"547 819 OFFCURVE",
"517 792 OFFCURVE",
"484 792 CURVE SMOOTH"
);
}
);
width = 722;
}
);
leftKerningGroup = A;
note = Aring;
rightKerningGroup = A;
unicode = 00C5;
},
{
glyphname = Aringacute;
lastChange = "2015-12-01 11:19:47 +0000";
layers = (
{
layerId = "29476F1E-CD12-4295-B0EC-F6BA1C34E337";
name = "Regular Italic";
paths = (
{
closed = 1;
nodes = (
"183 0 LINE",
"189 31 LINE",
"171 31 LINE SMOOTH",
"148 31 OFFCURVE",
"131 40 OFFCURVE",
"131 58 CURVE SMOOTH",
"131 64 OFFCURVE",
"133 72 OFFCURVE",
"138 80 CURVE SMOOTH",
"417 575 LINE",
"487 100 LINE SMOOTH",
"488 90 OFFCURVE",
"489 81 OFFCURVE",
"489 74 CURVE SMOOTH",
"489 46 OFFCURVE",
"479 31 OFFCURVE",
"439 31 CURVE SMOOTH",
"421 31 LINE",
"416 0 LINE",
"679 0 LINE",
"684 31 LINE",
"666 31 LINE SMOOTH",
"644 31 OFFCURVE",
"620 42 OFFCURVE",
"616 66 CURVE SMOOTH",
"506 717 LINE",
"414 683 LINE",
"60 67 LINE SMOOTH",
"46 44 OFFCURVE",
"12 31 OFFCURVE",
"-13 31 CURVE SMOOTH",
"-28 31 LINE",
"-34 0 LINE"
);
},
{
closed = 1;
nodes = (
"504 203 LINE",
"513 249 LINE",
"196 249 LINE",
"187 203 LINE"
);
},
{
closed = 1;
nodes = (
"540 751 OFFCURVE",
"592 800 OFFCURVE",
"592 868 CURVE SMOOTH",
"592 911 OFFCURVE",
"562 939 OFFCURVE",
"514 939 CURVE SMOOTH",
"457 939 OFFCURVE",
"410 901 OFFCURVE",
"398 845 CURVE SMOOTH",
"397 838 OFFCURVE",
"396 831 OFFCURVE",
"396 824 CURVE SMOOTH",
"396 780 OFFCURVE",
"426 751 OFFCURVE",
"475 751 CURVE SMOOTH"
);
},
{
closed = 1;
nodes = (
"459 792 OFFCURVE",
"442 807 OFFCURVE",
"442 832 CURVE SMOOTH",
"442 871 OFFCURVE",
"472 898 OFFCURVE",
"505 898 CURVE SMOOTH",
"530 898 OFFCURVE",
"547 883 OFFCURVE",
"547 858 CURVE SMOOTH",
"547 819 OFFCURVE",
"517 792 OFFCURVE",
"484 792 CURVE SMOOTH"
);
},
{
closed = 1;
nodes = (
"603 1058 LINE SMOOTH",
"634 1074 OFFCURVE",
"651 1091 OFFCURVE",
"651 1115 CURVE SMOOTH",
"651 1129 OFFCURVE",
"642 1142 OFFCURVE",
"620 1142 CURVE SMOOTH",
"597 1142 OFFCURVE",
"575 1123 OFFCURVE",
"565 1115 CURVE SMOOTH",
"429 1001 LINE",
"443 971 LINE"
);
}
);
width = 722;
}
);
leftKerningGroup = A;
note = Aringacute;
rightKerningGroup = A;
unicode = 01FA;
},
{
glyphname = Atilde;
lastChange = "2015-12-01 11:19:47 +0000";
layers = (
{
layerId = "29476F1E-CD12-4295-B0EC-F6BA1C34E337";
name = "Regular Italic";
paths = (
{
closed = 1;
nodes = (
"183 0 LINE",
"189 31 LINE",
"171 31 LINE SMOOTH",
"148 31 OFFCURVE",
"131 40 OFFCURVE",
"131 58 CURVE SMOOTH",
"131 64 OFFCURVE",
"133 72 OFFCURVE",
"138 80 CURVE SMOOTH",
"417 575 LINE",
"487 100 LINE SMOOTH",
"488 90 OFFCURVE",
"489 81 OFFCURVE",
"489 74 CURVE SMOOTH",
"489 46 OFFCURVE",
"479 31 OFFCURVE",
"439 31 CURVE SMOOTH",
"421 31 LINE",
"416 0 LINE",
"679 0 LINE",
"684 31 LINE",
"666 31 LINE SMOOTH",
"644 31 OFFCURVE",
"620 42 OFFCURVE",
"616 66 CURVE SMOOTH",
"506 717 LINE",
"414 683 LINE",
"60 67 LINE SMOOTH",
"46 44 OFFCURVE",
"12 31 OFFCURVE",
"-13 31 CURVE SMOOTH",
"-28 31 LINE",
"-34 0 LINE"
);
},
{
closed = 1;
nodes = (
"504 203 LINE",
"513 249 LINE",
"196 249 LINE",
"187 203 LINE"
);
},
{
closed = 1;
nodes = (
"361 817 OFFCURVE",
"382 837 OFFCURVE",
"415 837 CURVE SMOOTH",
"467 837 OFFCURVE",
"505 785 OFFCURVE",
"557 785 CURVE SMOOTH",
"617 785 OFFCURVE",
"658 840 OFFCURVE",
"682 890 CURVE",
"661 903 LINE",
"637 863 OFFCURVE",
"618 842 OFFCURVE",
"585 842 CURVE SMOOTH",
"534 842 OFFCURVE",
"492 893 OFFCURVE",
"441 893 CURVE SMOOTH",
"383 893 OFFCURVE",
"340 841 OFFCURVE",
"318 791 CURVE",
"338 778 LINE"
);
}
);
width = 722;
}
);
leftKerningGroup = A;
note = Atilde;
rightKerningGroup = A;
unicode = 00C3;
},
{
glyphname = AE;
lastChange = "2015-12-01 11:19:47 +0000";
layers = (
{
layerId = "29476F1E-CD12-4295-B0EC-F6BA1C34E337";
name = "Regular Italic";
paths = (
{
closed = 1;
nodes = (
"190 0 LINE",
"196 31 LINE",
"178 31 LINE SMOOTH",
"169 31 OFFCURVE",
"152 36 OFFCURVE",
"152 43 CURVE SMOOTH",
"152 43 OFFCURVE",
"152 44 OFFCURVE",
"152 44 CURVE",
"145 45 OFFCURVE",
"135 48 OFFCURVE",
"135 58 CURVE SMOOTH",
"135 61 OFFCURVE",
"137 66 OFFCURVE",
"141 72 CURVE SMOOTH",
"241 203 LINE",
"472 203 LINE",
"444 67 LINE SMOOTH",
"439 42 OFFCURVE",
"416 31 OFFCURVE",
"385 31 CURVE SMOOTH",
"361 31 LINE",
"355 0 LINE",
"867 0 LINE",
"922 184 LINE",
"892 184 LINE",
"873 125 OFFCURVE",
"838 46 OFFCURVE",
"775 46 CURVE SMOOTH",
"555 46 LINE",
"616 344 LINE",
"763 344 LINE SMOOTH",
"791 344 OFFCURVE",
"799 324 OFFCURVE",
"799 297 CURVE SMOOTH",
"799 282 OFFCURVE",
"796 266 OFFCURVE",
"794 249 CURVE",
"820 249 LINE",
"869 485 LINE",
"843 485 LINE",
"828 437 OFFCURVE",
"815 390 OFFCURVE",
"772 390 CURVE SMOOTH",
"625 390 LINE",
"680 654 LINE",
"862 654 LINE SMOOTH",
"869 654 OFFCURVE",
"876 654 OFFCURVE",
"882 654 CURVE SMOOTH",
"936 654 OFFCURVE",
"947 607 OFFCURVE",
"947 566 CURVE SMOOTH",
"947 549 OFFCURVE",
"945 532 OFFCURVE",
"944 521 CURVE",
"973 521 LINE",
"1010 700 LINE",
"486 700 LINE",
"480 669 LINE",
"510 669 LINE SMOOTH",
"517 669 OFFCURVE",
"521 665 OFFCURVE",
"521 659 CURVE SMOOTH",
"521 656 OFFCURVE",
"520 652 OFFCURVE",
"517 648 CURVE",
"517 647 OFFCURVE",
"516 644 OFFCURVE",
"515 642 CURVE",
"83 88 LINE SMOOTH",
"60 58 OFFCURVE",
"35 33 OFFCURVE",
"-6 31 CURVE",
"-21 31 LINE",
"-27 0 LINE"
);
},
{
closed = 1;
nodes = (
"554 606 LINE",
"481 249 LINE",
"276 249 LINE"
);
}
);
width = 956;
}
);
leftKerningGroup = A;
note = AE;
rightKerningGroup = E;
unicode = 00C6;
},
{
glyphname = AEacute;
lastChange = "2015-12-01 11:19:46 +0000";
layers = (
{
layerId = "29476F1E-CD12-4295-B0EC-F6BA1C34E337";
name = "Regular Italic";
paths = (
{
closed = 1;
nodes = (
"190 0 LINE",
"196 31 LINE",
"178 31 LINE SMOOTH",
"169 31 OFFCURVE",
"152 36 OFFCURVE",
"152 43 CURVE SMOOTH",
"152 43 OFFCURVE",
"152 44 OFFCURVE",
"152 44 CURVE",
"145 45 OFFCURVE",
"135 48 OFFCURVE",
"135 58 CURVE SMOOTH",
"135 61 OFFCURVE",
"137 66 OFFCURVE",
"141 72 CURVE SMOOTH",
"241 203 LINE",
"472 203 LINE",
"444 67 LINE SMOOTH",
"439 42 OFFCURVE",
"416 31 OFFCURVE",
"385 31 CURVE SMOOTH",
"361 31 LINE",
"355 0 LINE",
"867 0 LINE",
"922 184 LINE",
"892 184 LINE",
"873 125 OFFCURVE",
"838 46 OFFCURVE",
"775 46 CURVE SMOOTH",
"555 46 LINE",
"616 344 LINE",
"763 344 LINE SMOOTH",
"791 344 OFFCURVE",
"799 324 OFFCURVE",
"799 297 CURVE SMOOTH",
"799 282 OFFCURVE",
"796 266 OFFCURVE",
"794 249 CURVE",
"820 249 LINE",
"869 485 LINE",
"843 485 LINE",
"828 437 OFFCURVE",
"815 390 OFFCURVE",
"772 390 CURVE SMOOTH",
"625 390 LINE",
"680 654 LINE",
"862 654 LINE SMOOTH",
"869 654 OFFCURVE",
"876 654 OFFCURVE",
"882 654 CURVE SMOOTH",
"936 654 OFFCURVE",
"947 607 OFFCURVE",
"947 566 CURVE SMOOTH",
"947 549 OFFCURVE",
"945 532 OFFCURVE",
"944 521 CURVE",
"973 521 LINE",
"1010 700 LINE",
"486 700 LINE",
"480 669 LINE",
"510 669 LINE SMOOTH",
"517 669 OFFCURVE",
"521 665 OFFCURVE",
"521 659 CURVE SMOOTH",
"521 656 OFFCURVE",
"520 652 OFFCURVE",
"517 648 CURVE",
"517 647 OFFCURVE",
"516 644 OFFCURVE",
"515 642 CURVE",
"83 88 LINE SMOOTH",
"60 58 OFFCURVE",
"35 33 OFFCURVE",
"-6 31 CURVE",
"-21 31 LINE",
"-27 0 LINE"
);
},
{
closed = 1;
nodes = (
"554 606 LINE",
"481 249 LINE",
"276 249 LINE"
);
},
{
closed = 1;
nodes = (
"880 867 LINE SMOOTH",
"911 883 OFFCURVE",
"928 900 OFFCURVE",
"928 925 CURVE SMOOTH",
"928 939 OFFCURVE",
"920 951 OFFCURVE",
"898 951 CURVE SMOOTH",
"875 951 OFFCURVE",
"852 932 OFFCURVE",
"843 924 CURVE SMOOTH",
"707 810 LINE",
"720 780 LINE"
);
}
);
width = 956;
}
);
leftKerningGroup = A;
note = AEacute;
rightKerningGroup = E;
unicode = 01FC;
},
{
glyphname = B;
lastChange = "2015-12-01 11:19:47 +0000";
layers = (
{
layerId = "29476F1E-CD12-4295-B0EC-F6BA1C34E337";
name = "Regular Italic";
paths = (
{
closed = 1;
nodes = (
"318 0 LINE SMOOTH",
"468 0 OFFCURVE",
"553 72 OFFCURVE",
"577 190 CURVE SMOOTH",
"580 204 OFFCURVE",
"581 218 OFFCURVE",
"581 232 CURVE SMOOTH",
"581 292 OFFCURVE",
"552 351 OFFCURVE",
"449 368 CURVE",
"449 369 OFFCURVE",
"449 370 OFFCURVE",
"449 370 CURVE",
"536 392 OFFCURVE",
"592 460 OFFCURVE",
"608 534 CURVE SMOOTH",
"611 549 OFFCURVE",
"613 563 OFFCURVE",
"613 576 CURVE SMOOTH",
"613 657 OFFCURVE",
"554 700 OFFCURVE",
"428 700 CURVE SMOOTH",
"120 700 LINE",
"114 669 LINE",
"142 669 LINE SMOOTH",
"175 669 OFFCURVE",
"191 660 OFFCURVE",
"191 641 CURVE SMOOTH",
"191 638 OFFCURVE",
"191 635 OFFCURVE",
"190 632 CURVE SMOOTH",
"75 67 LINE SMOOTH",
"69 42 OFFCURVE",
"49 31 OFFCURVE",
"12 31 CURVE SMOOTH",
"-16 31 LINE",
"-22 0 LINE"
);
},
{
closed = 1;
nodes = (
"247 344 LINE",
"327 344 LINE SMOOTH",
"425 344 OFFCURVE",
"470 312 OFFCURVE",
"470 242 CURVE SMOOTH",
"470 228 OFFCURVE",
"468 213 OFFCURVE",
"465 196 CURVE SMOOTH",
"445 100 OFFCURVE",
"385 46 OFFCURVE",
"284 46 CURVE SMOOTH",
"185 46 LINE"
);
},
{
closed = 1;
nodes = (
"310 654 LINE",
"385 654 LINE SMOOTH",
"459 654 OFFCURVE",
"496 627 OFFCURVE",
"496 569 CURVE SMOOTH",
"496 557 OFFCURVE",
"495 544 OFFCURVE",
"492 530 CURVE SMOOTH",
"476 447 OFFCURVE",
"418 389 OFFCURVE",
"340 389 CURVE SMOOTH",
"255 389 LINE"
);
}
);
width = 603;
}
);
note = B;
unicode = 0042;
},
{
glyphname = C;
lastChange = "2015-12-01 11:19:41 +0000";
layers = (
{
layerId = "29476F1E-CD12-4295-B0EC-F6BA1C34E337";
name = "Regular Italic";
paths = (
{
closed = 1;
nodes = (
"465 -10 OFFCURVE",
"579 63 OFFCURVE",
"624 172 CURVE",
"581 172 LINE",
"526 72 OFFCURVE",
"426 37 OFFCURVE",
"348 37 CURVE SMOOTH",
"229 37 OFFCURVE",
"174 112 OFFCURVE",
"174 236 CURVE SMOOTH",
"174 270 OFFCURVE",
"179 309 OFFCURVE",
"187 350 CURVE SMOOTH",
"226 540 OFFCURVE",
"335 662 OFFCURVE",
"487 662 CURVE SMOOTH",
"575 662 OFFCURVE",
"646 619 OFFCURVE",
"646 528 CURVE SMOOTH",
"646 522 OFFCURVE",
"646 515 OFFCURVE",
"645 508 CURVE",
"679 508 LINE",
"719 705 LINE",
"679 705 LINE",
"670 661 LINE SMOOTH",
"668 651 OFFCURVE",
"663 647 OFFCURVE",
"659 647 CURVE SMOOTH",
"656 647 OFFCURVE",
"653 650 OFFCURVE",
"651 651 CURVE",
"623 675 OFFCURVE",
"566 710 OFFCURVE",
"472 710 CURVE SMOOTH",
"261 710 OFFCURVE",
"116 572 OFFCURVE",
"71 350 CURVE SMOOTH",
"63 310 OFFCURVE",
"59 273 OFFCURVE",
"59 239 CURVE SMOOTH",
"59 83 OFFCURVE",
"146 -10 OFFCURVE",
"322 -10 CURVE SMOOTH"
);
}
);
width = 658;
}
);
leftKerningGroup = C;
note = C;
rightKerningGroup = C;
unicode = 0043;
},
{
glyphname = Cacute;
lastChange = "2015-12-01 11:19:46 +0000";
layers = (
{
layerId = "29476F1E-CD12-4295-B0EC-F6BA1C34E337";
name = "Regular Italic";
paths = (
{
closed = 1;
nodes = (
"465 -10 OFFCURVE",
"579 63 OFFCURVE",
"624 172 CURVE",
"581 172 LINE",
"526 72 OFFCURVE",
"426 37 OFFCURVE",
"348 37 CURVE SMOOTH",
"229 37 OFFCURVE",
"174 112 OFFCURVE",
"174 236 CURVE SMOOTH",
"174 270 OFFCURVE",
"179 309 OFFCURVE",
"187 350 CURVE SMOOTH",
"226 540 OFFCURVE",
"335 662 OFFCURVE",
"487 662 CURVE SMOOTH",
"575 662 OFFCURVE",
"646 619 OFFCURVE",
"646 528 CURVE SMOOTH",
"646 522 OFFCURVE",
"646 515 OFFCURVE",
"645 508 CURVE",
"679 508 LINE",
"719 705 LINE",
"679 705 LINE",
"670 661 LINE SMOOTH",
"668 651 OFFCURVE",
"663 647 OFFCURVE",
"659 647 CURVE SMOOTH",
"656 647 OFFCURVE",
"653 650 OFFCURVE",
"651 651 CURVE",
"623 675 OFFCURVE",
"566 710 OFFCURVE",
"472 710 CURVE SMOOTH",
"261 710 OFFCURVE",
"116 572 OFFCURVE",
"71 350 CURVE SMOOTH",
"63 310 OFFCURVE",
"59 273 OFFCURVE",
"59 239 CURVE SMOOTH",
"59 83 OFFCURVE",
"146 -10 OFFCURVE",
"322 -10 CURVE SMOOTH"
);
},
{
closed = 1;
nodes = (
"588 867 LINE SMOOTH",
"618 883 OFFCURVE",
"637 900 OFFCURVE",
"637 923 CURVE SMOOTH",
"637 938 OFFCURVE",
"628 951 OFFCURVE",
"606 951 CURVE SMOOTH",
"583 951 OFFCURVE",
"561 932 OFFCURVE",
"551 924 CURVE SMOOTH",
"415 810 LINE",
"428 780 LINE"
);
}
);
width = 658;
}
);
leftKerningGroup = C;
note = Cacute;
rightKerningGroup = C;
unicode = 0106;
},
{
glyphname = Ccaron;
lastChange = "2015-12-01 11:19:46 +0000";
layers = (
{
layerId = "29476F1E-CD12-4295-B0EC-F6BA1C34E337";
name = "Regular Italic";
paths = (
{
closed = 1;
nodes = (
"465 -10 OFFCURVE",
"579 63 OFFCURVE",
"624 172 CURVE",
"581 172 LINE",
"526 72 OFFCURVE",
"426 37 OFFCURVE",
"348 37 CURVE SMOOTH",
"229 37 OFFCURVE",
"174 112 OFFCURVE",
"174 236 CURVE SMOOTH",
"174 270 OFFCURVE",
"179 309 OFFCURVE",
"187 350 CURVE SMOOTH",
"226 540 OFFCURVE",
"335 662 OFFCURVE",
"487 662 CURVE SMOOTH",
"575 662 OFFCURVE",
"646 619 OFFCURVE",
"646 528 CURVE SMOOTH",
"646 522 OFFCURVE",
"646 515 OFFCURVE",
"645 508 CURVE",
"679 508 LINE",
"719 705 LINE",
"679 705 LINE",
"670 661 LINE SMOOTH",
"668 651 OFFCURVE",
"663 647 OFFCURVE",
"659 647 CURVE SMOOTH",
"656 647 OFFCURVE",
"653 650 OFFCURVE",
"651 651 CURVE",
"623 675 OFFCURVE",
"566 710 OFFCURVE",
"472 710 CURVE SMOOTH",
"261 710 OFFCURVE",
"116 572 OFFCURVE",
"71 350 CURVE SMOOTH",
"63 310 OFFCURVE",
"59 273 OFFCURVE",
"59 239 CURVE SMOOTH",
"59 83 OFFCURVE",
"146 -10 OFFCURVE",
"322 -10 CURVE SMOOTH"
);
},
{
closed = 1;
nodes = (
"521 781 LINE",
"676 921 LINE",
"660 944 LINE",
"532 855 LINE SMOOTH",
"521 848 OFFCURVE",
"511 842 OFFCURVE",
"504 842 CURVE SMOOTH",
"497 842 OFFCURVE",
"489 848 OFFCURVE",
"479 855 CURVE",
"387 944 LINE",
"364 921 LINE",
"462 781 LINE"
);
}
);
width = 658;
}
);
leftKerningGroup = C;
note = Ccaron;
rightKerningGroup = C;
unicode = 010C;
},
{
glyphname = Ccedilla;
lastChange = "2015-12-01 11:19:47 +0000";
layers = (
{
layerId = "29476F1E-CD12-4295-B0EC-F6BA1C34E337";
name = "Regular Italic";
paths = (
{
closed = 1;
nodes = (
"465 -10 OFFCURVE",
"579 63 OFFCURVE",
"624 172 CURVE",
"581 172 LINE",
"526 72 OFFCURVE",
"426 37 OFFCURVE",
"348 37 CURVE SMOOTH",
"229 37 OFFCURVE",
"174 112 OFFCURVE",
"174 236 CURVE SMOOTH",
"174 270 OFFCURVE",
"179 309 OFFCURVE",
"187 350 CURVE SMOOTH",
"226 540 OFFCURVE",
"335 662 OFFCURVE",
"487 662 CURVE SMOOTH",
"575 662 OFFCURVE",
"646 619 OFFCURVE",
"646 528 CURVE SMOOTH",
"646 522 OFFCURVE",
"646 515 OFFCURVE",
"645 508 CURVE",
"679 508 LINE",
"719 705 LINE",
"679 705 LINE",
"670 661 LINE SMOOTH",
"668 651 OFFCURVE",
"663 647 OFFCURVE",
"659 647 CURVE SMOOTH",
"656 647 OFFCURVE",
"653 650 OFFCURVE",
"651 651 CURVE",
"623 675 OFFCURVE",
"566 710 OFFCURVE",
"472 710 CURVE SMOOTH",
"261 710 OFFCURVE",
"116 572 OFFCURVE",
"71 350 CURVE SMOOTH",
"63 310 OFFCURVE",
"59 273 OFFCURVE",
"59 239 CURVE SMOOTH",
"59 83 OFFCURVE",
"146 -10 OFFCURVE",
"322 -10 CURVE SMOOTH"
);
},
{
closed = 1;
nodes = (
"302 -227 OFFCURVE",
"390 -215 OFFCURVE",
"406 -132 CURVE SMOOTH",
"407 -126 OFFCURVE",
"408 -121 OFFCURVE",
"408 -116 CURVE SMOOTH",
"408 -69 OFFCURVE",
"355 -54 OFFCURVE",
"322 -54 CURVE",
"372 14 LINE",
"324 14 LINE",
"253 -80 LINE",
"259 -91 LINE",
"279 -91 OFFCURVE",
"341 -99 OFFCURVE",
"333 -136 CURVE SMOOTH",
"324 -181 OFFCURVE",
"280 -193 OFFCURVE",
"228 -193 CURVE SMOOTH",
"221 -193 OFFCURVE",
"215 -192 OFFCURVE",
"207 -191 CURVE",
"196 -222 LINE",
"212 -225 OFFCURVE",
"226 -227 OFFCURVE",
"245 -227 CURVE SMOOTH"
);
}
);
width = 658;
}
);
leftKerningGroup = C;
note = Ccedilla;
rightKerningGroup = C;
unicode = 00C7;
},
{
glyphname = Ccircumflex;
lastChange = "2015-12-01 11:19:46 +0000";
layers = (
{
layerId = "29476F1E-CD12-4295-B0EC-F6BA1C34E337";
name = "Regular Italic";
paths = (
{
closed = 1;
nodes = (
"465 -10 OFFCURVE",
"579 63 OFFCURVE",
"624 172 CURVE",
"581 172 LINE",
"526 72 OFFCURVE",
"426 37 OFFCURVE",
"348 37 CURVE SMOOTH",
"229 37 OFFCURVE",
"174 112 OFFCURVE",
"174 236 CURVE SMOOTH",
"174 270 OFFCURVE",
"179 309 OFFCURVE",
"187 350 CURVE SMOOTH",
"226 540 OFFCURVE",
"335 662 OFFCURVE",
"487 662 CURVE SMOOTH",
"575 662 OFFCURVE",
"646 619 OFFCURVE",
"646 528 CURVE SMOOTH",
"646 522 OFFCURVE",
"646 515 OFFCURVE",
"645 508 CURVE",
"679 508 LINE",
"719 705 LINE",
"679 705 LINE",
"670 661 LINE SMOOTH",
"668 651 OFFCURVE",
"663 647 OFFCURVE",
"659 647 CURVE SMOOTH",
"656 647 OFFCURVE",
"653 650 OFFCURVE",
"651 651 CURVE",
"623 675 OFFCURVE",
"566 710 OFFCURVE",
"472 710 CURVE SMOOTH",
"261 710 OFFCURVE",
"116 572 OFFCURVE",
"71 350 CURVE SMOOTH",
"63 310 OFFCURVE",
"59 273 OFFCURVE",
"59 239 CURVE SMOOTH",
"59 83 OFFCURVE",
"146 -10 OFFCURVE",
"322 -10 CURVE SMOOTH"
);
},
{
closed = 1;
nodes = (
"487 870 LINE SMOOTH",
"498 878 OFFCURVE",
"510 883 OFFCURVE",
"516 883 CURVE SMOOTH",
"523 883 OFFCURVE",
"532 877 OFFCURVE",
"540 870 CURVE SMOOTH",
"633 781 LINE",
"657 804 LINE",
"559 944 LINE",
"499 944 LINE",
"345 804 LINE",
"360 781 LINE"
);
}
);
width = 658;
}
);
leftKerningGroup = C;
note = Ccircumflex;
rightKerningGroup = C;
unicode = 0108;
},
{
glyphname = Cdotaccent;
lastChange = "2015-12-01 11:19:45 +0000";
layers = (
{
layerId = "29476F1E-CD12-4295-B0EC-F6BA1C34E337";
name = "Regular Italic";
paths = (
{
closed = 1;
nodes = (
"465 -10 OFFCURVE",
"579 63 OFFCURVE",
"624 172 CURVE",
"581 172 LINE",
"526 72 OFFCURVE",
"426 37 OFFCURVE",
"348 37 CURVE SMOOTH",
"229 37 OFFCURVE",
"174 112 OFFCURVE",
"174 236 CURVE SMOOTH",
"174 270 OFFCURVE",
"179 309 OFFCURVE",
"187 350 CURVE SMOOTH",
"226 540 OFFCURVE",
"335 662 OFFCURVE",
"487 662 CURVE SMOOTH",
"575 662 OFFCURVE",
"646 619 OFFCURVE",
"646 528 CURVE SMOOTH",
"646 522 OFFCURVE",
"646 515 OFFCURVE",
"645 508 CURVE",
"679 508 LINE",
"719 705 LINE",
"679 705 LINE",
"670 661 LINE SMOOTH",
"668 651 OFFCURVE",
"663 647 OFFCURVE",
"659 647 CURVE SMOOTH",
"656 647 OFFCURVE",
"653 650 OFFCURVE",
"651 651 CURVE",
"623 675 OFFCURVE",
"566 710 OFFCURVE",
"472 710 CURVE SMOOTH",
"261 710 OFFCURVE",
"116 572 OFFCURVE",
"71 350 CURVE SMOOTH",
"63 310 OFFCURVE",
"59 273 OFFCURVE",
"59 239 CURVE SMOOTH",
"59 83 OFFCURVE",
"146 -10 OFFCURVE",
"322 -10 CURVE SMOOTH"
);
},
{
closed = 1;
nodes = (
"526 767 OFFCURVE",
"549 789 OFFCURVE",
"556 819 CURVE",
"557 824 OFFCURVE",
"557 828 OFFCURVE",
"557 832 CURVE SMOOTH",
"557 856 OFFCURVE",
"542 872 OFFCURVE",
"516 872 CURVE SMOOTH",
"486 872 OFFCURVE",
"462 850 OFFCURVE",
"456 819 CURVE",
"455 814 OFFCURVE",
"454 810 OFFCURVE",
"454 806 CURVE SMOOTH",
"454 783 OFFCURVE",
"470 767 OFFCURVE",
"495 767 CURVE SMOOTH"
);
}
);
width = 658;
}
);
leftKerningGroup = C;
note = Cdotaccent;
rightKerningGroup = C;
unicode = 010A;
},
{
glyphname = D;
lastChange = "2015-12-01 11:19:46 +0000";
layers = (
{
layerId = "29476F1E-CD12-4295-B0EC-F6BA1C34E337";
name = "Regular Italic";
paths = (
{
closed = 1;
nodes = (
"290 0 LINE SMOOTH",
"502 0 OFFCURVE",
"627 120 OFFCURVE",
"674 350 CURVE SMOOTH",
"683 393 OFFCURVE",
"687 432 OFFCURVE",
"687 467 CURVE SMOOTH",
"687 620 OFFCURVE",
"605 700 OFFCURVE",
"433 700 CURVE SMOOTH",
"119 700 LINE",
"113 669 LINE",
"142 669 LINE SMOOTH",
"174 669 OFFCURVE",
"190 660 OFFCURVE",
"190 641 CURVE SMOOTH",
"190 638 OFFCURVE",
"190 635 OFFCURVE",
"189 632 CURVE SMOOTH",
"74 67 LINE SMOOTH",
"68 42 OFFCURVE",
"48 31 OFFCURVE",
"12 31 CURVE SMOOTH",
"-17 31 LINE",
"-23 0 LINE"
);
},
{
closed = 1;
nodes = (
"309 655 LINE",
"423 655 LINE SMOOTH",
"524 655 OFFCURVE",
"572 589 OFFCURVE",
"572 473 CURVE SMOOTH",
"572 437 OFFCURVE",
"567 396 OFFCURVE",
"558 350 CURVE SMOOTH",
"518 156 OFFCURVE",
"428 45 OFFCURVE",
"297 45 CURVE SMOOTH",
"184 45 LINE"
);
}
);
width = 681;
}
);
note = D;
rightKerningGroup = D;
unicode = 0044;
},
{
glyphname = Eth;
lastChange = "2015-12-01 11:20:43 +0000";
layers = (
{
layerId = "29476F1E-CD12-4295-B0EC-F6BA1C34E337";
name = "Regular Italic";
paths = (
{
closed = 1;
nodes = (
"290 0 LINE SMOOTH",
"502 0 OFFCURVE",
"627 120 OFFCURVE",
"674 350 CURVE SMOOTH",
"683 393 OFFCURVE",
"687 432 OFFCURVE",
"687 467 CURVE SMOOTH",
"687 620 OFFCURVE",
"605 700 OFFCURVE",
"433 700 CURVE SMOOTH",
"119 700 LINE",
"113 669 LINE",
"142 669 LINE SMOOTH",
"174 669 OFFCURVE",
"190 660 OFFCURVE",
"190 641 CURVE SMOOTH",
"190 638 OFFCURVE",
"190 635 OFFCURVE",
"189 632 CURVE SMOOTH",
"74 67 LINE SMOOTH",
"68 42 OFFCURVE",
"48 31 OFFCURVE",
"12 31 CURVE SMOOTH",
"-17 31 LINE",
"-23 0 LINE"
);
},
{
closed = 1;
nodes = (
"309 655 LINE",
"423 655 LINE SMOOTH",
"524 655 OFFCURVE",
"572 589 OFFCURVE",
"572 473 CURVE SMOOTH",
"572 437 OFFCURVE",
"567 396 OFFCURVE",
"558 350 CURVE SMOOTH",
"518 156 OFFCURVE",
"428 45 OFFCURVE",
"297 45 CURVE SMOOTH",
"184 45 LINE"
);
},
{
closed = 1;
nodes = (
"438 320 LINE",
"448 374 LINE",
"60 374 LINE",
"50 320 LINE"
);
}
);
width = 681;
}
);
note = Eth;
rightKerningGroup = D;
unicode = 00D0;
},
{
glyphname = Dcaron;
lastChange = "2015-12-01 11:19:46 +0000";
layers = (
{
layerId = "29476F1E-CD12-4295-B0EC-F6BA1C34E337";
name = "Regular Italic";
paths = (
{
closed = 1;
nodes = (
"290 0 LINE SMOOTH",
"502 0 OFFCURVE",
"627 120 OFFCURVE",
"674 350 CURVE SMOOTH",
"683 393 OFFCURVE",
"687 432 OFFCURVE",
"687 467 CURVE SMOOTH",
"687 620 OFFCURVE",
"605 700 OFFCURVE",
"433 700 CURVE SMOOTH",
"119 700 LINE",
"113 669 LINE",
"142 669 LINE SMOOTH",
"174 669 OFFCURVE",
"190 660 OFFCURVE",
"190 641 CURVE SMOOTH",
"190 638 OFFCURVE",
"190 635 OFFCURVE",
"189 632 CURVE SMOOTH",
"74 67 LINE SMOOTH",
"68 42 OFFCURVE",
"48 31 OFFCURVE",
"12 31 CURVE SMOOTH",
"-17 31 LINE",
"-23 0 LINE"
);
},
{
closed = 1;
nodes = (
"309 655 LINE",
"423 655 LINE SMOOTH",
"524 655 OFFCURVE",
"572 589 OFFCURVE",
"572 473 CURVE SMOOTH",
"572 437 OFFCURVE",
"567 396 OFFCURVE",
"558 350 CURVE SMOOTH",
"518 156 OFFCURVE",
"428 45 OFFCURVE",
"297 45 CURVE SMOOTH",
"184 45 LINE"
);
},
{
closed = 1;
nodes = (
"473 795 LINE",
"628 935 LINE",
"612 958 LINE",
"484 869 LINE SMOOTH",
"473 862 OFFCURVE",
"463 856 OFFCURVE",
"456 856 CURVE SMOOTH",
"449 856 OFFCURVE",
"441 862 OFFCURVE",
"431 869 CURVE",
"339 958 LINE",
"316 935 LINE",
"414 795 LINE"
);
}
);
width = 681;
}
);
note = Dcaron;
rightKerningGroup = D;
unicode = 010E;
},
{
glyphname = Dcroat;
lastChange = "2015-12-01 11:20:46 +0000";
layers = (
{
layerId = "29476F1E-CD12-4295-B0EC-F6BA1C34E337";
name = "Regular Italic";
paths = (
{
closed = 1;
nodes = (
"290 0 LINE SMOOTH",
"502 0 OFFCURVE",
"627 120 OFFCURVE",
"674 350 CURVE SMOOTH",
"683 393 OFFCURVE",
"687 432 OFFCURVE",
"687 467 CURVE SMOOTH",
"687 620 OFFCURVE",
"605 700 OFFCURVE",
"433 700 CURVE SMOOTH",
"119 700 LINE",
"113 669 LINE",
"142 669 LINE SMOOTH",
"174 669 OFFCURVE",
"190 660 OFFCURVE",
"190 641 CURVE SMOOTH",
"190 638 OFFCURVE",
"190 635 OFFCURVE",
"189 632 CURVE SMOOTH",
"74 67 LINE SMOOTH",
"68 42 OFFCURVE",
"48 31 OFFCURVE",
"12 31 CURVE SMOOTH",
"-17 31 LINE",
"-23 0 LINE"
);
},
{
closed = 1;
nodes = (
"309 655 LINE",
"423 655 LINE SMOOTH",
"524 655 OFFCURVE",
"572 589 OFFCURVE",
"572 473 CURVE SMOOTH",
"572 437 OFFCURVE",
"567 396 OFFCURVE",
"558 350 CURVE SMOOTH",
"518 156 OFFCURVE",
"428 45 OFFCURVE",
"297 45 CURVE SMOOTH",
"184 45 LINE"
);
},
{
closed = 1;
nodes = (
"438 320 LINE",
"448 374 LINE",
"60 374 LINE",
"50 320 LINE"
);
}
);
width = 681;
}
);
note = Dcroat;
rightKerningGroup = D;
unicode = 0110;
},
{
glyphname = Ddotbelow;
lastChange = "2015-12-01 11:20:50 +0000";
layers = (
{
layerId = "29476F1E-CD12-4295-B0EC-F6BA1C34E337";
name = "Regular Italic";
paths = (
{
closed = 1;
nodes = (
"290 0 LINE SMOOTH",
"502 0 OFFCURVE",
"627 120 OFFCURVE",
"674 350 CURVE SMOOTH",
"683 393 OFFCURVE",
"687 432 OFFCURVE",
"687 467 CURVE SMOOTH",
"687 620 OFFCURVE",
"605 700 OFFCURVE",
"433 700 CURVE SMOOTH",
"119 700 LINE",
"113 669 LINE",
"142 669 LINE SMOOTH",
"174 669 OFFCURVE",
"190 660 OFFCURVE",
"190 641 CURVE SMOOTH",
"190 638 OFFCURVE",
"190 635 OFFCURVE",
"189 632 CURVE",
"74 67 LINE SMOOTH",
"68 42 OFFCURVE",
"48 31 OFFCURVE",
"12 31 CURVE SMOOTH",
"-17 31 LINE",
"-23 0 LINE"
);
},
{
closed = 1;
nodes = (
"309 655 LINE",
"423 655 LINE SMOOTH",
"524 655 OFFCURVE",
"572 589 OFFCURVE",
"572 473 CURVE SMOOTH",
"572 437 OFFCURVE",
"567 396 OFFCURVE",
"558 350 CURVE SMOOTH",
"518 156 OFFCURVE",
"428 45 OFFCURVE",
"297 45 CURVE SMOOTH",
"184 45 LINE"
);
},
{
closed = 1;
nodes = (
"206 -153 OFFCURVE",
"221 -170 OFFCURVE",
"248 -170 CURVE SMOOTH",
"283 -170 OFFCURVE",
"310 -141 OFFCURVE",
"310 -104 CURVE SMOOTH",
"310 -80 OFFCURVE",
"295 -64 OFFCURVE",
"270 -64 CURVE SMOOTH",
"239 -64 OFFCURVE",
"214 -87 OFFCURVE",
"207 -118 CURVE SMOOTH",
"206 -122 OFFCURVE",
"206 -125 OFFCURVE",
"206 -129 CURVE SMOOTH"
);
}
);
width = 681;
}
);
note = Ddotbelow;
rightKerningGroup = D;
unicode = 1E0C;
},
{
glyphname = Dlinebelow;
lastChange = "2015-12-01 11:20:53 +0000";
layers = (
{
layerId = "29476F1E-CD12-4295-B0EC-F6BA1C34E337";
name = "Regular Italic";
paths = (
{
closed = 1;
nodes = (
"290 0 LINE SMOOTH",
"502 0 OFFCURVE",
"627 120 OFFCURVE",
"674 350 CURVE SMOOTH",
"683 393 OFFCURVE",
"687 432 OFFCURVE",
"687 467 CURVE SMOOTH",
"687 620 OFFCURVE",
"605 700 OFFCURVE",
"433 700 CURVE SMOOTH",
"119 700 LINE",
"113 669 LINE",
"142 669 LINE SMOOTH",
"174 669 OFFCURVE",
"190 660 OFFCURVE",
"190 641 CURVE SMOOTH",
"190 638 OFFCURVE",
"190 635 OFFCURVE",
"189 632 CURVE SMOOTH",
"74 67 LINE SMOOTH",
"68 42 OFFCURVE",
"48 31 OFFCURVE",
"12 31 CURVE SMOOTH",
"-17 31 LINE",
"-23 0 LINE"
);
},
{
closed = 1;
nodes = (
"309 655 LINE",
"423 655 LINE SMOOTH",
"524 655 OFFCURVE",
"572 589 OFFCURVE",
"572 473 CURVE SMOOTH",
"572 437 OFFCURVE",
"567 396 OFFCURVE",
"558 350 CURVE SMOOTH",
"518 156 OFFCURVE",
"428 45 OFFCURVE",
"297 45 CURVE SMOOTH",
"184 45 LINE"
);
},
{
closed = 1;
nodes = (
"428 -114 LINE",
"438 -70 LINE",
"101 -70 LINE",
"91 -114 LINE"
);
}
);
width = 681;
}
);
note = Dlinebelow;
rightKerningGroup = D;
unicode = 1E0E;
},
{
glyphname = E;
lastChange = "2015-12-01 11:19:47 +0000";
layers = (
{
layerId = "29476F1E-CD12-4295-B0EC-F6BA1C34E337";
name = "Regular Italic";
paths = (
{
closed = 1;
nodes = (
"510 0 LINE",
"564 184 LINE",
"535 184 LINE",
"516 125 OFFCURVE",
"481 46 OFFCURVE",
"418 46 CURVE SMOOTH",
"183 46 LINE",
"308 654 LINE",
"525 654 LINE SMOOTH",
"579 654 OFFCURVE",
"590 607 OFFCURVE",
"590 566 CURVE SMOOTH",
"590 549 OFFCURVE",
"588 532 OFFCURVE",
"587 521 CURVE",
"616 521 LINE",
"653 700 LINE",
"118 700 LINE",
"112 669 LINE",
"140 669 LINE SMOOTH",
"173 669 OFFCURVE",
"189 660 OFFCURVE",
"189 641 CURVE SMOOTH",
"189 638 OFFCURVE",
"189 635 OFFCURVE",
"188 632 CURVE SMOOTH",
"73 67 LINE SMOOTH",
"67 42 OFFCURVE",
"47 31 OFFCURVE",
"10 31 CURVE SMOOTH",
"-18 31 LINE",
"-24 0 LINE"
);
},
{
closed = 1;
nodes = (
"461 249 LINE",
"510 485 LINE",
"484 485 LINE",
"469 437 OFFCURVE",
"456 390 OFFCURVE",
"413 390 CURVE SMOOTH",
"207 390 LINE",
"199 344 LINE",
"404 344 LINE SMOOTH",
"432 344 OFFCURVE",
"440 324 OFFCURVE",
"440 297 CURVE SMOOTH",
"440 282 OFFCURVE",
"437 266 OFFCURVE",
"435 249 CURVE"
);
}
);
width = 599;
}
);
note = E;
rightKerningGroup = E;
unicode = 0045;
},
{
glyphname = Eacute;
lastChange = "2015-12-01 11:19:46 +0000";
layers = (
{
layerId = "29476F1E-CD12-4295-B0EC-F6BA1C34E337";
name = "Regular Italic";
paths = (
{
closed = 1;
nodes = (
"510 0 LINE",
"564 184 LINE",
"535 184 LINE",
"516 125 OFFCURVE",
"481 46 OFFCURVE",
"418 46 CURVE SMOOTH",
"183 46 LINE",
"308 654 LINE",
"525 654 LINE SMOOTH",
"579 654 OFFCURVE",
"590 607 OFFCURVE",
"590 566 CURVE SMOOTH",
"590 549 OFFCURVE",
"588 532 OFFCURVE",
"587 521 CURVE",
"616 521 LINE",
"653 700 LINE",
"118 700 LINE",
"112 669 LINE",
"140 669 LINE SMOOTH",
"173 669 OFFCURVE",
"189 660 OFFCURVE",
"189 641 CURVE SMOOTH",
"189 638 OFFCURVE",
"189 635 OFFCURVE",
"188 632 CURVE SMOOTH",
"73 67 LINE SMOOTH",
"67 42 OFFCURVE",
"47 31 OFFCURVE",
"10 31 CURVE SMOOTH",
"-18 31 LINE",
"-24 0 LINE"
);
},
{
closed = 1;
nodes = (
"461 249 LINE",
"510 485 LINE",
"484 485 LINE",
"469 437 OFFCURVE",
"456 390 OFFCURVE",
"413 390 CURVE SMOOTH",
"207 390 LINE",
"199 344 LINE",
"404 344 LINE SMOOTH",
"432 344 OFFCURVE",
"440 324 OFFCURVE",
"440 297 CURVE SMOOTH",
"440 282 OFFCURVE",
"437 266 OFFCURVE",
"435 249 CURVE"
);
},
{
closed = 1;
nodes = (
"537 867 LINE SMOOTH",
"568 883 OFFCURVE",
"585 900 OFFCURVE",
"585 924 CURVE SMOOTH",
"585 938 OFFCURVE",
"576 951 OFFCURVE",
"554 951 CURVE SMOOTH",
"531 951 OFFCURVE",
"509 932 OFFCURVE",
"499 924 CURVE SMOOTH",
"363 810 LINE",
"376 780 LINE"
);
}
);
width = 599;
}
);
note = Eacute;
rightKerningGroup = E;
unicode = 00C9;
},
{
glyphname = Ebreve;
lastChange = "2015-12-01 11:19:45 +0000";
layers = (
{
layerId = "29476F1E-CD12-4295-B0EC-F6BA1C34E337";
name = "Regular Italic";
paths = (
{
closed = 1;
nodes = (
"510 0 LINE",
"564 184 LINE",
"535 184 LINE",
"516 125 OFFCURVE",
"481 46 OFFCURVE",
"418 46 CURVE SMOOTH",
"183 46 LINE",
"308 654 LINE",
"525 654 LINE SMOOTH",
"579 654 OFFCURVE",
"590 607 OFFCURVE",
"590 566 CURVE SMOOTH",
"590 549 OFFCURVE",
"588 532 OFFCURVE",
"587 521 CURVE",
"616 521 LINE",
"653 700 LINE",
"118 700 LINE",
"112 669 LINE",
"140 669 LINE SMOOTH",
"173 669 OFFCURVE",
"189 660 OFFCURVE",
"189 641 CURVE SMOOTH",
"189 638 OFFCURVE",
"189 635 OFFCURVE",
"188 632 CURVE SMOOTH",
"73 67 LINE SMOOTH",
"67 42 OFFCURVE",
"47 31 OFFCURVE",
"10 31 CURVE SMOOTH",
"-18 31 LINE",
"-24 0 LINE"
);
},
{
closed = 1;
nodes = (
"461 249 LINE",
"510 485 LINE",
"484 485 LINE",
"469 437 OFFCURVE",
"456 390 OFFCURVE",
"413 390 CURVE SMOOTH",
"207 390 LINE",
"199 344 LINE",
"404 344 LINE SMOOTH",
"432 344 OFFCURVE",
"440 324 OFFCURVE",
"440 297 CURVE SMOOTH",
"440 282 OFFCURVE",
"437 266 OFFCURVE",
"435 249 CURVE"
);
},
{
closed = 1;
nodes = (
"556 776 OFFCURVE",
"606 839 OFFCURVE",
"624 913 CURVE",
"589 913 LINE",
"574 861 OFFCURVE",
"532 830 OFFCURVE",
"462 830 CURVE SMOOTH",
"393 830 OFFCURVE",
"362 861 OFFCURVE",
"367 913 CURVE",
"334 913 LINE",
"332 901 OFFCURVE",
"331 889 OFFCURVE",
"331 878 CURVE SMOOTH",
"331 819 OFFCURVE",
"363 776 OFFCURVE",
"451 776 CURVE SMOOTH"
);
}
);
width = 599;
}
);
note = Ebreve;
rightKerningGroup = E;
unicode = 0114;
},
{
glyphname = Ecaron;
lastChange = "2015-12-01 11:19:46 +0000";
layers = (
{
layerId = "29476F1E-CD12-4295-B0EC-F6BA1C34E337";
name = "Regular Italic";
paths = (
{
closed = 1;
nodes = (
"510 0 LINE",
"564 184 LINE",
"535 184 LINE",
"516 125 OFFCURVE",
"481 46 OFFCURVE",
"418 46 CURVE SMOOTH",
"183 46 LINE",
"308 654 LINE",
"525 654 LINE SMOOTH",
"579 654 OFFCURVE",
"590 607 OFFCURVE",
"590 566 CURVE SMOOTH",
"590 549 OFFCURVE",
"588 532 OFFCURVE",
"587 521 CURVE",
"616 521 LINE",
"653 700 LINE",
"118 700 LINE",
"112 669 LINE",
"140 669 LINE SMOOTH",
"173 669 OFFCURVE",
"189 660 OFFCURVE",
"189 641 CURVE SMOOTH",
"189 638 OFFCURVE",
"189 635 OFFCURVE",
"188 632 CURVE SMOOTH",
"73 67 LINE SMOOTH",
"67 42 OFFCURVE",
"47 31 OFFCURVE",
"10 31 CURVE SMOOTH",
"-18 31 LINE",
"-24 0 LINE"
);
},
{
closed = 1;
nodes = (
"461 249 LINE",
"510 485 LINE",
"484 485 LINE",
"469 437 OFFCURVE",
"456 390 OFFCURVE",
"413 390 CURVE SMOOTH",
"207 390 LINE",
"199 344 LINE",
"404 344 LINE SMOOTH",
"432 344 OFFCURVE",
"440 324 OFFCURVE",
"440 297 CURVE SMOOTH",
"440 282 OFFCURVE",
"437 266 OFFCURVE",
"435 249 CURVE"
);
},
{
closed = 1;
nodes = (
"480 781 LINE",
"635 921 LINE",
"619 944 LINE",
"491 855 LINE SMOOTH",
"480 848 OFFCURVE",
"469 842 OFFCURVE",
"463 842 CURVE SMOOTH",
"456 842 OFFCURVE",
"447 848 OFFCURVE",
"438 855 CURVE",
"346 944 LINE",
"323 921 LINE",
"420 781 LINE"
);
}
);
width = 599;
}
);
note = Ecaron;
rightKerningGroup = E;
unicode = 011A;
},
{
glyphname = Ecircumflex;
lastChange = "2015-12-01 11:19:46 +0000";
layers = (
{
layerId = "29476F1E-CD12-4295-B0EC-F6BA1C34E337";
name = "Regular Italic";
paths = (
{
closed = 1;
nodes = (
"510 0 LINE",
"564 184 LINE",
"535 184 LINE",
"516 125 OFFCURVE",
"481 46 OFFCURVE",
"418 46 CURVE SMOOTH",
"183 46 LINE",
"308 654 LINE",
"525 654 LINE SMOOTH",
"579 654 OFFCURVE",
"590 607 OFFCURVE",
"590 566 CURVE SMOOTH",
"590 549 OFFCURVE",
"588 532 OFFCURVE",
"587 521 CURVE",
"616 521 LINE",
"653 700 LINE",
"118 700 LINE",
"112 669 LINE",
"140 669 LINE SMOOTH",
"173 669 OFFCURVE",
"189 660 OFFCURVE",
"189 641 CURVE SMOOTH",
"189 638 OFFCURVE",
"189 635 OFFCURVE",
"188 632 CURVE SMOOTH",
"73 67 LINE SMOOTH",
"67 42 OFFCURVE",
"47 31 OFFCURVE",
"10 31 CURVE SMOOTH",
"-18 31 LINE",
"-24 0 LINE"
);
},
{
closed = 1;
nodes = (
"461 249 LINE",
"510 485 LINE",
"484 485 LINE",
"469 437 OFFCURVE",
"456 390 OFFCURVE",
"413 390 CURVE SMOOTH",
"207 390 LINE",
"199 344 LINE",
"404 344 LINE SMOOTH",
"432 344 OFFCURVE",
"440 324 OFFCURVE",
"440 297 CURVE SMOOTH",
"440 282 OFFCURVE",
"437 266 OFFCURVE",
"435 249 CURVE"
);
},
{
closed = 1;
nodes = (
"437 870 LINE SMOOTH",
"448 878 OFFCURVE",
"460 883 OFFCURVE",
"467 883 CURVE SMOOTH",
"473 883 OFFCURVE",
"482 877 OFFCURVE",
"490 870 CURVE SMOOTH",
"583 781 LINE",
"607 804 LINE",
"509 944 LINE",
"449 944 LINE",
"295 804 LINE",
"310 781 LINE"
);
}
);
width = 599;
}
);
note = Ecircumflex;
rightKerningGroup = E;
unicode = 00CA;
},
{
glyphname = Ecircumflexacute;
lastChange = "2015-12-01 11:19:48 +0000";
layers = (
{
layerId = "29476F1E-CD12-4295-B0EC-F6BA1C34E337";
name = "Regular Italic";
paths = (
{
closed = 1;
nodes = (
"510 0 LINE",
"564 184 LINE",
"535 184 LINE",
"516 125 OFFCURVE",
"481 46 OFFCURVE",
"418 46 CURVE SMOOTH",
"183 46 LINE",
"308 654 LINE",
"525 654 LINE SMOOTH",
"579 654 OFFCURVE",
"590 607 OFFCURVE",
"590 566 CURVE SMOOTH",
"590 549 OFFCURVE",
"588 532 OFFCURVE",
"587 521 CURVE",
"616 521 LINE",
"653 700 LINE",
"118 700 LINE",
"112 669 LINE",
"140 669 LINE SMOOTH",
"173 669 OFFCURVE",
"189 660 OFFCURVE",
"189 641 CURVE SMOOTH",
"189 638 OFFCURVE",
"189 635 OFFCURVE",
"188 632 CURVE SMOOTH",
"73 67 LINE SMOOTH",
"67 42 OFFCURVE",
"47 31 OFFCURVE",
"10 31 CURVE SMOOTH",
"-18 31 LINE",
"-24 0 LINE"
);
},
{
closed = 1;
nodes = (
"461 249 LINE",
"510 485 LINE",
"484 485 LINE",
"469 437 OFFCURVE",
"456 390 OFFCURVE",
"413 390 CURVE SMOOTH",
"207 390 LINE",
"199 344 LINE",
"404 344 LINE SMOOTH",
"432 344 OFFCURVE",
"440 324 OFFCURVE",
"440 297 CURVE SMOOTH",
"440 282 OFFCURVE",
"437 266 OFFCURVE",
"435 249 CURVE"
);
},
{
closed = 1;
nodes = (
"419 862 LINE SMOOTH",
"432 872 OFFCURVE",
"445 882 OFFCURVE",
"455 882 CURVE SMOOTH",
"462 882 OFFCURVE",
"469 876 OFFCURVE",
"477 869 CURVE",
"567 780 LINE",
"590 803 LINE",
"496 943 LINE",
"439 943 LINE",
"286 803 LINE",
"300 780 LINE"
);
},
{
closed = 1;
nodes = (
"704 963 LINE SMOOTH",
"735 978 OFFCURVE",
"756 999 OFFCURVE",
"756 1018 CURVE SMOOTH",
"756 1033 OFFCURVE",
"748 1050 OFFCURVE",
"725 1050 CURVE SMOOTH",
"703 1050 OFFCURVE",
"681 1031 OFFCURVE",
"667 1019 CURVE SMOOTH",
"561 925 LINE",
"574 898 LINE"
);
}
);
width = 599;
}
);
note = Ecircumflexacute;
rightKerningGroup = E;
unicode = 1EBE;
},
{
glyphname = Ecircumflexdotbelow;
lastChange = "2015-12-01 11:19:47 +0000";
layers = (
{
layerId = "29476F1E-CD12-4295-B0EC-F6BA1C34E337";
name = "Regular Italic";
paths = (
{
closed = 1;
nodes = (
"510 0 LINE",
"564 184 LINE",
"535 184 LINE",
"516 125 OFFCURVE",
"481 46 OFFCURVE",
"418 46 CURVE SMOOTH",
"183 46 LINE",
"308 654 LINE",
"525 654 LINE SMOOTH",
"579 654 OFFCURVE",
"590 607 OFFCURVE",
"590 566 CURVE SMOOTH",
"590 549 OFFCURVE",
"588 532 OFFCURVE",
"587 521 CURVE",
"616 521 LINE",
"653 700 LINE",
"118 700 LINE",
"112 669 LINE",
"140 669 LINE SMOOTH",
"173 669 OFFCURVE",
"189 660 OFFCURVE",
"189 641 CURVE SMOOTH",
"189 638 OFFCURVE",
"189 635 OFFCURVE",
"188 632 CURVE SMOOTH",
"73 67 LINE SMOOTH",
"67 42 OFFCURVE",
"47 31 OFFCURVE",
"10 31 CURVE SMOOTH",
"-18 31 LINE",
"-24 0 LINE"
);
},
{
closed = 1;
nodes = (
"281 -170 OFFCURVE",
"307 -140 OFFCURVE",
"307 -103 CURVE SMOOTH",
"307 -80 OFFCURVE",
"293 -64 OFFCURVE",
"267 -64 CURVE SMOOTH",
"236 -64 OFFCURVE",
"211 -87 OFFCURVE",
"204 -118 CURVE SMOOTH",
"203 -122 OFFCURVE",
"203 -125 OFFCURVE",
"203 -129 CURVE SMOOTH",
"203 -153 OFFCURVE",
"218 -170 OFFCURVE",
"245 -170 CURVE SMOOTH"
);
},
{
closed = 1;
nodes = (
"461 249 LINE",
"510 485 LINE",
"484 485 LINE",
"469 437 OFFCURVE",
"456 390 OFFCURVE",
"413 390 CURVE SMOOTH",
"207 390 LINE",
"199 344 LINE",
"404 344 LINE SMOOTH",
"432 344 OFFCURVE",
"440 324 OFFCURVE",
"440 297 CURVE SMOOTH",
"440 282 OFFCURVE",
"437 266 OFFCURVE",
"435 249 CURVE"
);
},
{
closed = 1;
nodes = (
"423 870 LINE SMOOTH",
"435 878 OFFCURVE",
"446 883 OFFCURVE",
"453 883 CURVE SMOOTH",
"460 883 OFFCURVE",
"468 877 OFFCURVE",
"476 870 CURVE SMOOTH",
"569 781 LINE",
"593 804 LINE",
"495 944 LINE",
"436 944 LINE",
"281 804 LINE",
"297 781 LINE"
);
}
);
width = 599;
}
);
note = Ecircumflexdotbelow;
rightKerningGroup = E;
unicode = 1EC6;
},
{
glyphname = Ecircumflexgrave;
lastChange = "2015-12-01 11:19:45 +0000";
layers = (
{
layerId = "29476F1E-CD12-4295-B0EC-F6BA1C34E337";
name = "Regular Italic";
paths = (
{
closed = 1;
nodes = (
"510 0 LINE",
"564 184 LINE",
"535 184 LINE",
"516 125 OFFCURVE",
"481 46 OFFCURVE",
"418 46 CURVE SMOOTH",
"183 46 LINE",
"308 654 LINE",
"525 654 LINE SMOOTH",
"579 654 OFFCURVE",
"590 607 OFFCURVE",
"590 566 CURVE SMOOTH",
"590 549 OFFCURVE",
"588 532 OFFCURVE",
"587 521 CURVE",
"616 521 LINE",
"653 700 LINE",
"118 700 LINE",
"112 669 LINE",
"140 669 LINE SMOOTH",
"173 669 OFFCURVE",
"189 660 OFFCURVE",
"189 641 CURVE SMOOTH",
"189 638 OFFCURVE",
"189 635 OFFCURVE",
"188 632 CURVE SMOOTH",
"73 67 LINE SMOOTH",
"67 42 OFFCURVE",
"47 31 OFFCURVE",
"10 31 CURVE SMOOTH",
"-18 31 LINE",
"-24 0 LINE"
);
},
{
closed = 1;
nodes = (
"461 249 LINE",
"510 485 LINE",
"484 485 LINE",
"469 437 OFFCURVE",
"456 390 OFFCURVE",
"413 390 CURVE SMOOTH",
"207 390 LINE",
"199 344 LINE",
"404 344 LINE SMOOTH",
"432 344 OFFCURVE",
"440 324 OFFCURVE",
"440 297 CURVE SMOOTH",
"440 282 OFFCURVE",
"437 266 OFFCURVE",
"435 249 CURVE"
);
},
{
closed = 1;
nodes = (
"371 925 LINE",
"301 1019 LINE",
"294 1031 OFFCURVE",
"279 1050 OFFCURVE",
"257 1050 CURVE SMOOTH",
"227 1050 OFFCURVE",
"210 1022 OFFCURVE",
"210 1006 CURVE SMOOTH",
"210 990 OFFCURVE",
"222 975 OFFCURVE",
"242 963 CURVE SMOOTH",
"345 898 LINE"
);
},
{
closed = 1;
nodes = (
"419 862 LINE SMOOTH",
"432 872 OFFCURVE",
"445 882 OFFCURVE",
"455 882 CURVE SMOOTH",
"462 882 OFFCURVE",
"469 876 OFFCURVE",
"477 869 CURVE",
"567 780 LINE",
"590 803 LINE",
"496 943 LINE",
"439 943 LINE",
"286 803 LINE",
"300 780 LINE"
);
}
);
width = 599;
}
);
note = Ecircumflexgrave;
rightKerningGroup = E;
unicode = 1EC0;
},
{
glyphname = Ecircumflexhookabove;
lastChange = "2015-12-01 11:19:45 +0000";
layers = (
{
layerId = "29476F1E-CD12-4295-B0EC-F6BA1C34E337";
name = "Regular Italic";
paths = (
{
closed = 1;
nodes = (
"510 0 LINE",
"564 184 LINE",
"535 184 LINE",
"516 125 OFFCURVE",
"481 46 OFFCURVE",
"418 46 CURVE SMOOTH",
"183 46 LINE",
"308 654 LINE",
"525 654 LINE SMOOTH",
"579 654 OFFCURVE",
"590 607 OFFCURVE",
"590 566 CURVE SMOOTH",
"590 549 OFFCURVE",
"588 532 OFFCURVE",
"587 521 CURVE",
"616 521 LINE",
"653 700 LINE",
"118 700 LINE",
"112 669 LINE",
"140 669 LINE SMOOTH",
"173 669 OFFCURVE",
"189 660 OFFCURVE",
"189 641 CURVE SMOOTH",
"189 638 OFFCURVE",
"189 635 OFFCURVE",
"188 632 CURVE SMOOTH",
"73 67 LINE SMOOTH",
"67 42 OFFCURVE",
"47 31 OFFCURVE",
"10 31 CURVE SMOOTH",
"-18 31 LINE",
"-24 0 LINE"
);
},
{
closed = 1;
nodes = (
"461 249 LINE",
"510 485 LINE",
"484 485 LINE",
"469 437 OFFCURVE",
"456 390 OFFCURVE",
"413 390 CURVE SMOOTH",
"207 390 LINE",
"199 344 LINE",
"404 344 LINE SMOOTH",
"432 344 OFFCURVE",
"440 324 OFFCURVE",
"440 297 CURVE SMOOTH",
"440 282 OFFCURVE",
"437 266 OFFCURVE",
"435 249 CURVE"
);
},
{
closed = 1;
nodes = (
"419 862 LINE SMOOTH",
"432 872 OFFCURVE",
"445 882 OFFCURVE",
"455 882 CURVE SMOOTH",
"462 882 OFFCURVE",
"469 876 OFFCURVE",
"477 869 CURVE",
"567 780 LINE",
"590 803 LINE",
"496 943 LINE",
"439 943 LINE",
"286 803 LINE",
"300 780 LINE"
);
},
{
closed = 1;
nodes = (
"636 907 LINE",
"620 915 OFFCURVE",
"611 917 OFFCURVE",
"614 935 CURVE SMOOTH",
"621 967 OFFCURVE",
"713 977 OFFCURVE",
"713 1033 CURVE SMOOTH",
"713 1065 OFFCURVE",
"677 1079 OFFCURVE",
"638 1079 CURVE SMOOTH",
"608 1079 OFFCURVE",
"562 1068 OFFCURVE",
"555 1036 CURVE SMOOTH",
"552 1023 OFFCURVE",
"562 1014 OFFCURVE",
"572 1014 CURVE SMOOTH",
"599 1014 OFFCURVE",
"595 1055 OFFCURVE",
"638 1055 CURVE SMOOTH",
"655 1055 OFFCURVE",
"661 1046 OFFCURVE",
"661 1035 CURVE SMOOTH",
"661 986 OFFCURVE",
"578 978 OFFCURVE",
"570 934 CURVE SMOOTH",
"569 930 OFFCURVE",
"569 927 OFFCURVE",
"569 923 CURVE SMOOTH",
"569 903 OFFCURVE",
"582 887 OFFCURVE",
"624 887 CURVE"
);
}
);
width = 599;
}
);
note = Ecircumflexhookabove;
rightKerningGroup = E;
unicode = 1EC2;
},
{
glyphname = Ecircumflextilde;
lastChange = "2015-12-01 11:19:48 +0000";
layers = (
{
layerId = "29476F1E-CD12-4295-B0EC-F6BA1C34E337";
name = "Regular Italic";
paths = (
{
closed = 1;
nodes = (
"510 0 LINE",
"564 184 LINE",
"535 184 LINE",
"516 125 OFFCURVE",
"481 46 OFFCURVE",
"418 46 CURVE SMOOTH",
"183 46 LINE",
"308 654 LINE",
"525 654 LINE SMOOTH",
"579 654 OFFCURVE",
"590 607 OFFCURVE",
"590 566 CURVE SMOOTH",
"590 549 OFFCURVE",
"588 532 OFFCURVE",
"587 521 CURVE",
"616 521 LINE",
"653 700 LINE",
"118 700 LINE",
"112 669 LINE",
"140 669 LINE SMOOTH",
"173 669 OFFCURVE",
"189 660 OFFCURVE",
"189 641 CURVE SMOOTH",
"189 638 OFFCURVE",
"189 635 OFFCURVE",
"188 632 CURVE SMOOTH",
"73 67 LINE SMOOTH",
"67 42 OFFCURVE",
"47 31 OFFCURVE",
"10 31 CURVE SMOOTH",
"-18 31 LINE",
"-24 0 LINE"
);
},
{
closed = 1;
nodes = (
"461 249 LINE",
"510 485 LINE",
"484 485 LINE",
"469 437 OFFCURVE",
"456 390 OFFCURVE",
"413 390 CURVE SMOOTH",
"207 390 LINE",
"199 344 LINE",
"404 344 LINE SMOOTH",
"432 344 OFFCURVE",
"440 324 OFFCURVE",
"440 297 CURVE SMOOTH",
"440 282 OFFCURVE",
"437 266 OFFCURVE",
"435 249 CURVE"
);
},
{
closed = 1;
nodes = (
"419 862 LINE SMOOTH",
"432 872 OFFCURVE",
"445 882 OFFCURVE",
"455 882 CURVE SMOOTH",
"462 882 OFFCURVE",
"469 876 OFFCURVE",
"477 869 CURVE",
"567 780 LINE",
"590 803 LINE",
"496 943 LINE",
"439 943 LINE",
"286 803 LINE",
"300 780 LINE"
);
},
{
closed = 1;
nodes = (
"355 1006 OFFCURVE",
"376 1026 OFFCURVE",
"407 1026 CURVE SMOOTH",
"456 1026 OFFCURVE",
"492 974 OFFCURVE",
"540 974 CURVE SMOOTH",
"595 974 OFFCURVE",
"635 1029 OFFCURVE",
"658 1079 CURVE",
"638 1092 LINE",
"615 1052 OFFCURVE",
"597 1031 OFFCURVE",
"565 1031 CURVE SMOOTH",
"518 1031 OFFCURVE",
"481 1082 OFFCURVE",
"432 1082 CURVE SMOOTH",
"378 1082 OFFCURVE",
"336 1030 OFFCURVE",
"315 980 CURVE",
"333 967 LINE"
);
}
);
width = 599;
}
);
note = Ecircumflextilde;
rightKerningGroup = E;
unicode = 1EC4;
},
{
glyphname = Edieresis;
lastChange = "2015-12-01 11:19:47 +0000";
layers = (
{
layerId = "29476F1E-CD12-4295-B0EC-F6BA1C34E337";
name = "Regular Italic";
paths = (
{
closed = 1;
nodes = (
"510 0 LINE",
"564 184 LINE",
"535 184 LINE",
"516 125 OFFCURVE",
"481 46 OFFCURVE",
"418 46 CURVE SMOOTH",
"183 46 LINE",
"308 654 LINE",
"525 654 LINE SMOOTH",
"579 654 OFFCURVE",
"590 607 OFFCURVE",
"590 566 CURVE SMOOTH",
"590 549 OFFCURVE",
"588 532 OFFCURVE",
"587 521 CURVE",
"616 521 LINE",
"653 700 LINE",
"118 700 LINE",
"112 669 LINE",
"140 669 LINE SMOOTH",
"173 669 OFFCURVE",
"189 660 OFFCURVE",
"189 641 CURVE SMOOTH",
"189 638 OFFCURVE",
"189 635 OFFCURVE",
"188 632 CURVE SMOOTH",
"73 67 LINE SMOOTH",
"67 42 OFFCURVE",
"47 31 OFFCURVE",
"10 31 CURVE SMOOTH",
"-18 31 LINE",
"-24 0 LINE"
);
},
{
closed = 1;
nodes = (
"461 249 LINE",
"510 485 LINE",
"484 485 LINE",
"469 437 OFFCURVE",
"456 390 OFFCURVE",
"413 390 CURVE SMOOTH",
"207 390 LINE",
"199 344 LINE",
"404 344 LINE SMOOTH",
"432 344 OFFCURVE",
"440 324 OFFCURVE",
"440 297 CURVE SMOOTH",
"440 282 OFFCURVE",
"437 266 OFFCURVE",
"435 249 CURVE"
);
},
{
closed = 1;
nodes = (
"382 780 OFFCURVE",
"409 809 OFFCURVE",
"409 846 CURVE SMOOTH",
"409 870 OFFCURVE",
"394 885 OFFCURVE",
"368 885 CURVE SMOOTH",
"337 885 OFFCURVE",
"314 863 OFFCURVE",
"307 832 CURVE SMOOTH",
"306 828 OFFCURVE",
"306 823 OFFCURVE",
"306 819 CURVE SMOOTH",
"306 796 OFFCURVE",
"320 780 OFFCURVE",
"346 780 CURVE SMOOTH"
);
},
{
closed = 1;
nodes = (
"595 780 OFFCURVE",
"622 809 OFFCURVE",
"622 846 CURVE SMOOTH",
"622 870 OFFCURVE",
"607 885 OFFCURVE",
"582 885 CURVE SMOOTH",
"550 885 OFFCURVE",
"526 863 OFFCURVE",
"519 832 CURVE SMOOTH",
"518 828 OFFCURVE",
"518 824 OFFCURVE",
"518 821 CURVE SMOOTH",
"518 797 OFFCURVE",
"532 780 OFFCURVE",
"560 780 CURVE SMOOTH"
);
}
);
width = 599;
}
);
note = Edieresis;
rightKerningGroup = E;
unicode = 00CB;
},
{
glyphname = Edotaccent;
lastChange = "2015-12-01 11:19:47 +0000";
layers = (
{
layerId = "29476F1E-CD12-4295-B0EC-F6BA1C34E337";
name = "Regular Italic";
paths = (
{
closed = 1;
nodes = (
"510 0 LINE",
"564 184 LINE",
"535 184 LINE",
"516 125 OFFCURVE",
"481 46 OFFCURVE",
"418 46 CURVE SMOOTH",
"183 46 LINE",
"308 654 LINE",
"525 654 LINE SMOOTH",
"579 654 OFFCURVE",
"590 607 OFFCURVE",
"590 566 CURVE SMOOTH",
"590 549 OFFCURVE",
"588 532 OFFCURVE",
"587 521 CURVE",
"616 521 LINE",
"653 700 LINE",
"118 700 LINE",
"112 669 LINE",
"140 669 LINE SMOOTH",
"173 669 OFFCURVE",
"189 660 OFFCURVE",
"189 641 CURVE SMOOTH",
"189 638 OFFCURVE",
"189 635 OFFCURVE",
"188 632 CURVE SMOOTH",
"73 67 LINE SMOOTH",
"67 42 OFFCURVE",
"47 31 OFFCURVE",
"10 31 CURVE SMOOTH",
"-18 31 LINE",
"-24 0 LINE"
);
},
{
closed = 1;
nodes = (
"461 249 LINE",
"510 485 LINE",
"484 485 LINE",
"469 437 OFFCURVE",
"456 390 OFFCURVE",
"413 390 CURVE SMOOTH",
"207 390 LINE",
"199 344 LINE",
"404 344 LINE SMOOTH",
"432 344 OFFCURVE",
"440 324 OFFCURVE",
"440 297 CURVE SMOOTH",
"440 282 OFFCURVE",
"437 266 OFFCURVE",
"435 249 CURVE"
);
},
{
closed = 1;
nodes = (
"482 767 OFFCURVE",
"505 789 OFFCURVE",
"512 819 CURVE",
"513 823 OFFCURVE",
"513 827 OFFCURVE",
"513 831 CURVE SMOOTH",
"513 855 OFFCURVE",
"499 872 OFFCURVE",
"472 872 CURVE SMOOTH",
"442 872 OFFCURVE",
"418 850 OFFCURVE",
"412 819 CURVE",
"411 814 OFFCURVE",
"410 809 OFFCURVE",
"410 805 CURVE SMOOTH",
"410 782 OFFCURVE",
"425 767 OFFCURVE",
"451 767 CURVE SMOOTH"
);
}
);
width = 599;
}
);
note = Edotaccent;
rightKerningGroup = E;
unicode = 0116;
},
{
glyphname = Edotbelow;
lastChange = "2015-12-01 11:19:47 +0000";
layers = (
{
layerId = "29476F1E-CD12-4295-B0EC-F6BA1C34E337";
name = "Regular Italic";
paths = (
{
closed = 1;
nodes = (
"510 0 LINE",
"564 184 LINE",
"535 184 LINE",
"516 125 OFFCURVE",
"481 46 OFFCURVE",
"418 46 CURVE SMOOTH",
"183 46 LINE",
"308 654 LINE",
"525 654 LINE SMOOTH",
"579 654 OFFCURVE",
"590 607 OFFCURVE",
"590 566 CURVE SMOOTH",
"590 549 OFFCURVE",
"588 532 OFFCURVE",
"587 521 CURVE",
"616 521 LINE",
"653 700 LINE",
"118 700 LINE",
"112 669 LINE",
"140 669 LINE SMOOTH",
"173 669 OFFCURVE",
"189 660 OFFCURVE",
"189 641 CURVE SMOOTH",
"189 638 OFFCURVE",
"189 635 OFFCURVE",
"188 632 CURVE SMOOTH",
"73 67 LINE SMOOTH",
"67 42 OFFCURVE",
"47 31 OFFCURVE",
"10 31 CURVE SMOOTH",
"-18 31 LINE",
"-24 0 LINE"
);
},
{
closed = 1;
nodes = (
"271 -170 OFFCURVE",
"298 -141 OFFCURVE",
"298 -104 CURVE SMOOTH",
"298 -81 OFFCURVE",
"284 -64 OFFCURVE",
"258 -64 CURVE SMOOTH",
"224 -64 OFFCURVE",
"195 -93 OFFCURVE",
"195 -131 CURVE SMOOTH",
"195 -154 OFFCURVE",
"210 -170 OFFCURVE",
"236 -170 CURVE SMOOTH"
);
},
{
closed = 1;
nodes = (
"461 249 LINE",
"510 485 LINE",
"484 485 LINE",
"469 437 OFFCURVE",
"456 390 OFFCURVE",
"413 390 CURVE SMOOTH",
"207 390 LINE",
"199 344 LINE",
"404 344 LINE SMOOTH",
"432 344 OFFCURVE",
"440 324 OFFCURVE",
"440 297 CURVE SMOOTH",
"440 282 OFFCURVE",
"437 266 OFFCURVE",
"435 249 CURVE"
);
}
);
width = 599;
}
);
note = Edotbelow;
rightKerningGroup = E;
unicode = 1EB8;
},
{
glyphname = Egrave;
lastChange = "2015-12-01 11:19:47 +0000";
layers = (
{
layerId = "29476F1E-CD12-4295-B0EC-F6BA1C34E337";
name = "Regular Italic";
paths = (
{
closed = 1;
nodes = (
"510 0 LINE",
"564 184 LINE",
"535 184 LINE",
"516 125 OFFCURVE",
"481 46 OFFCURVE",
"418 46 CURVE SMOOTH",
"183 46 LINE",
"308 654 LINE",
"525 654 LINE SMOOTH",
"579 654 OFFCURVE",
"590 607 OFFCURVE",
"590 566 CURVE SMOOTH",
"590 549 OFFCURVE",
"588 532 OFFCURVE",
"587 521 CURVE",
"616 521 LINE",
"653 700 LINE",
"118 700 LINE",
"112 669 LINE",
"140 669 LINE SMOOTH",
"173 669 OFFCURVE",
"189 660 OFFCURVE",
"189 641 CURVE SMOOTH",
"189 638 OFFCURVE",
"189 635 OFFCURVE",
"188 632 CURVE SMOOTH",
"73 67 LINE SMOOTH",
"67 42 OFFCURVE",
"47 31 OFFCURVE",
"10 31 CURVE SMOOTH",
"-18 31 LINE",
"-24 0 LINE"
);
},
{
closed = 1;
nodes = (
"461 249 LINE",
"510 485 LINE",
"484 485 LINE",
"469 437 OFFCURVE",
"456 390 OFFCURVE",
"413 390 CURVE SMOOTH",
"207 390 LINE",
"199 344 LINE",
"404 344 LINE SMOOTH",
"432 344 OFFCURVE",
"440 324 OFFCURVE",
"440 297 CURVE SMOOTH",
"440 282 OFFCURVE",
"437 266 OFFCURVE",
"435 249 CURVE"
);
},
{
closed = 1;
nodes = (
"554 810 LINE",
"465 923 LINE SMOOTH",
"458 932 OFFCURVE",
"444 951 OFFCURVE",
"420 951 CURVE SMOOTH",
"396 951 OFFCURVE",
"380 934 OFFCURVE",
"376 917 CURVE",
"375 914 OFFCURVE",
"375 910 OFFCURVE",
"375 907 CURVE SMOOTH",
"375 891 OFFCURVE",
"384 880 OFFCURVE",
"402 867 CURVE SMOOTH",
"527 780 LINE"
);
}
);
width = 599;
}
);
note = Egrave;
rightKerningGroup = E;
unicode = 00C8;
},
{
glyphname = Ehookabove;
lastChange = "2015-12-01 11:19:47 +0000";
layers = (
{
layerId = "29476F1E-CD12-4295-B0EC-F6BA1C34E337";
name = "Regular Italic";
paths = (
{
closed = 1;
nodes = (
"510 0 LINE",
"564 184 LINE",
"535 184 LINE",
"516 125 OFFCURVE",
"481 46 OFFCURVE",
"418 46 CURVE SMOOTH",
"183 46 LINE",
"308 654 LINE",
"525 654 LINE SMOOTH",
"579 654 OFFCURVE",
"590 607 OFFCURVE",
"590 566 CURVE SMOOTH",
"590 549 OFFCURVE",
"588 532 OFFCURVE",
"587 521 CURVE",
"616 521 LINE",
"653 700 LINE",
"118 700 LINE",
"112 669 LINE",
"140 669 LINE SMOOTH",
"173 669 OFFCURVE",
"189 660 OFFCURVE",
"189 641 CURVE SMOOTH",
"189 638 OFFCURVE",
"189 635 OFFCURVE",
"188 632 CURVE SMOOTH",
"73 67 LINE SMOOTH",
"67 42 OFFCURVE",
"47 31 OFFCURVE",
"10 31 CURVE SMOOTH",
"-18 31 LINE",
"-24 0 LINE"
);
},
{
closed = 1;
nodes = (
"461 249 LINE",
"510 485 LINE",
"484 485 LINE",
"469 437 OFFCURVE",
"456 390 OFFCURVE",
"413 390 CURVE SMOOTH",
"207 390 LINE",
"199 344 LINE",
"404 344 LINE SMOOTH",
"432 344 OFFCURVE",
"440 324 OFFCURVE",
"440 297 CURVE SMOOTH",
"440 282 OFFCURVE",
"437 266 OFFCURVE",
"435 249 CURVE"
);
},
{
closed = 1;
nodes = (
"493 801 LINE",
"476 808 OFFCURVE",
"466 815 OFFCURVE",
"469 831 CURVE",
"476 865 OFFCURVE",
"568 879 OFFCURVE",
"578 932 CURVE",
"579 938 OFFCURVE",
"580 943 OFFCURVE",
"580 948 CURVE SMOOTH",
"580 982 OFFCURVE",
"550 1001 OFFCURVE",
"502 1001 CURVE SMOOTH",
"454 1001 OFFCURVE",
"408 983 OFFCURVE",
"400 947 CURVE SMOOTH",
"399 944 OFFCURVE",
"399 941 OFFCURVE",
"399 938 CURVE SMOOTH",
"399 925 OFFCURVE",
"407 919 OFFCURVE",
"420 919 CURVE SMOOTH",
"445 919 OFFCURVE",
"452 943 OFFCURVE",
"455 948 CURVE SMOOTH",
"464 962 OFFCURVE",
"480 968 OFFCURVE",
"495 968 CURVE SMOOTH",
"514 968 OFFCURVE",
"524 953 OFFCURVE",
"520 936 CURVE SMOOTH",
"511 889 OFFCURVE",
"428 879 OFFCURVE",
"419 832 CURVE SMOOTH",
"418 828 OFFCURVE",
"418 824 OFFCURVE",
"418 820 CURVE SMOOTH",
"418 797 OFFCURVE",
"433 779 OFFCURVE",
"480 779 CURVE"
);
}
);
width = 599;
}
);
note = Ehookabove;
rightKerningGroup = E;
unicode = 1EBA;
},
{
glyphname = Emacron;
lastChange = "2015-12-01 11:19:47 +0000";
layers = (
{
layerId = "29476F1E-CD12-4295-B0EC-F6BA1C34E337";
name = "Regular Italic";
paths = (
{
closed = 1;
nodes = (
"510 0 LINE",
"564 184 LINE",
"535 184 LINE",
"516 125 OFFCURVE",
"481 46 OFFCURVE",
"418 46 CURVE SMOOTH",
"183 46 LINE",
"308 654 LINE",
"525 654 LINE SMOOTH",
"579 654 OFFCURVE",
"590 607 OFFCURVE",
"590 566 CURVE SMOOTH",
"590 549 OFFCURVE",
"588 532 OFFCURVE",
"587 521 CURVE",
"616 521 LINE",
"653 700 LINE",
"118 700 LINE",
"112 669 LINE",
"140 669 LINE SMOOTH",
"173 669 OFFCURVE",
"189 660 OFFCURVE",
"189 641 CURVE SMOOTH",
"189 638 OFFCURVE",
"189 635 OFFCURVE",
"188 632 CURVE SMOOTH",
"73 67 LINE SMOOTH",
"67 42 OFFCURVE",
"47 31 OFFCURVE",
"10 31 CURVE SMOOTH",
"-18 31 LINE",
"-24 0 LINE"
);
},
{
closed = 1;
nodes = (
"461 249 LINE",
"510 485 LINE",
"484 485 LINE",
"469 437 OFFCURVE",
"456 390 OFFCURVE",
"413 390 CURVE SMOOTH",
"207 390 LINE",
"199 344 LINE",
"404 344 LINE SMOOTH",
"432 344 OFFCURVE",
"440 324 OFFCURVE",
"440 297 CURVE SMOOTH",
"440 282 OFFCURVE",
"437 266 OFFCURVE",
"435 249 CURVE"
);
},
{
closed = 1;
nodes = (
"616 781 LINE",
"626 829 LINE",
"289 829 LINE",
"279 781 LINE"
);
}
);
width = 599;
}
);
note = Emacron;
rightKerningGroup = E;
unicode = 0112;
},
{
glyphname = Eogonek;
lastChange = "2015-12-01 11:19:48 +0000";
layers = (
{
layerId = "29476F1E-CD12-4295-B0EC-F6BA1C34E337";
name = "Regular Italic";
paths = (
{
closed = 1;
nodes = (
"510 0 LINE",
"564 184 LINE",
"535 184 LINE",
"516 125 OFFCURVE",
"481 46 OFFCURVE",
"418 46 CURVE SMOOTH",
"183 46 LINE",
"308 654 LINE",
"525 654 LINE SMOOTH",
"579 654 OFFCURVE",
"590 607 OFFCURVE",
"590 566 CURVE SMOOTH",
"590 549 OFFCURVE",
"588 532 OFFCURVE",
"587 521 CURVE",
"616 521 LINE",
"653 700 LINE",
"118 700 LINE",
"112 669 LINE",
"140 669 LINE SMOOTH",
"173 669 OFFCURVE",
"189 660 OFFCURVE",
"189 641 CURVE SMOOTH",
"189 638 OFFCURVE",
"189 635 OFFCURVE",
"188 632 CURVE SMOOTH",
"73 67 LINE SMOOTH",
"67 42 OFFCURVE",
"47 31 OFFCURVE",
"10 31 CURVE SMOOTH",
"-18 31 LINE",
"-24 0 LINE"
);
},
{
closed = 1;
nodes = (
"413 -205 OFFCURVE",
"445 -197 OFFCURVE",
"474 -177 CURVE",
"471 -155 LINE",
"455 -162 OFFCURVE",
"437 -166 OFFCURVE",
"424 -166 CURVE SMOOTH",
"397 -166 OFFCURVE",
"377 -153 OFFCURVE",
"377 -123 CURVE SMOOTH",
"377 -119 OFFCURVE",
"377 -114 OFFCURVE",
"378 -109 CURVE SMOOTH",
"387 -68 OFFCURVE",
"420 -27 OFFCURVE",
"472 6 CURVE",
"429 6 LINE",
"363 -25 OFFCURVE",
"305 -78 OFFCURVE",
"305 -138 CURVE SMOOTH",
"305 -169 OFFCURVE",
"322 -205 OFFCURVE",
"387 -205 CURVE SMOOTH"
);
},
{
closed = 1;
nodes = (
"461 249 LINE",
"510 485 LINE",
"484 485 LINE",
"469 437 OFFCURVE",
"456 390 OFFCURVE",
"413 390 CURVE SMOOTH",
"207 390 LINE",
"199 344 LINE",
"404 344 LINE SMOOTH",
"432 344 OFFCURVE",
"440 324 OFFCURVE",
"440 297 CURVE SMOOTH",
"440 282 OFFCURVE",
"437 266 OFFCURVE",
"435 249 CURVE"
);
}
);
width = 599;
}
);
note = Eogonek;
rightKerningGroup = E;
unicode = 0118;
},
{
glyphname = Etilde;
lastChange = "2015-12-01 11:19:47 +0000";
layers = (
{
layerId = "29476F1E-CD12-4295-B0EC-F6BA1C34E337";
name = "Regular Italic";
paths = (
{
closed = 1;
nodes = (
"510 0 LINE",
"564 184 LINE",
"535 184 LINE",
"516 125 OFFCURVE",
"481 46 OFFCURVE",
"418 46 CURVE SMOOTH",
"183 46 LINE",
"308 654 LINE",
"525 654 LINE SMOOTH",
"579 654 OFFCURVE",
"590 607 OFFCURVE",
"590 566 CURVE SMOOTH",
"590 549 OFFCURVE",
"588 532 OFFCURVE",
"587 521 CURVE",
"616 521 LINE",
"653 700 LINE",
"118 700 LINE",
"112 669 LINE",
"140 669 LINE SMOOTH",
"173 669 OFFCURVE",
"189 660 OFFCURVE",
"189 641 CURVE SMOOTH",
"189 638 OFFCURVE",
"189 635 OFFCURVE",
"188 632 CURVE SMOOTH",
"73 67 LINE SMOOTH",
"67 42 OFFCURVE",
"47 31 OFFCURVE",
"10 31 CURVE SMOOTH",
"-18 31 LINE",
"-24 0 LINE"
);
},
{
closed = 1;
nodes = (
"461 249 LINE",
"510 485 LINE",
"484 485 LINE",
"469 437 OFFCURVE",
"456 390 OFFCURVE",
"413 390 CURVE SMOOTH",
"207 390 LINE",
"199 344 LINE",
"404 344 LINE SMOOTH",
"432 344 OFFCURVE",
"440 324 OFFCURVE",
"440 297 CURVE SMOOTH",
"440 282 OFFCURVE",
"437 266 OFFCURVE",
"435 249 CURVE"
);
},
{
closed = 1;
nodes = (
"317 816 OFFCURVE",
"338 836 OFFCURVE",
"371 836 CURVE SMOOTH",
"422 836 OFFCURVE",
"461 784 OFFCURVE",
"513 784 CURVE SMOOTH",
"573 784 OFFCURVE",
"613 839 OFFCURVE",
"637 889 CURVE",
"617 902 LINE",
"593 862 OFFCURVE",
"574 841 OFFCURVE",
"540 841 CURVE SMOOTH",
"490 841 OFFCURVE",
"448 892 OFFCURVE",
"396 892 CURVE SMOOTH",
"339 892 OFFCURVE",
"296 840 OFFCURVE",
"274 790 CURVE",
"294 777 LINE"
);
}
);
width = 599;
}
);
note = Etilde;
rightKerningGroup = E;
unicode = 1EBC;
},
{
glyphname = F;
lastChange = "2015-12-01 11:19:46 +0000";
layers = (
{
layerId = "29476F1E-CD12-4295-B0EC-F6BA1C34E337";
name = "Regular Italic";
paths = (
{
closed = 1;
nodes = (
"258 0 LINE",
"264 31 LINE",
"236 31 LINE SMOOTH",
"204 31 OFFCURVE",
"187 39 OFFCURVE",
"187 58 CURVE SMOOTH",
"187 61 OFFCURVE",
"187 64 OFFCURVE",
"188 67 CURVE SMOOTH",
"308 654 LINE",
"526 654 LINE SMOOTH",
"580 654 OFFCURVE",
"590 607 OFFCURVE",
"590 566 CURVE SMOOTH",
"590 549 OFFCURVE",
"588 533 OFFCURVE",
"587 521 CURVE",
"616 521 LINE",
"653 700 LINE",
"118 700 LINE",
"112 669 LINE",
"141 669 LINE SMOOTH",
"173 669 OFFCURVE",
"189 660 OFFCURVE",
"189 641 CURVE SMOOTH",
"189 638 OFFCURVE",
"189 635 OFFCURVE",
"188 632 CURVE SMOOTH",
"73 67 LINE SMOOTH",
"67 42 OFFCURVE",
"47 31 OFFCURVE",
"11 31 CURVE SMOOTH",
"-18 31 LINE",
"-24 0 LINE"
);
},
{
closed = 1;
nodes = (
"444 219 LINE",
"492 455 LINE",
"467 455 LINE",
"453 407 OFFCURVE",
"440 360 OFFCURVE",
"396 360 CURVE SMOOTH",
"204 360 LINE",
"194 314 LINE",
"387 314 LINE SMOOTH",
"416 314 OFFCURVE",
"422 293 OFFCURVE",
"422 265 CURVE SMOOTH",
"422 251 OFFCURVE",
"421 235 OFFCURVE",
"419 219 CURVE"
);
}
);
width = 577;
}
);
note = F;
unicode = 0046;
},
{
glyphname = G;
lastChange = "2015-12-01 11:19:42 +0000";
layers = (
{
layerId = "29476F1E-CD12-4295-B0EC-F6BA1C34E337";
name = "Regular Italic";
paths = (
{
closed = 1;
nodes = (
"440 -10 OFFCURVE",
"522 15 OFFCURVE",
"608 68 CURVE",
"646 255 LINE SMOOTH",
"657 308 OFFCURVE",
"670 328 OFFCURVE",
"705 328 CURVE SMOOTH",
"720 328 LINE",
"725 350 LINE",
"468 350 LINE",
"462 324 LINE",
"474 324 LINE SMOOTH",
"518 324 OFFCURVE",
"540 310 OFFCURVE",
"540 284 CURVE SMOOTH",
"540 281 OFFCURVE",
"540 278 OFFCURVE",
"539 274 CURVE SMOOTH",
"498 77 LINE",
"451 45 OFFCURVE",
"388 37 OFFCURVE",
"348 37 CURVE SMOOTH",
"229 37 OFFCURVE",
"174 112 OFFCURVE",
"174 236 CURVE SMOOTH",
"174 270 OFFCURVE",
"179 309 OFFCURVE",
"187 350 CURVE SMOOTH",
"226 540 OFFCURVE",
"338 662 OFFCURVE",
"489 662 CURVE SMOOTH",
"577 662 OFFCURVE",
"651 619 OFFCURVE",
"651 526 CURVE SMOOTH",
"651 520 OFFCURVE",
"651 514 OFFCURVE",
"650 508 CURVE",
"684 508 LINE",
"724 705 LINE",
"684 705 LINE",
"675 661 LINE SMOOTH",
"673 652 OFFCURVE",
"668 648 OFFCURVE",
"661 648 CURVE SMOOTH",
"659 648 OFFCURVE",
"656 649 OFFCURVE",
"653 652 CURVE SMOOTH",
"617 691 OFFCURVE",
"540 710 OFFCURVE",
"475 710 CURVE SMOOTH",
"263 710 OFFCURVE",
"116 572 OFFCURVE",
"71 350 CURVE SMOOTH",
"63 310 OFFCURVE",
"59 273 OFFCURVE",
"59 239 CURVE SMOOTH",
"59 83 OFFCURVE",
"146 -10 OFFCURVE",
"322 -10 CURVE SMOOTH"
);
}
);
width = 700;
}
);
leftKerningGroup = G;
note = G;
rightKerningGroup = G;
unicode = 0047;
},
{
glyphname = Gbreve;
lastChange = "2015-12-01 11:19:46 +0000";
layers = (
{
layerId = "29476F1E-CD12-4295-B0EC-F6BA1C34E337";
name = "Regular Italic";
paths = (
{
closed = 1;
nodes = (
"440 -10 OFFCURVE",
"522 15 OFFCURVE",
"608 68 CURVE",
"646 255 LINE SMOOTH",
"657 308 OFFCURVE",
"670 328 OFFCURVE",
"705 328 CURVE SMOOTH",
"720 328 LINE",
"725 350 LINE",
"468 350 LINE",
"462 324 LINE",
"474 324 LINE SMOOTH",
"518 324 OFFCURVE",
"540 310 OFFCURVE",
"540 284 CURVE SMOOTH",
"540 281 OFFCURVE",
"540 278 OFFCURVE",
"539 274 CURVE SMOOTH",
"498 77 LINE",
"451 45 OFFCURVE",
"388 37 OFFCURVE",
"348 37 CURVE SMOOTH",
"229 37 OFFCURVE",
"174 112 OFFCURVE",
"174 236 CURVE SMOOTH",
"174 270 OFFCURVE",
"179 309 OFFCURVE",
"187 350 CURVE SMOOTH",
"226 540 OFFCURVE",
"338 662 OFFCURVE",
"489 662 CURVE SMOOTH",
"577 662 OFFCURVE",
"651 619 OFFCURVE",
"651 526 CURVE SMOOTH",
"651 520 OFFCURVE",
"651 514 OFFCURVE",
"650 508 CURVE",
"684 508 LINE",
"724 705 LINE",
"684 705 LINE",
"675 661 LINE SMOOTH",
"673 652 OFFCURVE",
"668 648 OFFCURVE",
"661 648 CURVE SMOOTH",
"659 648 OFFCURVE",
"656 649 OFFCURVE",
"653 652 CURVE SMOOTH",
"617 691 OFFCURVE",
"540 710 OFFCURVE",
"475 710 CURVE SMOOTH",
"263 710 OFFCURVE",
"116 572 OFFCURVE",
"71 350 CURVE SMOOTH",
"63 310 OFFCURVE",
"59 273 OFFCURVE",
"59 239 CURVE SMOOTH",
"59 83 OFFCURVE",
"146 -10 OFFCURVE",
"322 -10 CURVE SMOOTH"
);
},
{
closed = 1;
nodes = (
"586 790 OFFCURVE",
"636 853 OFFCURVE",
"654 927 CURVE",
"619 927 LINE",
"604 875 OFFCURVE",
"562 844 OFFCURVE",
"492 844 CURVE SMOOTH",
"422 844 OFFCURVE",
"392 875 OFFCURVE",
"396 927 CURVE",
"364 927 LINE",
"362 914 OFFCURVE",
"360 902 OFFCURVE",
"360 890 CURVE SMOOTH",
"360 832 OFFCURVE",
"392 790 OFFCURVE",
"481 790 CURVE SMOOTH"
);
}
);
width = 700;
}
);
leftKerningGroup = G;
note = Gbreve;
rightKerningGroup = G;
unicode = 011E;
},
{
glyphname = Gcaron;
lastChange = "2015-12-01 11:19:45 +0000";
layers = (
{
layerId = "29476F1E-CD12-4295-B0EC-F6BA1C34E337";
name = "Regular Italic";
paths = (
{
closed = 1;
nodes = (
"440 -10 OFFCURVE",
"522 15 OFFCURVE",
"608 68 CURVE",
"646 255 LINE SMOOTH",
"657 308 OFFCURVE",
"670 328 OFFCURVE",
"705 328 CURVE SMOOTH",
"720 328 LINE",
"725 350 LINE",
"468 350 LINE",
"462 324 LINE",
"474 324 LINE SMOOTH",
"518 324 OFFCURVE",
"540 310 OFFCURVE",
"540 284 CURVE SMOOTH",
"540 281 OFFCURVE",
"540 278 OFFCURVE",
"539 274 CURVE SMOOTH",
"498 77 LINE",
"451 45 OFFCURVE",
"388 37 OFFCURVE",
"348 37 CURVE SMOOTH",
"229 37 OFFCURVE",
"174 112 OFFCURVE",
"174 236 CURVE SMOOTH",
"174 270 OFFCURVE",
"179 309 OFFCURVE",
"187 350 CURVE SMOOTH",
"226 540 OFFCURVE",
"338 662 OFFCURVE",
"489 662 CURVE SMOOTH",
"577 662 OFFCURVE",
"651 619 OFFCURVE",
"651 526 CURVE SMOOTH",
"651 520 OFFCURVE",
"651 514 OFFCURVE",
"650 508 CURVE",
"684 508 LINE",
"724 705 LINE",
"684 705 LINE",
"675 661 LINE SMOOTH",
"673 652 OFFCURVE",
"668 648 OFFCURVE",
"661 648 CURVE SMOOTH",
"659 648 OFFCURVE",
"656 649 OFFCURVE",
"653 652 CURVE SMOOTH",
"617 691 OFFCURVE",
"540 710 OFFCURVE",
"475 710 CURVE SMOOTH",
"263 710 OFFCURVE",
"116 572 OFFCURVE",
"71 350 CURVE SMOOTH",
"63 310 OFFCURVE",
"59 273 OFFCURVE",
"59 239 CURVE SMOOTH",
"59 83 OFFCURVE",
"146 -10 OFFCURVE",
"322 -10 CURVE SMOOTH"
);
},
{
closed = 1;
nodes = (
"539 781 LINE",
"693 921 LINE",
"678 944 LINE",
"549 855 LINE SMOOTH",
"539 848 OFFCURVE",
"528 842 OFFCURVE",
"521 842 CURVE SMOOTH",
"515 842 OFFCURVE",
"506 848 OFFCURVE",
"496 855 CURVE",
"404 944 LINE",
"381 921 LINE",
"479 781 LINE"
);
}
);
width = 700;
}
);
leftKerningGroup = G;
note = Gcaron;
rightKerningGroup = G;
unicode = 01E6;
},
{
glyphname = Gcircumflex;
lastChange = "2015-12-01 11:19:46 +0000";
layers = (
{
layerId = "29476F1E-CD12-4295-B0EC-F6BA1C34E337";
name = "Regular Italic";
paths = (
{
closed = 1;
nodes = (
"440 -10 OFFCURVE",
"522 15 OFFCURVE",
"608 68 CURVE",
"646 255 LINE SMOOTH",
"657 308 OFFCURVE",
"670 328 OFFCURVE",
"705 328 CURVE SMOOTH",
"720 328 LINE",
"725 350 LINE",
"468 350 LINE",
"462 324 LINE",
"474 324 LINE SMOOTH",
"518 324 OFFCURVE",
"540 310 OFFCURVE",
"540 284 CURVE SMOOTH",
"540 281 OFFCURVE",
"540 278 OFFCURVE",
"539 274 CURVE SMOOTH",
"498 77 LINE",
"451 45 OFFCURVE",
"388 37 OFFCURVE",
"348 37 CURVE SMOOTH",
"229 37 OFFCURVE",
"174 112 OFFCURVE",
"174 236 CURVE SMOOTH",
"174 270 OFFCURVE",
"179 309 OFFCURVE",
"187 350 CURVE SMOOTH",
"226 540 OFFCURVE",
"338 662 OFFCURVE",
"489 662 CURVE SMOOTH",
"577 662 OFFCURVE",
"651 619 OFFCURVE",
"651 526 CURVE SMOOTH",
"651 520 OFFCURVE",
"651 514 OFFCURVE",
"650 508 CURVE",
"684 508 LINE",
"724 705 LINE",
"684 705 LINE",
"675 661 LINE SMOOTH",
"673 652 OFFCURVE",
"668 648 OFFCURVE",
"661 648 CURVE SMOOTH",
"659 648 OFFCURVE",
"656 649 OFFCURVE",
"653 652 CURVE SMOOTH",
"617 691 OFFCURVE",
"540 710 OFFCURVE",
"475 710 CURVE SMOOTH",
"263 710 OFFCURVE",
"116 572 OFFCURVE",
"71 350 CURVE SMOOTH",
"63 310 OFFCURVE",
"59 273 OFFCURVE",
"59 239 CURVE SMOOTH",
"59 83 OFFCURVE",
"146 -10 OFFCURVE",
"322 -10 CURVE SMOOTH"
);
},
{
closed = 1;
nodes = (
"478 884 LINE SMOOTH",
"490 892 OFFCURVE",
"501 897 OFFCURVE",
"508 897 CURVE SMOOTH",
"515 897 OFFCURVE",
"523 891 OFFCURVE",
"531 884 CURVE SMOOTH",
"624 795 LINE",
"648 818 LINE",
"550 958 LINE",
"491 958 LINE",
"336 818 LINE",
"351 795 LINE"
);
}
);
width = 700;
}
);
leftKerningGroup = G;
note = Gcircumflex;
rightKerningGroup = G;
unicode = 011C;
},
{
glyphname = Gcommaaccent;
lastChange = "2015-12-01 11:19:46 +0000";
layers = (
{
layerId = "29476F1E-CD12-4295-B0EC-F6BA1C34E337";
name = "Regular Italic";
paths = (
{
closed = 1;
nodes = (
"440 -10 OFFCURVE",
"522 15 OFFCURVE",
"608 68 CURVE",
"646 255 LINE SMOOTH",
"657 308 OFFCURVE",
"670 328 OFFCURVE",
"705 328 CURVE SMOOTH",
"720 328 LINE",
"725 350 LINE",
"468 350 LINE",
"462 324 LINE",
"474 324 LINE SMOOTH",
"518 324 OFFCURVE",
"540 310 OFFCURVE",
"540 284 CURVE SMOOTH",
"540 281 OFFCURVE",
"540 278 OFFCURVE",
"539 274 CURVE SMOOTH",
"498 77 LINE",
"451 45 OFFCURVE",
"388 37 OFFCURVE",
"348 37 CURVE SMOOTH",
"229 37 OFFCURVE",
"174 112 OFFCURVE",
"174 236 CURVE SMOOTH",
"174 270 OFFCURVE",
"179 309 OFFCURVE",
"187 350 CURVE SMOOTH",
"226 540 OFFCURVE",
"338 662 OFFCURVE",
"489 662 CURVE SMOOTH",
"577 662 OFFCURVE",
"651 619 OFFCURVE",
"651 526 CURVE SMOOTH",
"651 520 OFFCURVE",
"651 514 OFFCURVE",
"650 508 CURVE",
"684 508 LINE",
"724 705 LINE",
"684 705 LINE",
"675 661 LINE SMOOTH",
"673 652 OFFCURVE",
"668 648 OFFCURVE",
"661 648 CURVE SMOOTH",
"659 648 OFFCURVE",
"656 649 OFFCURVE",
"653 652 CURVE SMOOTH",
"617 691 OFFCURVE",
"540 710 OFFCURVE",
"475 710 CURVE SMOOTH",
"263 710 OFFCURVE",
"116 572 OFFCURVE",
"71 350 CURVE SMOOTH",
"63 310 OFFCURVE",
"59 273 OFFCURVE",
"59 239 CURVE SMOOTH",
"59 83 OFFCURVE",
"146 -10 OFFCURVE",
"322 -10 CURVE SMOOTH"
);
},
{
closed = 1;
nodes = (
"293 -279 OFFCURVE",
"356 -213 OFFCURVE",
"371 -145 CURVE SMOOTH",
"373 -136 OFFCURVE",
"374 -128 OFFCURVE",
"374 -121 CURVE SMOOTH",
"374 -86 OFFCURVE",
"355 -69 OFFCURVE",
"328 -69 CURVE SMOOTH",
"294 -69 OFFCURVE",
"266 -96 OFFCURVE",
"266 -127 CURVE SMOOTH",
"266 -153 OFFCURVE",
"287 -165 OFFCURVE",
"287 -190 CURVE SMOOTH",
"287 -193 OFFCURVE",
"287 -197 OFFCURVE",
"286 -201 CURVE SMOOTH",
"278 -239 OFFCURVE",
"246 -273 OFFCURVE",
"213 -302 CURVE",
"228 -321 LINE"
);
}
);
width = 700;
}
);
leftKerningGroup = G;
note = Gcommaaccent;
rightKerningGroup = G;
unicode = 0122;
},
{
glyphname = Gdotaccent;
lastChange = "2015-12-01 11:19:46 +0000";
layers = (
{
layerId = "29476F1E-CD12-4295-B0EC-F6BA1C34E337";
name = "Regular Italic";
paths = (
{
closed = 1;
nodes = (
"440 -10 OFFCURVE",
"522 15 OFFCURVE",
"608 68 CURVE",
"646 255 LINE SMOOTH",
"657 308 OFFCURVE",
"670 328 OFFCURVE",
"705 328 CURVE SMOOTH",
"720 328 LINE",
"725 350 LINE",
"468 350 LINE",
"462 324 LINE",
"474 324 LINE SMOOTH",
"518 324 OFFCURVE",
"540 310 OFFCURVE",
"540 284 CURVE SMOOTH",
"540 281 OFFCURVE",
"540 278 OFFCURVE",
"539 274 CURVE SMOOTH",
"498 77 LINE",
"451 45 OFFCURVE",
"388 37 OFFCURVE",
"348 37 CURVE SMOOTH",
"229 37 OFFCURVE",
"174 112 OFFCURVE",
"174 236 CURVE SMOOTH",
"174 270 OFFCURVE",
"179 309 OFFCURVE",
"187 350 CURVE SMOOTH",
"226 540 OFFCURVE",
"338 662 OFFCURVE",
"489 662 CURVE SMOOTH",
"577 662 OFFCURVE",
"651 619 OFFCURVE",
"651 526 CURVE SMOOTH",
"651 520 OFFCURVE",
"651 514 OFFCURVE",
"650 508 CURVE",
"684 508 LINE",
"724 705 LINE",
"684 705 LINE",
"675 661 LINE SMOOTH",
"673 652 OFFCURVE",
"668 648 OFFCURVE",
"661 648 CURVE SMOOTH",
"659 648 OFFCURVE",
"656 649 OFFCURVE",
"653 652 CURVE SMOOTH",
"617 691 OFFCURVE",
"540 710 OFFCURVE",
"475 710 CURVE SMOOTH",
"263 710 OFFCURVE",
"116 572 OFFCURVE",
"71 350 CURVE SMOOTH",
"63 310 OFFCURVE",
"59 273 OFFCURVE",
"59 239 CURVE SMOOTH",
"59 83 OFFCURVE",
"146 -10 OFFCURVE",
"322 -10 CURVE SMOOTH"
);
},
{
closed = 1;
nodes = (
"519 781 OFFCURVE",
"542 803 OFFCURVE",
"549 833 CURVE",
"550 838 OFFCURVE",
"550 842 OFFCURVE",
"550 846 CURVE SMOOTH",
"550 870 OFFCURVE",
"536 886 OFFCURVE",
"510 886 CURVE SMOOTH",
"479 886 OFFCURVE",
"455 864 OFFCURVE",
"449 833 CURVE",
"448 829 OFFCURVE",
"448 824 OFFCURVE",
"448 820 CURVE SMOOTH",
"448 797 OFFCURVE",
"463 781 OFFCURVE",
"489 781 CURVE SMOOTH"
);
}
);
width = 700;
}
);
leftKerningGroup = G;
note = Gdotaccent;
rightKerningGroup = G;
unicode = 0120;
},
{
glyphname = Gmacron;
lastChange = "2015-12-01 11:19:47 +0000";
layers = (
{
layerId = "29476F1E-CD12-4295-B0EC-F6BA1C34E337";
name = "Regular Italic";
paths = (
{
closed = 1;
nodes = (
"440 -10 OFFCURVE",
"522 15 OFFCURVE",
"608 68 CURVE",
"646 255 LINE SMOOTH",
"657 308 OFFCURVE",
"670 328 OFFCURVE",
"705 328 CURVE SMOOTH",
"720 328 LINE",
"725 350 LINE",
"468 350 LINE",
"462 324 LINE",
"474 324 LINE SMOOTH",
"518 324 OFFCURVE",
"540 310 OFFCURVE",
"540 284 CURVE SMOOTH",
"540 281 OFFCURVE",
"540 278 OFFCURVE",
"539 274 CURVE SMOOTH",
"498 77 LINE",
"451 45 OFFCURVE",
"388 37 OFFCURVE",
"348 37 CURVE SMOOTH",
"229 37 OFFCURVE",
"174 112 OFFCURVE",
"174 236 CURVE SMOOTH",
"174 270 OFFCURVE",
"179 309 OFFCURVE",
"187 350 CURVE SMOOTH",
"226 540 OFFCURVE",
"338 662 OFFCURVE",
"489 662 CURVE SMOOTH",
"577 662 OFFCURVE",
"651 619 OFFCURVE",
"651 526 CURVE SMOOTH",
"651 520 OFFCURVE",
"651 514 OFFCURVE",
"650 508 CURVE",
"684 508 LINE",
"724 705 LINE",
"684 705 LINE",
"675 661 LINE SMOOTH",
"673 652 OFFCURVE",
"668 648 OFFCURVE",
"661 648 CURVE SMOOTH",
"659 648 OFFCURVE",
"656 649 OFFCURVE",
"653 652 CURVE SMOOTH",
"617 691 OFFCURVE",
"540 710 OFFCURVE",
"475 710 CURVE SMOOTH",
"263 710 OFFCURVE",
"116 572 OFFCURVE",
"71 350 CURVE SMOOTH",
"63 310 OFFCURVE",
"59 273 OFFCURVE",
"59 239 CURVE SMOOTH",
"59 83 OFFCURVE",
"146 -10 OFFCURVE",
"322 -10 CURVE SMOOTH"
);
},
{
closed = 1;
nodes = (
"656 794 LINE",
"665 842 LINE",
"328 842 LINE",
"319 794 LINE"
);
}
);
width = 700;
}
);
leftKerningGroup = G;
note = Gmacron;
rightKerningGroup = G;
unicode = 1E20;
},
{
glyphname = H;
lastChange = "2015-12-01 11:19:47 +0000";
layers = (
{
layerId = "29476F1E-CD12-4295-B0EC-F6BA1C34E337";
name = "Regular Italic";
paths = (
{
closed = 1;
nodes = (
"702 0 LINE",
"708 31 LINE",
"679 31 LINE SMOOTH",
"647 31 OFFCURVE",
"631 39 OFFCURVE",
"631 58 CURVE SMOOTH",
"631 60 OFFCURVE",
"631 64 OFFCURVE",
"632 67 CURVE SMOOTH",
"747 632 LINE SMOOTH",
"752 657 OFFCURVE",
"773 669 OFFCURVE",
"809 669 CURVE SMOOTH",
"838 669 LINE",
"844 700 LINE",
"562 700 LINE",
"556 669 LINE",
"584 669 LINE SMOOTH",
"621 669 OFFCURVE",
"636 657 OFFCURVE",
"632 632 CURVE SMOOTH",
"516 67 LINE SMOOTH",
"511 42 OFFCURVE",
"491 31 OFFCURVE",
"453 31 CURVE SMOOTH",
"425 31 LINE",
"420 0 LINE"
);
},
{
closed = 1;
nodes = (
"263 0 LINE",
"269 31 LINE",
"240 31 LINE SMOOTH",
"209 31 OFFCURVE",
"192 39 OFFCURVE",
"192 58 CURVE SMOOTH",
"192 61 OFFCURVE",
"192 64 OFFCURVE",
"193 67 CURVE SMOOTH",
"308 632 LINE SMOOTH",
"313 657 OFFCURVE",
"334 669 OFFCURVE",
"371 669 CURVE SMOOTH",
"399 669 LINE",
"405 700 LINE",
"123 700 LINE",
"117 669 LINE",
"145 669 LINE SMOOTH",
"178 669 OFFCURVE",
"194 660 OFFCURVE",
"194 640 CURVE SMOOTH",
"194 638 OFFCURVE",
"194 635 OFFCURVE",
"193 632 CURVE SMOOTH",
"78 67 LINE SMOOTH",
"72 42 OFFCURVE",
"52 31 OFFCURVE",
"14 31 CURVE SMOOTH",
"-13 31 LINE",
"-19 0 LINE"
);
},
{
closed = 1;
nodes = (
"624 343 LINE",
"634 389 LINE",
"201 389 LINE",
"191 343 LINE"
);
}
);
width = 759;
}
);
note = H;
unicode = 0048;
},
{
glyphname = Hbar;
lastChange = "2015-12-01 11:19:47 +0000";
layers = (
{
layerId = "29476F1E-CD12-4295-B0EC-F6BA1C34E337";
name = "Regular Italic";
paths = (
{
closed = 1;
nodes = (
"702 0 LINE",
"708 31 LINE",
"679 31 LINE SMOOTH",
"647 31 OFFCURVE",
"631 39 OFFCURVE",
"631 58 CURVE SMOOTH",
"631 60 OFFCURVE",
"631 64 OFFCURVE",
"632 67 CURVE SMOOTH",
"747 632 LINE SMOOTH",
"752 657 OFFCURVE",
"773 669 OFFCURVE",
"809 669 CURVE SMOOTH",
"838 669 LINE",
"844 700 LINE",
"562 700 LINE",
"556 669 LINE",
"584 669 LINE SMOOTH",
"621 669 OFFCURVE",
"636 657 OFFCURVE",
"632 632 CURVE SMOOTH",
"516 67 LINE SMOOTH",
"511 42 OFFCURVE",
"491 31 OFFCURVE",
"453 31 CURVE SMOOTH",
"425 31 LINE",
"420 0 LINE"
);
},
{
closed = 1;
nodes = (
"263 0 LINE",
"269 31 LINE",
"240 31 LINE SMOOTH",
"209 31 OFFCURVE",
"192 39 OFFCURVE",
"192 58 CURVE SMOOTH",
"192 61 OFFCURVE",
"192 64 OFFCURVE",
"193 67 CURVE SMOOTH",
"308 632 LINE SMOOTH",
"313 657 OFFCURVE",
"334 669 OFFCURVE",
"371 669 CURVE SMOOTH",
"399 669 LINE",
"405 700 LINE",
"123 700 LINE",
"117 669 LINE",
"145 669 LINE SMOOTH",
"178 669 OFFCURVE",
"194 660 OFFCURVE",
"194 640 CURVE SMOOTH",
"194 638 OFFCURVE",
"194 635 OFFCURVE",
"193 632 CURVE SMOOTH",
"78 67 LINE SMOOTH",
"72 42 OFFCURVE",
"52 31 OFFCURVE",
"14 31 CURVE SMOOTH",
"-13 31 LINE",
"-19 0 LINE"
);
},
{
closed = 1;
nodes = (
"624 343 LINE",
"634 389 LINE",
"201 389 LINE",
"191 343 LINE"
);
},
{
closed = 1;
nodes = (
"774 499 LINE",
"782 545 LINE",
"111 545 LINE",
"103 499 LINE"
);
}
);
width = 759;
}
);
note = Hbar;
unicode = 0126;
},
{
glyphname = Hbrevebelow;
lastChange = "2015-12-01 11:19:46 +0000";
layers = (
{
layerId = "29476F1E-CD12-4295-B0EC-F6BA1C34E337";
name = "Regular Italic";
paths = (
{
closed = 1;
nodes = (
"702 0 LINE",
"708 31 LINE",
"679 31 LINE SMOOTH",
"647 31 OFFCURVE",
"631 39 OFFCURVE",
"631 58 CURVE SMOOTH",
"631 60 OFFCURVE",
"631 64 OFFCURVE",
"632 67 CURVE SMOOTH",
"747 632 LINE SMOOTH",
"752 657 OFFCURVE",
"773 669 OFFCURVE",
"809 669 CURVE SMOOTH",
"838 669 LINE",
"844 700 LINE",
"562 700 LINE",
"556 669 LINE",
"584 669 LINE SMOOTH",
"621 669 OFFCURVE",
"636 657 OFFCURVE",
"632 632 CURVE SMOOTH",
"516 67 LINE SMOOTH",
"511 42 OFFCURVE",
"491 31 OFFCURVE",
"453 31 CURVE SMOOTH",
"425 31 LINE",
"420 0 LINE"
);
},
{
closed = 1;
nodes = (
"404 -189 OFFCURVE",
"455 -127 OFFCURVE",
"472 -53 CURVE",
"438 -53 LINE",
"422 -104 OFFCURVE",
"381 -135 OFFCURVE",
"312 -135 CURVE SMOOTH",
"243 -135 OFFCURVE",
"211 -104 OFFCURVE",
"216 -53 CURVE",
"182 -53 LINE",
"180 -64 OFFCURVE",
"179 -76 OFFCURVE",
"179 -86 CURVE SMOOTH",
"179 -146 OFFCURVE",
"211 -189 OFFCURVE",
"300 -189 CURVE SMOOTH"
);
},
{
closed = 1;
nodes = (
"263 0 LINE",
"269 31 LINE",
"240 31 LINE SMOOTH",
"209 31 OFFCURVE",
"192 39 OFFCURVE",
"192 58 CURVE SMOOTH",
"192 61 OFFCURVE",
"192 64 OFFCURVE",
"193 67 CURVE SMOOTH",
"308 632 LINE SMOOTH",
"313 657 OFFCURVE",
"334 669 OFFCURVE",
"371 669 CURVE SMOOTH",
"399 669 LINE",
"405 700 LINE",
"123 700 LINE",
"117 669 LINE",
"145 669 LINE SMOOTH",
"178 669 OFFCURVE",
"194 660 OFFCURVE",
"194 640 CURVE SMOOTH",
"194 638 OFFCURVE",
"194 635 OFFCURVE",
"193 632 CURVE SMOOTH",
"78 67 LINE SMOOTH",
"72 42 OFFCURVE",
"52 31 OFFCURVE",
"14 31 CURVE SMOOTH",
"-13 31 LINE",
"-19 0 LINE"
);
},
{
closed = 1;
nodes = (
"624 343 LINE",
"634 389 LINE",
"201 389 LINE",
"191 343 LINE"
);
}
);
width = 759;
}
);
note = Hbrevebelow;
unicode = 1E2A;
},
{
glyphname = Hcircumflex;
lastChange = "2015-12-01 11:19:45 +0000";
layers = (
{
layerId = "29476F1E-CD12-4295-B0EC-F6BA1C34E337";
name = "Regular Italic";
paths = (
{
closed = 1;
nodes = (
"702 0 LINE",
"708 31 LINE",
"679 31 LINE SMOOTH",
"647 31 OFFCURVE",
"631 39 OFFCURVE",
"631 58 CURVE SMOOTH",
"631 60 OFFCURVE",
"631 64 OFFCURVE",
"632 67 CURVE SMOOTH",
"747 632 LINE SMOOTH",
"752 657 OFFCURVE",
"773 669 OFFCURVE",
"809 669 CURVE SMOOTH",
"838 669 LINE",
"844 700 LINE",
"562 700 LINE",
"556 669 LINE",
"584 669 LINE SMOOTH",
"621 669 OFFCURVE",
"636 657 OFFCURVE",
"632 632 CURVE SMOOTH",
"516 67 LINE SMOOTH",
"511 42 OFFCURVE",
"491 31 OFFCURVE",
"453 31 CURVE SMOOTH",
"425 31 LINE",
"420 0 LINE"
);
},
{
closed = 1;
nodes = (
"263 0 LINE",
"269 31 LINE",
"240 31 LINE SMOOTH",
"209 31 OFFCURVE",
"192 39 OFFCURVE",
"192 58 CURVE SMOOTH",
"192 61 OFFCURVE",
"192 64 OFFCURVE",
"193 67 CURVE SMOOTH",
"308 632 LINE SMOOTH",
"313 657 OFFCURVE",
"334 669 OFFCURVE",
"371 669 CURVE SMOOTH",
"399 669 LINE",
"405 700 LINE",
"123 700 LINE",
"117 669 LINE",
"145 669 LINE SMOOTH",
"178 669 OFFCURVE",
"194 660 OFFCURVE",
"194 640 CURVE SMOOTH",
"194 638 OFFCURVE",
"194 635 OFFCURVE",
"193 632 CURVE SMOOTH",
"78 67 LINE SMOOTH",
"72 42 OFFCURVE",
"52 31 OFFCURVE",
"14 31 CURVE SMOOTH",
"-13 31 LINE",
"-19 0 LINE"
);
},
{
closed = 1;
nodes = (
"624 343 LINE",
"634 389 LINE",
"201 389 LINE",
"191 343 LINE"
);
},
{
closed = 1;
nodes = (
"490 870 LINE SMOOTH",
"501 878 OFFCURVE",
"513 883 OFFCURVE",
"519 883 CURVE SMOOTH",
"526 883 OFFCURVE",
"535 877 OFFCURVE",
"542 870 CURVE SMOOTH",
"636 781 LINE",
"660 804 LINE",
"562 944 LINE",
"502 944 LINE",
"348 804 LINE",
"363 781 LINE"
);
}
);
width = 759;
}
);
note = Hcircumflex;
unicode = 0124;
},
{
glyphname = Hdotbelow;
lastChange = "2015-12-01 11:19:45 +0000";
layers = (
{
layerId = "29476F1E-CD12-4295-B0EC-F6BA1C34E337";
name = "Regular Italic";
paths = (
{
closed = 1;
nodes = (
"702 0 LINE",
"708 31 LINE",
"679 31 LINE SMOOTH",
"647 31 OFFCURVE",
"631 39 OFFCURVE",
"631 58 CURVE SMOOTH",
"631 60 OFFCURVE",
"631 64 OFFCURVE",
"632 67 CURVE SMOOTH",
"747 632 LINE SMOOTH",
"752 657 OFFCURVE",
"773 669 OFFCURVE",
"809 669 CURVE SMOOTH",
"838 669 LINE",
"844 700 LINE",
"562 700 LINE",
"556 669 LINE",
"584 669 LINE SMOOTH",
"621 669 OFFCURVE",
"636 657 OFFCURVE",
"632 632 CURVE SMOOTH",
"516 67 LINE SMOOTH",
"511 42 OFFCURVE",
"491 31 OFFCURVE",
"453 31 CURVE SMOOTH",
"425 31 LINE",
"420 0 LINE"
);
},
{
closed = 1;
nodes = (
"340 -170 OFFCURVE",
"367 -141 OFFCURVE",
"367 -104 CURVE SMOOTH",
"367 -81 OFFCURVE",
"353 -64 OFFCURVE",
"327 -64 CURVE SMOOTH",
"297 -64 OFFCURVE",
"272 -87 OFFCURVE",
"265 -118 CURVE SMOOTH",
"264 -122 OFFCURVE",
"264 -126 OFFCURVE",
"264 -130 CURVE SMOOTH",
"264 -154 OFFCURVE",
"279 -170 OFFCURVE",
"305 -170 CURVE SMOOTH"
);
},
{
closed = 1;
nodes = (
"263 0 LINE",
"269 31 LINE",
"240 31 LINE SMOOTH",
"209 31 OFFCURVE",
"192 39 OFFCURVE",
"192 58 CURVE SMOOTH",
"192 61 OFFCURVE",
"192 64 OFFCURVE",
"193 67 CURVE SMOOTH",
"308 632 LINE SMOOTH",
"313 657 OFFCURVE",
"334 669 OFFCURVE",
"371 669 CURVE SMOOTH",
"399 669 LINE",
"405 700 LINE",
"123 700 LINE",
"117 669 LINE",
"145 669 LINE SMOOTH",
"178 669 OFFCURVE",
"194 660 OFFCURVE",
"194 640 CURVE SMOOTH",
"194 638 OFFCURVE",
"194 635 OFFCURVE",
"193 632 CURVE SMOOTH",
"78 67 LINE SMOOTH",
"72 42 OFFCURVE",
"52 31 OFFCURVE",
"14 31 CURVE SMOOTH",
"-13 31 LINE",
"-19 0 LINE"
);
},
{
closed = 1;
nodes = (
"624 343 LINE",
"634 389 LINE",
"201 389 LINE",
"191 343 LINE"
);
}
);
width = 759;
}
);
note = Hdotbelow;
unicode = 1E24;
},
{
glyphname = I;
lastChange = "2015-12-01 11:19:42 +0000";
layers = (
{
layerId = "29476F1E-CD12-4295-B0EC-F6BA1C34E337";
name = "Regular Italic";
paths = (
{
closed = 1;
nodes = (
"267 0 LINE",
"273 31 LINE",
"245 31 LINE SMOOTH",
"212 31 OFFCURVE",
"196 39 OFFCURVE",
"196 58 CURVE SMOOTH",
"196 60 OFFCURVE",
"196 64 OFFCURVE",
"197 67 CURVE SMOOTH",
"312 632 LINE SMOOTH",
"317 657 OFFCURVE",
"338 669 OFFCURVE",
"375 669 CURVE SMOOTH",
"403 669 LINE",
"409 700 LINE",
"127 700 LINE",
"121 669 LINE",
"150 669 LINE SMOOTH",
"182 669 OFFCURVE",
"198 660 OFFCURVE",
"198 640 CURVE SMOOTH",
"198 638 OFFCURVE",
"198 635 OFFCURVE",
"197 632 CURVE SMOOTH",
"82 67 LINE SMOOTH",
"76 42 OFFCURVE",
"56 31 OFFCURVE",
"19 31 CURVE SMOOTH",
"-10 31 LINE",
"-15 0 LINE"
);
}
);
width = 329;
}
);
note = I;
unicode = 0049;
},
{
glyphname = IJ;
lastChange = "2015-12-01 11:19:45 +0000";
layers = (
{
layerId = "29476F1E-CD12-4295-B0EC-F6BA1C34E337";
name = "Regular Italic";
paths = (
{
closed = 1;
nodes = (
"424 -114 OFFCURVE",
"533 -44 OFFCURVE",
"563 100 CURVE SMOOTH",
"671 632 LINE SMOOTH",
"676 657 OFFCURVE",
"697 669 OFFCURVE",
"733 669 CURVE SMOOTH",
"762 669 LINE",
"768 700 LINE",
"486 700 LINE",
"480 669 LINE",
"508 669 LINE SMOOTH",
"541 669 OFFCURVE",
"557 660 OFFCURVE",
"557 640 CURVE SMOOTH",
"557 638 OFFCURVE",
"557 635 OFFCURVE",
"556 632 CURVE SMOOTH",
"447 101 LINE SMOOTH",
"427 2 OFFCURVE",
"381 -70 OFFCURVE",
"290 -91 CURVE",
"290 -114 LINE"
);
},
{
closed = 1;
nodes = (
"267 0 LINE",
"273 31 LINE",
"245 31 LINE SMOOTH",
"212 31 OFFCURVE",
"196 39 OFFCURVE",
"196 58 CURVE SMOOTH",
"196 60 OFFCURVE",
"196 64 OFFCURVE",
"197 67 CURVE SMOOTH",
"312 632 LINE SMOOTH",
"317 657 OFFCURVE",
"338 669 OFFCURVE",
"375 669 CURVE SMOOTH",
"403 669 LINE",
"409 700 LINE",
"127 700 LINE",
"121 669 LINE",
"150 669 LINE SMOOTH",
"182 669 OFFCURVE",
"198 660 OFFCURVE",
"198 640 CURVE SMOOTH",
"198 638 OFFCURVE",
"198 635 OFFCURVE",
"197 632 CURVE SMOOTH",
"82 67 LINE SMOOTH",
"76 42 OFFCURVE",
"56 31 OFFCURVE",
"19 31 CURVE SMOOTH",
"-10 31 LINE",
"-15 0 LINE"
);
}
);
width = 687;
}
);
note = IJ;
unicode = 0132;
},
{
glyphname = Iacute;
lastChange = "2015-12-01 11:19:47 +0000";
layers = (
{
layerId = "29476F1E-CD12-4295-B0EC-F6BA1C34E337";
name = "Regular Italic";
paths = (
{
closed = 1;
nodes = (
"267 0 LINE",
"273 31 LINE",
"245 31 LINE SMOOTH",
"212 31 OFFCURVE",
"196 39 OFFCURVE",
"196 58 CURVE SMOOTH",
"196 60 OFFCURVE",
"196 64 OFFCURVE",
"197 67 CURVE SMOOTH",
"312 632 LINE SMOOTH",
"317 657 OFFCURVE",
"338 669 OFFCURVE",
"375 669 CURVE SMOOTH",
"403 669 LINE",
"409 700 LINE",
"127 700 LINE",
"121 669 LINE",
"150 669 LINE SMOOTH",
"182 669 OFFCURVE",
"198 660 OFFCURVE",
"198 640 CURVE SMOOTH",
"198 638 OFFCURVE",
"198 635 OFFCURVE",
"197 632 CURVE SMOOTH",
"82 67 LINE SMOOTH",
"76 42 OFFCURVE",
"56 31 OFFCURVE",
"19 31 CURVE SMOOTH",
"-10 31 LINE",
"-15 0 LINE"
);
},
{
closed = 1;
nodes = (
"366 867 LINE SMOOTH",
"397 883 OFFCURVE",
"414 900 OFFCURVE",
"414 924 CURVE SMOOTH",
"414 938 OFFCURVE",
"405 951 OFFCURVE",
"383 951 CURVE SMOOTH",
"360 951 OFFCURVE",
"338 932 OFFCURVE",
"328 924 CURVE SMOOTH",
"192 810 LINE",
"205 780 LINE"
);
}
);
width = 329;
}
);
note = Iacute;
unicode = 00CD;
},
{
glyphname = Ibreve;
lastChange = "2015-12-01 11:19:46 +0000";
layers = (
{
layerId = "29476F1E-CD12-4295-B0EC-F6BA1C34E337";
name = "Regular Italic";
paths = (
{
closed = 1;
nodes = (
"267 0 LINE",
"273 31 LINE",
"245 31 LINE SMOOTH",
"212 31 OFFCURVE",
"196 39 OFFCURVE",
"196 58 CURVE SMOOTH",
"196 60 OFFCURVE",
"196 64 OFFCURVE",
"197 67 CURVE SMOOTH",
"312 632 LINE SMOOTH",
"317 657 OFFCURVE",
"338 669 OFFCURVE",
"375 669 CURVE SMOOTH",
"403 669 LINE",
"409 700 LINE",
"127 700 LINE",
"121 669 LINE",
"150 669 LINE SMOOTH",
"182 669 OFFCURVE",
"198 660 OFFCURVE",
"198 640 CURVE SMOOTH",
"198 638 OFFCURVE",
"198 635 OFFCURVE",
"197 632 CURVE SMOOTH",
"82 67 LINE SMOOTH",
"76 42 OFFCURVE",
"56 31 OFFCURVE",
"19 31 CURVE SMOOTH",
"-10 31 LINE",
"-15 0 LINE"
);
},
{
closed = 1;
nodes = (
"388 776 OFFCURVE",
"438 839 OFFCURVE",
"456 913 CURVE",
"421 913 LINE",
"406 861 OFFCURVE",
"364 830 OFFCURVE",
"294 830 CURVE SMOOTH",
"225 830 OFFCURVE",
"194 861 OFFCURVE",
"199 913 CURVE",
"166 913 LINE",
"164 901 OFFCURVE",
"163 889 OFFCURVE",
"163 878 CURVE SMOOTH",
"163 819 OFFCURVE",
"195 776 OFFCURVE",
"283 776 CURVE SMOOTH"
);
}
);
width = 329;
}
);
note = Ibreve;
unicode = 012C;
},
{
glyphname = Icaron;
lastChange = "2015-12-01 11:19:48 +0000";
layers = (
{
layerId = "29476F1E-CD12-4295-B0EC-F6BA1C34E337";
name = "Regular Italic";
paths = (
{
closed = 1;
nodes = (
"267 0 LINE",
"273 31 LINE",
"245 31 LINE SMOOTH",
"212 31 OFFCURVE",
"196 39 OFFCURVE",
"196 58 CURVE SMOOTH",
"196 60 OFFCURVE",
"196 64 OFFCURVE",
"197 67 CURVE SMOOTH",
"312 632 LINE SMOOTH",
"317 657 OFFCURVE",
"338 669 OFFCURVE",
"375 669 CURVE SMOOTH",
"403 669 LINE",
"409 700 LINE",
"127 700 LINE",
"121 669 LINE",
"150 669 LINE SMOOTH",
"182 669 OFFCURVE",
"198 660 OFFCURVE",
"198 640 CURVE SMOOTH",
"198 638 OFFCURVE",
"198 635 OFFCURVE",
"197 632 CURVE SMOOTH",
"82 67 LINE SMOOTH",
"76 42 OFFCURVE",
"56 31 OFFCURVE",
"19 31 CURVE SMOOTH",
"-10 31 LINE",
"-15 0 LINE"
);
},
{
closed = 1;
nodes = (
"314 781 LINE",
"468 921 LINE",
"453 944 LINE",
"324 855 LINE SMOOTH",
"314 848 OFFCURVE",
"303 842 OFFCURVE",
"297 842 CURVE SMOOTH",
"290 842 OFFCURVE",
"281 848 OFFCURVE",
"272 855 CURVE",
"180 944 LINE",
"156 921 LINE",
"254 781 LINE"
);
}
);
width = 329;
}
);
note = Icaron;
unicode = 01CF;
},
{
glyphname = Icircumflex;
lastChange = "2015-12-01 11:19:46 +0000";
layers = (
{
layerId = "29476F1E-CD12-4295-B0EC-F6BA1C34E337";
name = "Regular Italic";
paths = (
{
closed = 1;
nodes = (
"267 0 LINE",
"273 31 LINE",
"245 31 LINE SMOOTH",
"212 31 OFFCURVE",
"196 39 OFFCURVE",
"196 58 CURVE SMOOTH",
"196 60 OFFCURVE",
"196 64 OFFCURVE",
"197 67 CURVE SMOOTH",
"312 632 LINE SMOOTH",
"317 657 OFFCURVE",
"338 669 OFFCURVE",
"375 669 CURVE SMOOTH",
"403 669 LINE",
"409 700 LINE",
"127 700 LINE",
"121 669 LINE",
"150 669 LINE SMOOTH",
"182 669 OFFCURVE",
"198 660 OFFCURVE",
"198 640 CURVE SMOOTH",
"198 638 OFFCURVE",
"198 635 OFFCURVE",
"197 632 CURVE SMOOTH",
"82 67 LINE SMOOTH",
"76 42 OFFCURVE",
"56 31 OFFCURVE",
"19 31 CURVE SMOOTH",
"-10 31 LINE",
"-15 0 LINE"
);
},
{
closed = 1;
nodes = (
"275 870 LINE SMOOTH",
"286 878 OFFCURVE",
"298 883 OFFCURVE",
"304 883 CURVE SMOOTH",
"311 883 OFFCURVE",
"320 877 OFFCURVE",
"327 870 CURVE SMOOTH",
"420 781 LINE",
"444 804 LINE",
"347 944 LINE",
"287 944 LINE",
"132 804 LINE",
"148 781 LINE"
);
}
);
width = 329;
}
);
note = Icircumflex;
unicode = 00CE;
},
{
glyphname = Idieresis;
lastChange = "2015-12-01 11:19:46 +0000";
layers = (
{
layerId = "29476F1E-CD12-4295-B0EC-F6BA1C34E337";
name = "Regular Italic";
paths = (
{
closed = 1;
nodes = (
"267 0 LINE",
"273 31 LINE",
"245 31 LINE SMOOTH",
"212 31 OFFCURVE",
"196 39 OFFCURVE",
"196 58 CURVE SMOOTH",
"196 60 OFFCURVE",
"196 64 OFFCURVE",
"197 67 CURVE SMOOTH",
"312 632 LINE SMOOTH",
"317 657 OFFCURVE",
"338 669 OFFCURVE",
"375 669 CURVE SMOOTH",
"403 669 LINE",
"409 700 LINE",
"127 700 LINE",
"121 669 LINE",
"150 669 LINE SMOOTH",
"182 669 OFFCURVE",
"198 660 OFFCURVE",
"198 640 CURVE SMOOTH",
"198 638 OFFCURVE",
"198 635 OFFCURVE",
"197 632 CURVE SMOOTH",
"82 67 LINE SMOOTH",
"76 42 OFFCURVE",
"56 31 OFFCURVE",
"19 31 CURVE SMOOTH",
"-10 31 LINE",
"-15 0 LINE"
);
},
{
closed = 1;
nodes = (
"212 780 OFFCURVE",
"239 809 OFFCURVE",
"239 846 CURVE SMOOTH",
"239 870 OFFCURVE",
"224 885 OFFCURVE",
"198 885 CURVE SMOOTH",
"167 885 OFFCURVE",
"144 863 OFFCURVE",
"137 832 CURVE SMOOTH",
"136 828 OFFCURVE",
"136 824 OFFCURVE",
"136 820 CURVE SMOOTH",
"136 797 OFFCURVE",
"150 780 OFFCURVE",
"176 780 CURVE SMOOTH"
);
},
{
closed = 1;
nodes = (
"425 780 OFFCURVE",
"452 809 OFFCURVE",
"452 847 CURVE SMOOTH",
"452 870 OFFCURVE",
"438 885 OFFCURVE",
"412 885 CURVE SMOOTH",
"380 885 OFFCURVE",
"356 863 OFFCURVE",
"349 832 CURVE SMOOTH",
"348 828 OFFCURVE",
"348 824 OFFCURVE",
"348 821 CURVE SMOOTH",
"348 797 OFFCURVE",
"362 780 OFFCURVE",
"390 780 CURVE SMOOTH"
);
}
);
width = 329;
}
);
note = Idieresis;
unicode = 00CF;
},
{
glyphname = Idotaccent;
lastChange = "2015-12-01 11:19:46 +0000";
layers = (
{
layerId = "29476F1E-CD12-4295-B0EC-F6BA1C34E337";
name = "Regular Italic";
paths = (
{
closed = 1;
nodes = (
"267 0 LINE",
"273 31 LINE",
"245 31 LINE SMOOTH",
"212 31 OFFCURVE",
"196 39 OFFCURVE",
"196 58 CURVE SMOOTH",
"196 60 OFFCURVE",
"196 64 OFFCURVE",
"197 67 CURVE SMOOTH",
"312 632 LINE SMOOTH",
"317 657 OFFCURVE",
"338 669 OFFCURVE",
"375 669 CURVE SMOOTH",
"403 669 LINE",
"409 700 LINE",
"127 700 LINE",
"121 669 LINE",
"150 669 LINE SMOOTH",
"182 669 OFFCURVE",
"198 660 OFFCURVE",
"198 640 CURVE SMOOTH",
"198 638 OFFCURVE",
"198 635 OFFCURVE",
"197 632 CURVE SMOOTH",
"82 67 LINE SMOOTH",
"76 42 OFFCURVE",
"56 31 OFFCURVE",
"19 31 CURVE SMOOTH",
"-10 31 LINE",
"-15 0 LINE"
);
},
{
closed = 1;
nodes = (
"312 767 OFFCURVE",
"335 789 OFFCURVE",
"342 819 CURVE",
"343 824 OFFCURVE",
"343 828 OFFCURVE",
"343 832 CURVE SMOOTH",
"343 856 OFFCURVE",
"328 872 OFFCURVE",
"302 872 CURVE SMOOTH",
"272 872 OFFCURVE",
"248 850 OFFCURVE",
"242 819 CURVE",
"241 814 OFFCURVE",
"240 810 OFFCURVE",
"240 806 CURVE SMOOTH",
"240 783 OFFCURVE",
"256 767 OFFCURVE",
"281 767 CURVE SMOOTH"
);
}
);
width = 329;
}
);
note = Idotaccent;
unicode = 0130;
},
{
glyphname = Idotbelow;
lastChange = "2015-12-01 11:19:45 +0000";
layers = (
{
layerId = "29476F1E-CD12-4295-B0EC-F6BA1C34E337";
name = "Regular Italic";
paths = (
{
closed = 1;
nodes = (
"267 0 LINE",
"273 31 LINE",
"245 31 LINE SMOOTH",
"212 31 OFFCURVE",
"196 39 OFFCURVE",
"196 58 CURVE SMOOTH",
"196 60 OFFCURVE",
"196 64 OFFCURVE",
"197 67 CURVE SMOOTH",
"312 632 LINE SMOOTH",
"317 657 OFFCURVE",
"338 669 OFFCURVE",
"375 669 CURVE SMOOTH",
"403 669 LINE",
"409 700 LINE",
"127 700 LINE",
"121 669 LINE",
"150 669 LINE SMOOTH",
"182 669 OFFCURVE",
"198 660 OFFCURVE",
"198 640 CURVE SMOOTH",
"198 638 OFFCURVE",
"198 635 OFFCURVE",
"197 632 CURVE SMOOTH",
"82 67 LINE SMOOTH",
"76 42 OFFCURVE",
"56 31 OFFCURVE",
"19 31 CURVE SMOOTH",
"-10 31 LINE",
"-15 0 LINE"
);
},
{
closed = 1;
nodes = (
"126 -170 OFFCURVE",
"153 -141 OFFCURVE",
"153 -104 CURVE SMOOTH",
"153 -81 OFFCURVE",
"139 -64 OFFCURVE",
"113 -64 CURVE SMOOTH",
"79 -64 OFFCURVE",
"50 -93 OFFCURVE",
"50 -131 CURVE SMOOTH",
"50 -154 OFFCURVE",
"65 -170 OFFCURVE",
"91 -170 CURVE SMOOTH"
);
}
);
width = 329;
}
);
note = Idotbelow;
unicode = 1ECA;
},
{
glyphname = Igrave;
lastChange = "2015-12-01 11:19:46 +0000";
layers = (
{
layerId = "29476F1E-CD12-4295-B0EC-F6BA1C34E337";
name = "Regular Italic";
paths = (
{
closed = 1;
nodes = (
"267 0 LINE",
"273 31 LINE",
"245 31 LINE SMOOTH",
"212 31 OFFCURVE",
"196 39 OFFCURVE",
"196 58 CURVE SMOOTH",
"196 60 OFFCURVE",
"196 64 OFFCURVE",
"197 67 CURVE SMOOTH",
"312 632 LINE SMOOTH",
"317 657 OFFCURVE",
"338 669 OFFCURVE",
"375 669 CURVE SMOOTH",
"403 669 LINE",
"409 700 LINE",
"127 700 LINE",
"121 669 LINE",
"150 669 LINE SMOOTH",
"182 669 OFFCURVE",
"198 660 OFFCURVE",
"198 640 CURVE SMOOTH",
"198 638 OFFCURVE",
"198 635 OFFCURVE",
"197 632 CURVE SMOOTH",
"82 67 LINE SMOOTH",
"76 42 OFFCURVE",
"56 31 OFFCURVE",
"19 31 CURVE SMOOTH",
"-10 31 LINE",
"-15 0 LINE"
);
},
{
closed = 1;
nodes = (
"391 810 LINE",
"301 923 LINE SMOOTH",
"295 932 OFFCURVE",
"280 951 OFFCURVE",
"257 951 CURVE SMOOTH",
"232 951 OFFCURVE",
"217 934 OFFCURVE",
"213 917 CURVE",
"212 914 OFFCURVE",
"212 910 OFFCURVE",
"212 907 CURVE SMOOTH",
"212 891 OFFCURVE",
"221 880 OFFCURVE",
"239 867 CURVE SMOOTH",
"364 780 LINE"
);
}
);
width = 329;
}
);
note = Igrave;
unicode = 00CC;
},
{
glyphname = Ihookabove;
lastChange = "2015-12-01 11:19:47 +0000";
layers = (
{
layerId = "29476F1E-CD12-4295-B0EC-F6BA1C34E337";
name = "Regular Italic";
paths = (
{
closed = 1;
nodes = (
"267 0 LINE",
"273 31 LINE",
"245 31 LINE SMOOTH",
"212 31 OFFCURVE",
"196 39 OFFCURVE",
"196 58 CURVE SMOOTH",
"196 60 OFFCURVE",
"196 64 OFFCURVE",
"197 67 CURVE SMOOTH",
"312 632 LINE SMOOTH",
"317 657 OFFCURVE",
"338 669 OFFCURVE",
"375 669 CURVE SMOOTH",
"403 669 LINE",
"409 700 LINE",
"127 700 LINE",
"121 669 LINE",
"150 669 LINE SMOOTH",
"182 669 OFFCURVE",
"198 660 OFFCURVE",
"198 640 CURVE SMOOTH",
"198 638 OFFCURVE",
"198 635 OFFCURVE",
"197 632 CURVE SMOOTH",
"82 67 LINE SMOOTH",
"76 42 OFFCURVE",
"56 31 OFFCURVE",
"19 31 CURVE SMOOTH",
"-10 31 LINE",
"-15 0 LINE"
);
},
{
closed = 1;
nodes = (
"332 801 LINE",
"315 808 OFFCURVE",
"304 815 OFFCURVE",
"308 831 CURVE",
"315 865 OFFCURVE",
"407 879 OFFCURVE",
"417 932 CURVE",
"418 937 OFFCURVE",
"419 942 OFFCURVE",
"419 947 CURVE SMOOTH",
"419 982 OFFCURVE",
"390 1001 OFFCURVE",
"341 1001 CURVE SMOOTH",
"293 1001 OFFCURVE",
"247 983 OFFCURVE",
"239 947 CURVE SMOOTH",
"238 944 OFFCURVE",
"238 941 OFFCURVE",
"238 938 CURVE SMOOTH",
"238 925 OFFCURVE",
"246 919 OFFCURVE",
"258 919 CURVE SMOOTH",
"284 919 OFFCURVE",
"291 943 OFFCURVE",
"294 948 CURVE SMOOTH",
"302 962 OFFCURVE",
"319 968 OFFCURVE",
"334 968 CURVE SMOOTH",
"352 968 OFFCURVE",
"363 953 OFFCURVE",
"359 936 CURVE SMOOTH",
"348 886 OFFCURVE",
"256 878 OFFCURVE",
"256 821 CURVE SMOOTH",
"256 798 OFFCURVE",
"271 779 OFFCURVE",
"319 779 CURVE"
);
}
);
width = 329;
}
);
note = Ihookabove;
unicode = 1EC8;
},
{
glyphname = Imacron;
lastChange = "2015-12-01 11:19:47 +0000";
layers = (
{
layerId = "29476F1E-CD12-4295-B0EC-F6BA1C34E337";
name = "Regular Italic";
paths = (
{
closed = 1;
nodes = (
"267 0 LINE",
"273 31 LINE",
"245 31 LINE SMOOTH",
"212 31 OFFCURVE",
"196 39 OFFCURVE",
"196 58 CURVE SMOOTH",
"196 60 OFFCURVE",
"196 64 OFFCURVE",
"197 67 CURVE SMOOTH",
"312 632 LINE SMOOTH",
"317 657 OFFCURVE",
"338 669 OFFCURVE",
"375 669 CURVE SMOOTH",
"403 669 LINE",
"409 700 LINE",
"127 700 LINE",
"121 669 LINE",
"150 669 LINE SMOOTH",
"182 669 OFFCURVE",
"198 660 OFFCURVE",
"198 640 CURVE SMOOTH",
"198 638 OFFCURVE",
"198 635 OFFCURVE",
"197 632 CURVE SMOOTH",
"82 67 LINE SMOOTH",
"76 42 OFFCURVE",
"56 31 OFFCURVE",
"19 31 CURVE SMOOTH",
"-10 31 LINE",
"-15 0 LINE"
);
},
{
closed = 1;
nodes = (
"483 787 LINE",
"493 841 LINE",
"106 841 LINE",
"95 787 LINE"
);
}
);
width = 329;
}
);
note = Imacron;
unicode = 012A;
},
{
glyphname = Iogonek;
lastChange = "2015-12-01 11:19:45 +0000";
layers = (
{
layerId = "29476F1E-CD12-4295-B0EC-F6BA1C34E337";
name = "Regular Italic";
paths = (
{
closed = 1;
nodes = (
"267 0 LINE",
"273 31 LINE",
"245 31 LINE SMOOTH",
"212 31 OFFCURVE",
"196 39 OFFCURVE",
"196 58 CURVE SMOOTH",
"196 60 OFFCURVE",
"196 64 OFFCURVE",
"197 67 CURVE SMOOTH",
"312 632 LINE SMOOTH",
"317 657 OFFCURVE",
"338 669 OFFCURVE",
"375 669 CURVE SMOOTH",
"403 669 LINE",
"409 700 LINE",
"127 700 LINE",
"121 669 LINE",
"150 669 LINE SMOOTH",
"182 669 OFFCURVE",
"198 660 OFFCURVE",
"198 640 CURVE SMOOTH",
"198 638 OFFCURVE",
"198 635 OFFCURVE",
"197 632 CURVE SMOOTH",
"82 67 LINE SMOOTH",
"76 42 OFFCURVE",
"56 31 OFFCURVE",
"19 31 CURVE SMOOTH",
"-10 31 LINE",
"-15 0 LINE"
);
},
{
closed = 1;
nodes = (
"154 -205 OFFCURVE",
"186 -197 OFFCURVE",
"215 -177 CURVE",
"212 -155 LINE",
"196 -162 OFFCURVE",
"178 -166 OFFCURVE",
"165 -166 CURVE SMOOTH",
"137 -166 OFFCURVE",
"117 -153 OFFCURVE",
"117 -124 CURVE SMOOTH",
"117 -120 OFFCURVE",
"118 -115 OFFCURVE",
"119 -109 CURVE SMOOTH",
"128 -68 OFFCURVE",
"161 -27 OFFCURVE",
"213 6 CURVE",
"170 6 LINE",
"103 -25 OFFCURVE",
"46 -78 OFFCURVE",
"46 -138 CURVE SMOOTH",
"46 -169 OFFCURVE",
"63 -205 OFFCURVE",
"128 -205 CURVE SMOOTH"
);
}
);
width = 329;
}
);
note = Iogonek;
unicode = 012E;
},
{
glyphname = Itilde;
lastChange = "2015-12-01 11:19:47 +0000";
layers = (
{
layerId = "29476F1E-CD12-4295-B0EC-F6BA1C34E337";
name = "Regular Italic";
paths = (
{
closed = 1;
nodes = (
"267 0 LINE",
"273 31 LINE",
"245 31 LINE SMOOTH",
"212 31 OFFCURVE",
"196 39 OFFCURVE",
"196 58 CURVE SMOOTH",
"196 60 OFFCURVE",
"196 64 OFFCURVE",
"197 67 CURVE SMOOTH",
"312 632 LINE SMOOTH",
"317 657 OFFCURVE",
"338 669 OFFCURVE",
"375 669 CURVE SMOOTH",
"403 669 LINE",
"409 700 LINE",
"127 700 LINE",
"121 669 LINE",
"150 669 LINE SMOOTH",
"182 669 OFFCURVE",
"198 660 OFFCURVE",
"198 640 CURVE SMOOTH",
"198 638 OFFCURVE",
"198 635 OFFCURVE",
"197 632 CURVE SMOOTH",
"82 67 LINE SMOOTH",
"76 42 OFFCURVE",
"56 31 OFFCURVE",
"19 31 CURVE SMOOTH",
"-10 31 LINE",
"-15 0 LINE"
);
},
{
closed = 1;
nodes = (
"164 817 OFFCURVE",
"185 837 OFFCURVE",
"218 837 CURVE SMOOTH",
"270 837 OFFCURVE",
"308 785 OFFCURVE",
"360 785 CURVE SMOOTH",
"420 785 OFFCURVE",
"461 840 OFFCURVE",
"485 890 CURVE",
"465 903 LINE",
"441 863 OFFCURVE",
"421 842 OFFCURVE",
"388 842 CURVE SMOOTH",
"337 842 OFFCURVE",
"296 893 OFFCURVE",
"244 893 CURVE SMOOTH",
"186 893 OFFCURVE",
"143 841 OFFCURVE",
"121 791 CURVE",
"141 778 LINE"
);
}
);
width = 329;
}
);
note = Itilde;
unicode = 0128;
},
{
glyphname = J;
lastChange = "2015-12-01 11:19:42 +0000";
layers = (
{
layerId = "29476F1E-CD12-4295-B0EC-F6BA1C34E337";
name = "Regular Italic";
paths = (
{
closed = 1;
nodes = (
"112 -114 OFFCURVE",
"221 -44 OFFCURVE",
"251 100 CURVE SMOOTH",
"359 632 LINE SMOOTH",
"364 657 OFFCURVE",
"385 669 OFFCURVE",
"421 669 CURVE SMOOTH",
"450 669 LINE",
"456 700 LINE",
"174 700 LINE",
"168 669 LINE",
"196 669 LINE SMOOTH",
"229 669 OFFCURVE",
"245 660 OFFCURVE",
"245 640 CURVE SMOOTH",
"245 638 OFFCURVE",
"245 635 OFFCURVE",
"244 632 CURVE SMOOTH",
"135 101 LINE SMOOTH",
"115 2 OFFCURVE",
"69 -70 OFFCURVE",
"-22 -91 CURVE",
"-22 -114 LINE"
);
}
);
width = 375;
}
);
note = J;
unicode = 004A;
},
{
glyphname = Jcircumflex;
lastChange = "2015-12-01 11:19:47 +0000";
layers = (
{
layerId = "29476F1E-CD12-4295-B0EC-F6BA1C34E337";
name = "Regular Italic";
paths = (
{
closed = 1;
nodes = (
"112 -114 OFFCURVE",
"221 -44 OFFCURVE",
"251 100 CURVE SMOOTH",
"359 632 LINE SMOOTH",
"364 657 OFFCURVE",
"385 669 OFFCURVE",
"421 669 CURVE SMOOTH",
"450 669 LINE",
"456 700 LINE",
"174 700 LINE",
"168 669 LINE",
"196 669 LINE SMOOTH",
"229 669 OFFCURVE",
"245 660 OFFCURVE",
"245 640 CURVE SMOOTH",
"245 638 OFFCURVE",
"245 635 OFFCURVE",
"244 632 CURVE SMOOTH",
"135 101 LINE SMOOTH",
"115 2 OFFCURVE",
"69 -70 OFFCURVE",
"-22 -91 CURVE",
"-22 -114 LINE"
);
},
{
closed = 1;
nodes = (
"323 884 LINE SMOOTH",
"334 892 OFFCURVE",
"346 897 OFFCURVE",
"352 897 CURVE SMOOTH",
"359 897 OFFCURVE",
"368 891 OFFCURVE",
"375 884 CURVE SMOOTH",
"468 795 LINE",
"492 818 LINE",
"395 958 LINE",
"335 958 LINE",
"180 818 LINE",
"196 795 LINE"
);
}
);
width = 375;
}
);
note = Jcircumflex;
unicode = 0134;
},
{
glyphname = K;
lastChange = "2015-12-01 11:19:47 +0000";
layers = (
{
layerId = "29476F1E-CD12-4295-B0EC-F6BA1C34E337";
name = "Regular Italic";
paths = (
{
closed = 1;
nodes = (
"263 0 LINE",
"269 31 LINE",
"240 31 LINE SMOOTH",
"209 31 OFFCURVE",
"192 39 OFFCURVE",
"192 58 CURVE SMOOTH",
"192 61 OFFCURVE",
"192 64 OFFCURVE",
"193 67 CURVE SMOOTH",
"308 632 LINE SMOOTH",
"313 657 OFFCURVE",
"334 669 OFFCURVE",
"371 669 CURVE SMOOTH",
"399 669 LINE",
"405 700 LINE",
"123 700 LINE",
"117 669 LINE",
"145 669 LINE SMOOTH",
"178 669 OFFCURVE",
"194 660 OFFCURVE",
"194 640 CURVE SMOOTH",
"194 638 OFFCURVE",
"194 635 OFFCURVE",
"193 632 CURVE SMOOTH",
"78 67 LINE SMOOTH",
"72 42 OFFCURVE",
"52 31 OFFCURVE",
"14 31 CURVE SMOOTH",
"-13 31 LINE",
"-19 0 LINE"
);
},
{
closed = 1;
nodes = (
"646 0 LINE",
"652 31 LINE",
"624 31 LINE SMOOTH",
"588 31 OFFCURVE",
"567 59 OFFCURVE",
"549 83 CURVE SMOOTH",
"328 389 LINE",
"240 320 LINE",
"471 0 LINE"
);
},
{
closed = 1;
nodes = (
"665 646 LINE SMOOTH",
"681 658 OFFCURVE",
"699 669 OFFCURVE",
"725 669 CURVE SMOOTH",
"746 669 LINE",
"752 700 LINE",
"548 700 LINE",
"542 669 LINE",
"557 669 LINE SMOOTH",
"580 669 OFFCURVE",
"589 663 OFFCURVE",
"589 653 CURVE SMOOTH",
"589 647 OFFCURVE",
"586 641 OFFCURVE",
"578 635 CURVE SMOOTH",
"253 384 LINE",
"239 313 LINE"
);
}
);
width = 700;
}
);
note = K;
rightKerningGroup = K;
unicode = 004B;
},
{
glyphname = Kcommaaccent;
lastChange = "2015-12-01 11:19:47 +0000";
layers = (
{
layerId = "29476F1E-CD12-4295-B0EC-F6BA1C34E337";
name = "Regular Italic";
paths = (
{
closed = 1;
nodes = (
"263 0 LINE",
"269 31 LINE",
"240 31 LINE SMOOTH",
"209 31 OFFCURVE",
"192 39 OFFCURVE",
"192 58 CURVE SMOOTH",
"192 61 OFFCURVE",
"192 64 OFFCURVE",
"193 67 CURVE SMOOTH",
"308 632 LINE SMOOTH",
"313 657 OFFCURVE",
"334 669 OFFCURVE",
"371 669 CURVE SMOOTH",
"399 669 LINE",
"405 700 LINE",
"123 700 LINE",
"117 669 LINE",
"145 669 LINE SMOOTH",
"178 669 OFFCURVE",
"194 660 OFFCURVE",
"194 640 CURVE SMOOTH",
"194 638 OFFCURVE",
"194 635 OFFCURVE",
"193 632 CURVE SMOOTH",
"78 67 LINE SMOOTH",
"72 42 OFFCURVE",
"52 31 OFFCURVE",
"14 31 CURVE SMOOTH",
"-13 31 LINE",
"-19 0 LINE"
);
},
{
closed = 1;
nodes = (
"291 -274 OFFCURVE",
"364 -196 OFFCURVE",
"364 -120 CURVE SMOOTH",
"364 -85 OFFCURVE",
"344 -69 OFFCURVE",
"319 -69 CURVE SMOOTH",
"287 -69 OFFCURVE",
"263 -91 OFFCURVE",
"257 -118 CURVE SMOOTH",
"257 -121 OFFCURVE",
"256 -124 OFFCURVE",
"256 -126 CURVE SMOOTH",
"256 -152 OFFCURVE",
"277 -165 OFFCURVE",
"277 -190 CURVE SMOOTH",
"277 -193 OFFCURVE",
"277 -197 OFFCURVE",
"276 -201 CURVE SMOOTH",
"269 -239 OFFCURVE",
"236 -273 OFFCURVE",
"204 -302 CURVE",
"218 -321 LINE"
);
},
{
closed = 1;
nodes = (
"646 0 LINE",
"652 31 LINE",
"624 31 LINE SMOOTH",
"588 31 OFFCURVE",
"567 59 OFFCURVE",
"549 83 CURVE SMOOTH",
"328 389 LINE",
"240 320 LINE",
"471 0 LINE"
);
},
{
closed = 1;
nodes = (
"665 646 LINE SMOOTH",
"681 658 OFFCURVE",
"699 669 OFFCURVE",
"725 669 CURVE SMOOTH",
"746 669 LINE",
"752 700 LINE",
"548 700 LINE",
"542 669 LINE",
"557 669 LINE SMOOTH",
"580 669 OFFCURVE",
"589 663 OFFCURVE",
"589 653 CURVE SMOOTH",
"589 647 OFFCURVE",
"586 641 OFFCURVE",
"578 635 CURVE SMOOTH",
"253 384 LINE",
"239 313 LINE"
);
}
);
width = 700;
}
);
note = Kcommaaccent;
rightKerningGroup = K;
unicode = 0136;
},
{
glyphname = L;
lastChange = "2015-12-01 11:19:42 +0000";
layers = (
{
layerId = "29476F1E-CD12-4295-B0EC-F6BA1C34E337";
name = "Regular Italic";
paths = (
{
closed = 1;
nodes = (
"521 0 LINE",
"578 193 LINE",
"546 193 LINE",
"533 151 OFFCURVE",
"488 46 OFFCURVE",
"426 46 CURVE SMOOTH",
"249 46 LINE SMOOTH",
"217 46 OFFCURVE",
"199 56 OFFCURVE",
"199 78 CURVE SMOOTH",
"199 82 OFFCURVE",
"199 85 OFFCURVE",
"200 89 CURVE SMOOTH",
"311 632 LINE SMOOTH",
"316 657 OFFCURVE",
"337 669 OFFCURVE",
"373 669 CURVE SMOOTH",
"402 669 LINE",
"408 700 LINE",
"126 700 LINE",
"120 669 LINE",
"148 669 LINE SMOOTH",
"181 669 OFFCURVE",
"197 660 OFFCURVE",
"197 640 CURVE SMOOTH",
"197 638 OFFCURVE",
"197 635 OFFCURVE",
"196 632 CURVE SMOOTH",
"81 67 LINE SMOOTH",
"75 42 OFFCURVE",
"55 31 OFFCURVE",
"17 31 CURVE SMOOTH",
"-11 31 LINE",
"-16 0 LINE"
);
}
);
width = 596;
}
);
note = L;
rightKerningGroup = L;
unicode = 004C;
},
{
glyphname = Lacute;
lastChange = "2015-12-01 11:19:45 +0000";
layers = (
{
layerId = "29476F1E-CD12-4295-B0EC-F6BA1C34E337";
name = "Regular Italic";
paths = (
{
closed = 1;
nodes = (
"521 0 LINE",
"578 193 LINE",
"546 193 LINE",
"533 151 OFFCURVE",
"488 46 OFFCURVE",
"426 46 CURVE SMOOTH",
"249 46 LINE SMOOTH",
"217 46 OFFCURVE",
"199 56 OFFCURVE",
"199 78 CURVE SMOOTH",
"199 82 OFFCURVE",
"199 85 OFFCURVE",
"200 89 CURVE SMOOTH",
"311 632 LINE SMOOTH",
"316 657 OFFCURVE",
"337 669 OFFCURVE",
"373 669 CURVE SMOOTH",
"402 669 LINE",
"408 700 LINE",
"126 700 LINE",
"120 669 LINE",
"148 669 LINE SMOOTH",
"181 669 OFFCURVE",
"197 660 OFFCURVE",
"197 640 CURVE SMOOTH",
"197 638 OFFCURVE",
"197 635 OFFCURVE",
"196 632 CURVE SMOOTH",
"81 67 LINE SMOOTH",
"75 42 OFFCURVE",
"55 31 OFFCURVE",
"17 31 CURVE SMOOTH",
"-11 31 LINE",
"-16 0 LINE"
);
},
{
closed = 1;
nodes = (
"405 867 LINE SMOOTH",
"436 883 OFFCURVE",
"453 900 OFFCURVE",
"453 924 CURVE SMOOTH",
"453 938 OFFCURVE",
"444 951 OFFCURVE",
"422 951 CURVE SMOOTH",
"399 951 OFFCURVE",
"377 932 OFFCURVE",
"368 924 CURVE SMOOTH",
"231 810 LINE",
"245 780 LINE"
);
}
);
width = 596;
}
);
note = Lacute;
rightKerningGroup = L;
unicode = 0139;
},
{
glyphname = Lcaron;
lastChange = "2015-12-01 11:19:46 +0000";
layers = (
{
layerId = "29476F1E-CD12-4295-B0EC-F6BA1C34E337";
name = "Regular Italic";
paths = (
{
closed = 1;
nodes = (
"521 0 LINE",
"578 193 LINE",
"546 193 LINE",
"533 151 OFFCURVE",
"488 46 OFFCURVE",
"426 46 CURVE SMOOTH",
"249 46 LINE SMOOTH",
"217 46 OFFCURVE",
"199 56 OFFCURVE",
"199 78 CURVE SMOOTH",
"199 82 OFFCURVE",
"199 85 OFFCURVE",
"200 89 CURVE SMOOTH",
"311 632 LINE SMOOTH",
"316 657 OFFCURVE",
"337 669 OFFCURVE",
"373 669 CURVE SMOOTH",
"402 669 LINE",
"408 700 LINE",
"126 700 LINE",
"120 669 LINE",
"148 669 LINE SMOOTH",
"181 669 OFFCURVE",
"197 660 OFFCURVE",
"197 640 CURVE SMOOTH",
"197 638 OFFCURVE",
"197 635 OFFCURVE",
"196 632 CURVE SMOOTH",
"81 67 LINE SMOOTH",
"75 42 OFFCURVE",
"55 31 OFFCURVE",
"17 31 CURVE SMOOTH",
"-11 31 LINE",
"-16 0 LINE"
);
},
{
closed = 1;
nodes = (
"522 502 OFFCURVE",
"594 582 OFFCURVE",
"594 658 CURVE SMOOTH",
"594 692 OFFCURVE",
"575 707 OFFCURVE",
"549 707 CURVE SMOOTH",
"514 707 OFFCURVE",
"487 680 OFFCURVE",
"487 649 CURVE SMOOTH",
"487 624 OFFCURVE",
"508 612 OFFCURVE",
"508 587 CURVE SMOOTH",
"508 584 OFFCURVE",
"508 580 OFFCURVE",
"507 576 CURVE SMOOTH",
"499 538 OFFCURVE",
"467 503 OFFCURVE",
"434 475 CURVE",
"448 456 LINE"
);
}
);
width = 596;
}
);
note = Lcaron;
rightKerningGroup = L;
unicode = 013D;
},
{
glyphname = Lcommaaccent;
lastChange = "2015-12-01 11:19:47 +0000";
layers = (
{
layerId = "29476F1E-CD12-4295-B0EC-F6BA1C34E337";
name = "Regular Italic";
paths = (
{
closed = 1;
nodes = (
"521 0 LINE",
"578 193 LINE",
"546 193 LINE",
"533 151 OFFCURVE",
"488 46 OFFCURVE",
"426 46 CURVE SMOOTH",
"249 46 LINE SMOOTH",
"217 46 OFFCURVE",
"199 56 OFFCURVE",
"199 78 CURVE SMOOTH",
"199 82 OFFCURVE",
"199 85 OFFCURVE",
"200 89 CURVE SMOOTH",
"311 632 LINE SMOOTH",
"316 657 OFFCURVE",
"337 669 OFFCURVE",
"373 669 CURVE SMOOTH",
"402 669 LINE",
"408 700 LINE",
"126 700 LINE",
"120 669 LINE",
"148 669 LINE SMOOTH",
"181 669 OFFCURVE",
"197 660 OFFCURVE",
"197 640 CURVE SMOOTH",
"197 638 OFFCURVE",
"197 635 OFFCURVE",
"196 632 CURVE SMOOTH",
"81 67 LINE SMOOTH",
"75 42 OFFCURVE",
"55 31 OFFCURVE",
"17 31 CURVE SMOOTH",
"-11 31 LINE",
"-16 0 LINE"
);
},
{
closed = 1;
nodes = (
"216 -274 OFFCURVE",
"289 -196 OFFCURVE",
"289 -119 CURVE SMOOTH",
"289 -85 OFFCURVE",
"270 -69 OFFCURVE",
"244 -69 CURVE SMOOTH",
"212 -69 OFFCURVE",
"188 -91 OFFCURVE",
"182 -118 CURVE SMOOTH",
"182 -121 OFFCURVE",
"181 -124 OFFCURVE",
"181 -126 CURVE SMOOTH",
"181 -153 OFFCURVE",
"203 -165 OFFCURVE",
"203 -191 CURVE SMOOTH",
"203 -194 OFFCURVE",
"203 -197 OFFCURVE",
"202 -201 CURVE SMOOTH",
"194 -239 OFFCURVE",
"161 -273 OFFCURVE",
"129 -302 CURVE",
"143 -321 LINE"
);
}
);
width = 596;
}
);
note = Lcommaaccent;
rightKerningGroup = L;
unicode = 013B;
},
{
glyphname = Ldot;
lastChange = "2015-12-01 11:19:47 +0000";
layers = (
{
layerId = "29476F1E-CD12-4295-B0EC-F6BA1C34E337";
name = "Regular Italic";
paths = (
{
closed = 1;
nodes = (
"521 0 LINE",
"578 193 LINE",
"546 193 LINE",
"533 151 OFFCURVE",
"488 46 OFFCURVE",
"426 46 CURVE SMOOTH",
"249 46 LINE SMOOTH",
"217 46 OFFCURVE",
"199 56 OFFCURVE",
"199 78 CURVE SMOOTH",
"199 82 OFFCURVE",
"199 85 OFFCURVE",
"200 89 CURVE SMOOTH",
"311 632 LINE SMOOTH",
"316 657 OFFCURVE",
"337 669 OFFCURVE",
"373 669 CURVE SMOOTH",
"402 669 LINE",
"408 700 LINE",
"126 700 LINE",
"120 669 LINE",
"148 669 LINE SMOOTH",
"181 669 OFFCURVE",
"197 660 OFFCURVE",
"197 640 CURVE SMOOTH",
"197 638 OFFCURVE",
"197 635 OFFCURVE",
"196 632 CURVE SMOOTH",
"81 67 LINE SMOOTH",
"75 42 OFFCURVE",
"55 31 OFFCURVE",
"17 31 CURVE SMOOTH",
"-11 31 LINE",
"-16 0 LINE"
);
},
{
closed = 1;
nodes = (
"449 314 OFFCURVE",
"474 336 OFFCURVE",
"481 367 CURVE SMOOTH",
"482 371 OFFCURVE",
"482 375 OFFCURVE",
"482 379 CURVE SMOOTH",
"482 403 OFFCURVE",
"467 420 OFFCURVE",
"441 420 CURVE SMOOTH",
"405 420 OFFCURVE",
"378 389 OFFCURVE",
"378 353 CURVE SMOOTH",
"378 329 OFFCURVE",
"393 314 OFFCURVE",
"419 314 CURVE SMOOTH"
);
}
);
width = 596;
}
);
note = Ldot;
rightKerningGroup = L;
unicode = 013F;
},
{
glyphname = Ldotbelow;
lastChange = "2015-12-01 11:19:46 +0000";
layers = (
{
layerId = "29476F1E-CD12-4295-B0EC-F6BA1C34E337";
name = "Regular Italic";
paths = (
{
closed = 1;
nodes = (
"521 0 LINE",
"578 193 LINE",
"546 193 LINE",
"533 151 OFFCURVE",
"488 46 OFFCURVE",
"426 46 CURVE SMOOTH",
"249 46 LINE SMOOTH",
"217 46 OFFCURVE",
"199 56 OFFCURVE",
"199 78 CURVE SMOOTH",
"199 82 OFFCURVE",
"199 85 OFFCURVE",
"200 89 CURVE SMOOTH",
"311 632 LINE SMOOTH",
"316 657 OFFCURVE",
"337 669 OFFCURVE",
"373 669 CURVE SMOOTH",
"402 669 LINE",
"408 700 LINE",
"126 700 LINE",
"120 669 LINE",
"148 669 LINE SMOOTH",
"181 669 OFFCURVE",
"197 660 OFFCURVE",
"197 640 CURVE SMOOTH",
"197 638 OFFCURVE",
"197 635 OFFCURVE",
"196 632 CURVE SMOOTH",
"81 67 LINE SMOOTH",
"75 42 OFFCURVE",
"55 31 OFFCURVE",
"17 31 CURVE SMOOTH",
"-11 31 LINE",
"-16 0 LINE"
);
},
{
closed = 1;
nodes = (
"280 -170 OFFCURVE",
"306 -140 OFFCURVE",
"306 -103 CURVE SMOOTH",
"306 -80 OFFCURVE",
"292 -64 OFFCURVE",
"266 -64 CURVE SMOOTH",
"231 -64 OFFCURVE",
"203 -93 OFFCURVE",
"203 -131 CURVE SMOOTH",
"203 -154 OFFCURVE",
"218 -170 OFFCURVE",
"244 -170 CURVE SMOOTH"
);
}
);
width = 596;
}
);
note = Ldotbelow;
rightKerningGroup = L;
unicode = 1E36;
},
{
glyphname = Ldotbelowmacron;
lastChange = "2015-12-01 11:19:46 +0000";
layers = (
{
layerId = "29476F1E-CD12-4295-B0EC-F6BA1C34E337";
name = "Regular Italic";
paths = (
{
closed = 1;
nodes = (
"521 0 LINE",
"578 193 LINE",
"546 193 LINE",
"533 151 OFFCURVE",
"488 46 OFFCURVE",
"426 46 CURVE SMOOTH",
"249 46 LINE SMOOTH",
"217 46 OFFCURVE",
"199 56 OFFCURVE",
"199 78 CURVE SMOOTH",
"199 82 OFFCURVE",
"199 85 OFFCURVE",
"200 89 CURVE SMOOTH",
"311 632 LINE SMOOTH",
"316 657 OFFCURVE",
"337 669 OFFCURVE",
"373 669 CURVE SMOOTH",
"402 669 LINE",
"408 700 LINE",
"126 700 LINE",
"120 669 LINE",
"148 669 LINE SMOOTH",
"181 669 OFFCURVE",
"197 660 OFFCURVE",
"197 640 CURVE SMOOTH",
"197 638 OFFCURVE",
"197 635 OFFCURVE",
"196 632 CURVE SMOOTH",
"81 67 LINE SMOOTH",
"75 42 OFFCURVE",
"55 31 OFFCURVE",
"17 31 CURVE SMOOTH",
"-11 31 LINE",
"-16 0 LINE"
);
},
{
closed = 1;
nodes = (
"280 -170 OFFCURVE",
"306 -140 OFFCURVE",
"306 -103 CURVE SMOOTH",
"306 -80 OFFCURVE",
"292 -64 OFFCURVE",
"266 -64 CURVE SMOOTH",
"231 -64 OFFCURVE",
"203 -93 OFFCURVE",
"203 -131 CURVE SMOOTH",
"203 -154 OFFCURVE",
"218 -170 OFFCURVE",
"244 -170 CURVE SMOOTH"
);
},
{
closed = 1;
nodes = (
"471 779 LINE",
"481 827 LINE",
"144 827 LINE",
"134 779 LINE"
);
}
);
width = 596;
}
);
note = Ldotbelowmacron;
rightKerningGroup = L;
unicode = 1E38;
},
{
glyphname = Llinebelow;
lastChange = "2015-12-01 11:19:46 +0000";
layers = (
{
layerId = "29476F1E-CD12-4295-B0EC-F6BA1C34E337";
name = "Regular Italic";
paths = (
{
closed = 1;
nodes = (
"521 0 LINE",
"578 193 LINE",
"546 193 LINE",
"533 151 OFFCURVE",
"488 46 OFFCURVE",
"426 46 CURVE SMOOTH",
"249 46 LINE SMOOTH",
"217 46 OFFCURVE",
"199 56 OFFCURVE",
"199 78 CURVE SMOOTH",
"199 82 OFFCURVE",
"199 85 OFFCURVE",
"200 89 CURVE SMOOTH",
"311 632 LINE SMOOTH",
"316 657 OFFCURVE",
"337 669 OFFCURVE",
"373 669 CURVE SMOOTH",
"402 669 LINE",
"408 700 LINE",
"126 700 LINE",
"120 669 LINE",
"148 669 LINE SMOOTH",
"181 669 OFFCURVE",
"197 660 OFFCURVE",
"197 640 CURVE SMOOTH",
"197 638 OFFCURVE",
"197 635 OFFCURVE",
"196 632 CURVE SMOOTH",
"81 67 LINE SMOOTH",
"75 42 OFFCURVE",
"55 31 OFFCURVE",
"17 31 CURVE SMOOTH",
"-11 31 LINE",
"-16 0 LINE"
);
},
{
closed = 1;
nodes = (
"400 -114 LINE",
"410 -70 LINE",
"73 -70 LINE",
"63 -114 LINE"
);
}
);
width = 596;
}
);
note = Llinebelow;
rightKerningGroup = L;
unicode = 1E3A;
},
{
glyphname = Lslash;
lastChange = "2015-12-01 11:19:47 +0000";
layers = (
{
layerId = "29476F1E-CD12-4295-B0EC-F6BA1C34E337";
name = "Regular Italic";
paths = (
{
closed = 1;
nodes = (
"521 0 LINE",
"578 193 LINE",
"546 193 LINE",
"533 151 OFFCURVE",
"488 46 OFFCURVE",
"426 46 CURVE SMOOTH",
"249 46 LINE SMOOTH",
"217 46 OFFCURVE",
"199 56 OFFCURVE",
"199 78 CURVE SMOOTH",
"199 82 OFFCURVE",
"199 85 OFFCURVE",
"200 89 CURVE SMOOTH",
"311 632 LINE SMOOTH",
"316 657 OFFCURVE",
"337 669 OFFCURVE",
"373 669 CURVE SMOOTH",
"402 669 LINE",
"408 700 LINE",
"126 700 LINE",
"120 669 LINE",
"148 669 LINE SMOOTH",
"181 669 OFFCURVE",
"197 660 OFFCURVE",
"197 640 CURVE SMOOTH",
"197 638 OFFCURVE",
"197 635 OFFCURVE",
"196 632 CURVE SMOOTH",
"81 67 LINE SMOOTH",
"75 42 OFFCURVE",
"55 31 OFFCURVE",
"17 31 CURVE SMOOTH",
"-11 31 LINE",
"-16 0 LINE"
);
},
{
closed = 1;
nodes = (
"457 379 LINE",
"469 438 LINE",
"53 293 LINE",
"40 233 LINE"
);
}
);
width = 596;
}
);
note = Lslash;
rightKerningGroup = L;
unicode = 0141;
},
{
glyphname = M;
lastChange = "2015-12-01 11:19:42 +0000";
layers = (
{
layerId = "29476F1E-CD12-4295-B0EC-F6BA1C34E337";
name = "Regular Italic";
paths = (
{
closed = 1;
nodes = (
"202 0 LINE",
"207 31 LINE",
"179 31 LINE SMOOTH",
"147 31 OFFCURVE",
"131 39 OFFCURVE",
"131 58 CURVE SMOOTH",
"131 60 OFFCURVE",
"131 64 OFFCURVE",
"132 67 CURVE SMOOTH",
"239 596 LINE",
"353 76 LINE",
"421 76 LINE",
"752 601 LINE",
"643 67 LINE SMOOTH",
"637 42 OFFCURVE",
"617 31 OFFCURVE",
"580 31 CURVE SMOOTH",
"552 31 LINE",
"546 0 LINE",
"828 0 LINE",
"834 31 LINE",
"805 31 LINE SMOOTH",
"773 31 OFFCURVE",
"757 40 OFFCURVE",
"757 59 CURVE SMOOTH",
"757 61 OFFCURVE",
"757 64 OFFCURVE",
"758 67 CURVE SMOOTH",
"874 632 LINE SMOOTH",
"878 657 OFFCURVE",
"900 669 OFFCURVE",
"936 669 CURVE SMOOTH",
"965 669 LINE",
"971 700 LINE",
"758 700 LINE",
"434 179 LINE",
"324 700 LINE",
"123 700 LINE",
"117 669 LINE",
"145 669 LINE SMOOTH",
"178 669 OFFCURVE",
"194 660 OFFCURVE",
"194 640 CURVE SMOOTH",
"194 638 OFFCURVE",
"194 635 OFFCURVE",
"193 632 CURVE SMOOTH",
"78 67 LINE SMOOTH",
"72 42 OFFCURVE",
"52 31 OFFCURVE",
"14 31 CURVE SMOOTH",
"-13 31 LINE",
"-19 0 LINE"
);
}
);
width = 886;
}
);
note = M;
unicode = 004D;
},
{
glyphname = Mdotbelow;
lastChange = "2015-12-01 11:19:46 +0000";
layers = (
{
layerId = "29476F1E-CD12-4295-B0EC-F6BA1C34E337";
name = "Regular Italic";
paths = (
{
closed = 1;
nodes = (
"202 0 LINE",
"207 31 LINE",
"179 31 LINE SMOOTH",
"147 31 OFFCURVE",
"131 39 OFFCURVE",
"131 58 CURVE SMOOTH",
"131 60 OFFCURVE",
"131 64 OFFCURVE",
"132 67 CURVE SMOOTH",
"239 596 LINE",
"353 76 LINE",
"421 76 LINE",
"752 601 LINE",
"643 67 LINE SMOOTH",
"637 42 OFFCURVE",
"617 31 OFFCURVE",
"580 31 CURVE SMOOTH",
"552 31 LINE",
"546 0 LINE",
"828 0 LINE",
"834 31 LINE",
"805 31 LINE SMOOTH",
"773 31 OFFCURVE",
"757 40 OFFCURVE",
"757 59 CURVE SMOOTH",
"757 61 OFFCURVE",
"757 64 OFFCURVE",
"758 67 CURVE SMOOTH",
"874 632 LINE SMOOTH",
"878 657 OFFCURVE",
"900 669 OFFCURVE",
"936 669 CURVE SMOOTH",
"965 669 LINE",
"971 700 LINE",
"758 700 LINE",
"434 179 LINE",
"324 700 LINE",
"123 700 LINE",
"117 669 LINE",
"145 669 LINE SMOOTH",
"178 669 OFFCURVE",
"194 660 OFFCURVE",
"194 640 CURVE SMOOTH",
"194 638 OFFCURVE",
"194 635 OFFCURVE",
"193 632 CURVE SMOOTH",
"78 67 LINE SMOOTH",
"72 42 OFFCURVE",
"52 31 OFFCURVE",
"14 31 CURVE SMOOTH",
"-13 31 LINE",
"-19 0 LINE"
);
},
{
closed = 1;
nodes = (
"405 -170 OFFCURVE",
"432 -141 OFFCURVE",
"432 -104 CURVE SMOOTH",
"432 -80 OFFCURVE",
"417 -64 OFFCURVE",
"392 -64 CURVE SMOOTH",
"361 -64 OFFCURVE",
"336 -87 OFFCURVE",
"329 -118 CURVE SMOOTH",
"328 -122 OFFCURVE",
"328 -125 OFFCURVE",
"328 -129 CURVE SMOOTH",
"328 -153 OFFCURVE",
"343 -170 OFFCURVE",
"370 -170 CURVE SMOOTH"
);
}
);
width = 886;
}
);
note = Mdotbelow;
unicode = 1E42;
},
{
glyphname = N;
lastChange = "2015-12-01 11:19:42 +0000";
layers = (
{
layerId = "29476F1E-CD12-4295-B0EC-F6BA1C34E337";
name = "Regular Italic";
paths = (
{
closed = 1;
nodes = (
"202 0 LINE",
"207 31 LINE",
"179 31 LINE SMOOTH",
"147 31 OFFCURVE",
"131 39 OFFCURVE",
"131 58 CURVE SMOOTH",
"131 60 OFFCURVE",
"131 64 OFFCURVE",
"132 67 CURVE SMOOTH",
"246 629 LINE",
"528 0 LINE",
"593 0 LINE",
"722 632 LINE SMOOTH",
"727 657 OFFCURVE",
"748 669 OFFCURVE",
"784 669 CURVE SMOOTH",
"813 669 LINE",
"819 700 LINE",
"598 700 LINE",
"592 669 LINE",
"620 669 LINE SMOOTH",
"653 669 OFFCURVE",
"669 660 OFFCURVE",
"669 641 CURVE SMOOTH",
"669 638 OFFCURVE",
"669 635 OFFCURVE",
"668 632 CURVE SMOOTH",
"570 151 LINE",
"328 700 LINE",
"123 700 LINE",
"117 669 LINE",
"145 669 LINE SMOOTH",
"178 669 OFFCURVE",
"194 660 OFFCURVE",
"194 640 CURVE SMOOTH",
"194 638 OFFCURVE",
"194 635 OFFCURVE",
"193 632 CURVE SMOOTH",
"78 67 LINE SMOOTH",
"72 42 OFFCURVE",
"52 31 OFFCURVE",
"14 31 CURVE SMOOTH",
"-13 31 LINE",
"-19 0 LINE"
);
}
);
width = 734;
}
);
note = N;
unicode = 004E;
},
{
glyphname = Nacute;
lastChange = "2015-12-01 11:19:47 +0000";
layers = (
{
layerId = "29476F1E-CD12-4295-B0EC-F6BA1C34E337";
name = "Regular Italic";
paths = (
{
closed = 1;
nodes = (
"202 0 LINE",
"207 31 LINE",
"179 31 LINE SMOOTH",
"147 31 OFFCURVE",
"131 39 OFFCURVE",
"131 58 CURVE SMOOTH",
"131 60 OFFCURVE",
"131 64 OFFCURVE",
"132 67 CURVE SMOOTH",
"246 629 LINE",
"528 0 LINE",
"593 0 LINE",
"722 632 LINE SMOOTH",
"727 657 OFFCURVE",
"748 669 OFFCURVE",
"784 669 CURVE SMOOTH",
"813 669 LINE",
"819 700 LINE",
"598 700 LINE",
"592 669 LINE",
"620 669 LINE SMOOTH",
"653 669 OFFCURVE",
"669 660 OFFCURVE",
"669 641 CURVE SMOOTH",
"669 638 OFFCURVE",
"669 635 OFFCURVE",
"668 632 CURVE SMOOTH",
"570 151 LINE",
"328 700 LINE",
"123 700 LINE",
"117 669 LINE",
"145 669 LINE SMOOTH",
"178 669 OFFCURVE",
"194 660 OFFCURVE",
"194 640 CURVE SMOOTH",
"194 638 OFFCURVE",
"194 635 OFFCURVE",
"193 632 CURVE SMOOTH",
"78 67 LINE SMOOTH",
"72 42 OFFCURVE",
"52 31 OFFCURVE",
"14 31 CURVE SMOOTH",
"-13 31 LINE",
"-19 0 LINE"
);
},
{
closed = 1;
nodes = (
"588 867 LINE SMOOTH",
"618 883 OFFCURVE",
"637 900 OFFCURVE",
"637 923 CURVE SMOOTH",
"637 938 OFFCURVE",
"628 951 OFFCURVE",
"606 951 CURVE SMOOTH",
"583 951 OFFCURVE",
"561 932 OFFCURVE",
"551 924 CURVE SMOOTH",
"415 810 LINE",
"428 780 LINE"
);
}
);
width = 734;
}
);
note = Nacute;
unicode = 0143;
},
{
glyphname = Ncaron;
lastChange = "2015-12-01 11:19:46 +0000";
layers = (
{
layerId = "29476F1E-CD12-4295-B0EC-F6BA1C34E337";
name = "Regular Italic";
paths = (
{
closed = 1;
nodes = (
"202 0 LINE",
"207 31 LINE",
"179 31 LINE SMOOTH",
"147 31 OFFCURVE",
"131 39 OFFCURVE",
"131 58 CURVE SMOOTH",
"131 60 OFFCURVE",
"131 64 OFFCURVE",
"132 67 CURVE SMOOTH",
"246 629 LINE",
"528 0 LINE",
"593 0 LINE",
"722 632 LINE SMOOTH",
"727 657 OFFCURVE",
"748 669 OFFCURVE",
"784 669 CURVE SMOOTH",
"813 669 LINE",
"819 700 LINE",
"598 700 LINE",
"592 669 LINE",
"620 669 LINE SMOOTH",
"653 669 OFFCURVE",
"669 660 OFFCURVE",
"669 641 CURVE SMOOTH",
"669 638 OFFCURVE",
"669 635 OFFCURVE",
"668 632 CURVE SMOOTH",
"570 151 LINE",
"328 700 LINE",
"123 700 LINE",
"117 669 LINE",
"145 669 LINE SMOOTH",
"178 669 OFFCURVE",
"194 660 OFFCURVE",
"194 640 CURVE SMOOTH",
"194 638 OFFCURVE",
"194 635 OFFCURVE",
"193 632 CURVE SMOOTH",
"78 67 LINE SMOOTH",
"72 42 OFFCURVE",
"52 31 OFFCURVE",
"14 31 CURVE SMOOTH",
"-13 31 LINE",
"-19 0 LINE"
);
},
{
closed = 1;
nodes = (
"515 781 LINE",
"669 921 LINE",
"654 944 LINE",
"525 855 LINE SMOOTH",
"515 848 OFFCURVE",
"504 842 OFFCURVE",
"497 842 CURVE SMOOTH",
"491 842 OFFCURVE",
"482 848 OFFCURVE",
"472 855 CURVE",
"380 944 LINE",
"357 921 LINE",
"455 781 LINE"
);
}
);
width = 734;
}
);
note = Ncaron;
unicode = 0147;
},
{
glyphname = Ncommaaccent;
lastChange = "2015-12-01 11:19:46 +0000";
layers = (
{
layerId = "29476F1E-CD12-4295-B0EC-F6BA1C34E337";
name = "Regular Italic";
paths = (
{
closed = 1;
nodes = (
"202 0 LINE",
"207 31 LINE",
"179 31 LINE SMOOTH",
"147 31 OFFCURVE",
"131 39 OFFCURVE",
"131 58 CURVE SMOOTH",
"131 60 OFFCURVE",
"131 64 OFFCURVE",
"132 67 CURVE SMOOTH",
"246 629 LINE",
"528 0 LINE",
"593 0 LINE",
"722 632 LINE SMOOTH",
"727 657 OFFCURVE",
"748 669 OFFCURVE",
"784 669 CURVE SMOOTH",
"813 669 LINE",
"819 700 LINE",
"598 700 LINE",
"592 669 LINE",
"620 669 LINE SMOOTH",
"653 669 OFFCURVE",
"669 660 OFFCURVE",
"669 641 CURVE SMOOTH",
"669 638 OFFCURVE",
"669 635 OFFCURVE",
"668 632 CURVE SMOOTH",
"570 151 LINE",
"328 700 LINE",
"123 700 LINE",
"117 669 LINE",
"145 669 LINE SMOOTH",
"178 669 OFFCURVE",
"194 660 OFFCURVE",
"194 640 CURVE SMOOTH",
"194 638 OFFCURVE",
"194 635 OFFCURVE",
"193 632 CURVE SMOOTH",
"78 67 LINE SMOOTH",
"72 42 OFFCURVE",
"52 31 OFFCURVE",
"14 31 CURVE SMOOTH",
"-13 31 LINE",
"-19 0 LINE"
);
},
{
closed = 1;
nodes = (
"265 -279 OFFCURVE",
"328 -213 OFFCURVE",
"343 -145 CURVE SMOOTH",
"345 -136 OFFCURVE",
"346 -128 OFFCURVE",
"346 -121 CURVE SMOOTH",
"346 -86 OFFCURVE",
"327 -69 OFFCURVE",
"300 -69 CURVE SMOOTH",
"266 -69 OFFCURVE",
"238 -96 OFFCURVE",
"238 -127 CURVE SMOOTH",
"238 -153 OFFCURVE",
"259 -165 OFFCURVE",
"259 -190 CURVE SMOOTH",
"259 -193 OFFCURVE",
"259 -197 OFFCURVE",
"258 -201 CURVE SMOOTH",
"251 -239 OFFCURVE",
"218 -273 OFFCURVE",
"185 -302 CURVE",
"200 -321 LINE"
);
}
);
width = 734;
}
);
note = Ncommaaccent;
unicode = 0145;
},
{
glyphname = Ndotaccent;
lastChange = "2015-12-01 11:19:46 +0000";
layers = (
{
layerId = "29476F1E-CD12-4295-B0EC-F6BA1C34E337";
name = "Regular Italic";
paths = (
{
closed = 1;
nodes = (
"202 0 LINE",
"207 31 LINE",
"179 31 LINE SMOOTH",
"147 31 OFFCURVE",
"131 39 OFFCURVE",
"131 58 CURVE SMOOTH",
"131 60 OFFCURVE",
"131 64 OFFCURVE",
"132 67 CURVE SMOOTH",
"246 629 LINE",
"528 0 LINE",
"593 0 LINE",
"722 632 LINE SMOOTH",
"727 657 OFFCURVE",
"748 669 OFFCURVE",
"784 669 CURVE SMOOTH",
"813 669 LINE",
"819 700 LINE",
"598 700 LINE",
"592 669 LINE",
"620 669 LINE SMOOTH",
"653 669 OFFCURVE",
"669 660 OFFCURVE",
"669 641 CURVE SMOOTH",
"669 638 OFFCURVE",
"669 635 OFFCURVE",
"668 632 CURVE SMOOTH",
"570 151 LINE",
"328 700 LINE",
"123 700 LINE",
"117 669 LINE",
"145 669 LINE SMOOTH",
"178 669 OFFCURVE",
"194 660 OFFCURVE",
"194 640 CURVE SMOOTH",
"194 638 OFFCURVE",
"194 635 OFFCURVE",
"193 632 CURVE SMOOTH",
"78 67 LINE SMOOTH",
"72 42 OFFCURVE",
"52 31 OFFCURVE",
"14 31 CURVE SMOOTH",
"-13 31 LINE",
"-19 0 LINE"
);
},
{
closed = 1;
nodes = (
"515 767 OFFCURVE",
"538 789 OFFCURVE",
"544 819 CURVE",
"545 824 OFFCURVE",
"545 828 OFFCURVE",
"545 832 CURVE SMOOTH",
"545 856 OFFCURVE",
"531 872 OFFCURVE",
"505 872 CURVE SMOOTH",
"474 872 OFFCURVE",
"450 850 OFFCURVE",
"444 819 CURVE",
"443 815 OFFCURVE",
"443 810 OFFCURVE",
"443 806 CURVE SMOOTH",
"443 783 OFFCURVE",
"458 767 OFFCURVE",
"484 767 CURVE SMOOTH"
);
}
);
width = 734;
}
);
note = Ndotaccent;
unicode = 1E44;
},
{
glyphname = Ndotbelow;
lastChange = "2015-12-01 11:23:07 +0000";
layers = (
{
layerId = "29476F1E-CD12-4295-B0EC-F6BA1C34E337";
name = "Regular Italic";
paths = (
{
closed = 1;
nodes = (
"202 0 LINE",
"207 31 LINE",
"179 31 LINE SMOOTH",
"147 31 OFFCURVE",
"131 39 OFFCURVE",
"131 58 CURVE SMOOTH",
"131 60 OFFCURVE",
"131 64 OFFCURVE",
"132 67 CURVE SMOOTH",
"246 629 LINE",
"528 0 LINE",
"593 0 LINE",
"722 632 LINE SMOOTH",
"727 657 OFFCURVE",
"748 669 OFFCURVE",
"784 669 CURVE SMOOTH",
"813 669 LINE",
"819 700 LINE",
"598 700 LINE",
"592 669 LINE",
"620 669 LINE SMOOTH",
"653 669 OFFCURVE",
"669 660 OFFCURVE",
"669 641 CURVE SMOOTH",
"669 638 OFFCURVE",
"669 635 OFFCURVE",
"668 632 CURVE SMOOTH",
"570 151 LINE",
"328 700 LINE",
"123 700 LINE",
"117 669 LINE",
"145 669 LINE SMOOTH",
"178 669 OFFCURVE",
"194 660 OFFCURVE",
"194 640 CURVE SMOOTH",
"194 638 OFFCURVE",
"194 635 OFFCURVE",
"193 632 CURVE SMOOTH",
"78 67 LINE SMOOTH",
"72 42 OFFCURVE",
"52 31 OFFCURVE",
"14 31 CURVE SMOOTH",
"-13 31 LINE",
"-19 0 LINE"
);
},
{
closed = 1;
nodes = (
"337 -170 OFFCURVE",
"364 -141 OFFCURVE",
"364 -104 CURVE SMOOTH",
"364 -80 OFFCURVE",
"349 -64 OFFCURVE",
"324 -64 CURVE SMOOTH",
"293 -64 OFFCURVE",
"268 -87 OFFCURVE",
"261 -118 CURVE SMOOTH",
"260 -122 OFFCURVE",
"260 -126 OFFCURVE",
"260 -130 CURVE SMOOTH",
"260 -154 OFFCURVE",
"275 -170 OFFCURVE",
"301 -170 CURVE SMOOTH"
);
}
);
width = 734;
}
);
note = uni1E46;
unicode = 1E46;
},
{
glyphname = Eng;
lastChange = "2015-12-01 11:19:42 +0000";
layers = (
{
layerId = "29476F1E-CD12-4295-B0EC-F6BA1C34E337";
name = "Regular Italic";
paths = (
{
closed = 1;
nodes = (
"473 -272 OFFCURVE",
"552 -198 OFFCURVE",
"584 -43 CURVE SMOOTH",
"722 632 LINE SMOOTH",
"727 657 OFFCURVE",
"748 669 OFFCURVE",
"784 669 CURVE SMOOTH",
"813 669 LINE",
"819 700 LINE",
"598 700 LINE",
"592 669 LINE",
"620 669 LINE SMOOTH",
"653 669 OFFCURVE",
"669 660 OFFCURVE",
"669 641 CURVE SMOOTH",
"669 638 OFFCURVE",
"669 635 OFFCURVE",
"668 632 CURVE SMOOTH",
"570 151 LINE",
"328 700 LINE",
"123 700 LINE",
"117 669 LINE",
"145 669 LINE SMOOTH",
"178 669 OFFCURVE",
"194 660 OFFCURVE",
"194 640 CURVE SMOOTH",
"194 638 OFFCURVE",
"194 635 OFFCURVE",
"193 632 CURVE SMOOTH",
"78 67 LINE SMOOTH",
"72 42 OFFCURVE",
"57 31 OFFCURVE",
"14 31 CURVE SMOOTH",
"-13 31 LINE",
"-19 0 LINE",
"202 0 LINE",
"207 31 LINE",
"179 31 LINE SMOOTH",
"147 31 OFFCURVE",
"131 39 OFFCURVE",
"131 58 CURVE SMOOTH",
"131 60 OFFCURVE",
"131 64 OFFCURVE",
"132 67 CURVE SMOOTH",
"247 635 LINE",
"528 0 LINE",
"511 -80 LINE SMOOTH",
"491 -179 OFFCURVE",
"397 -247 OFFCURVE",
"308 -251 CURVE",
"307 -279 LINE"
);
}
);
width = 734;
}
);
note = Eng;
unicode = 014A;
},
{
glyphname = Nlinebelow;
lastChange = "2015-12-01 11:19:47 +0000";
layers = (
{
layerId = "29476F1E-CD12-4295-B0EC-F6BA1C34E337";
name = "Regular Italic";
paths = (
{
closed = 1;
nodes = (
"202 0 LINE",
"207 31 LINE",
"179 31 LINE SMOOTH",
"147 31 OFFCURVE",
"131 39 OFFCURVE",
"131 58 CURVE SMOOTH",
"131 60 OFFCURVE",
"131 64 OFFCURVE",
"132 67 CURVE SMOOTH",
"246 629 LINE",
"528 0 LINE",
"593 0 LINE",
"722 632 LINE SMOOTH",
"727 657 OFFCURVE",
"748 669 OFFCURVE",
"784 669 CURVE SMOOTH",
"813 669 LINE",
"819 700 LINE",
"598 700 LINE",
"592 669 LINE",
"620 669 LINE SMOOTH",
"653 669 OFFCURVE",
"669 660 OFFCURVE",
"669 641 CURVE SMOOTH",
"669 638 OFFCURVE",
"669 635 OFFCURVE",
"668 632 CURVE SMOOTH",
"570 151 LINE",
"328 700 LINE",
"123 700 LINE",
"117 669 LINE",
"145 669 LINE SMOOTH",
"178 669 OFFCURVE",
"194 660 OFFCURVE",
"194 640 CURVE SMOOTH",
"194 638 OFFCURVE",
"194 635 OFFCURVE",
"193 632 CURVE SMOOTH",
"78 67 LINE SMOOTH",
"72 42 OFFCURVE",
"52 31 OFFCURVE",
"14 31 CURVE SMOOTH",
"-13 31 LINE",
"-19 0 LINE"
);
},
{
closed = 1;
nodes = (
"472 -114 LINE",
"482 -70 LINE",
"145 -70 LINE",
"135 -114 LINE"
);
}
);
width = 734;
}
);
note = Nlinebelow;
unicode = 1E48;
},
{
glyphname = Ntilde;
lastChange = "2015-12-01 11:19:46 +0000";
layers = (
{
layerId = "29476F1E-CD12-4295-B0EC-F6BA1C34E337";
name = "Regular Italic";
paths = (
{
closed = 1;
nodes = (
"202 0 LINE",
"207 31 LINE",
"179 31 LINE SMOOTH",
"147 31 OFFCURVE",
"131 39 OFFCURVE",
"131 58 CURVE SMOOTH",
"131 60 OFFCURVE",
"131 64 OFFCURVE",
"132 67 CURVE SMOOTH",
"246 629 LINE",
"528 0 LINE",
"593 0 LINE",
"722 632 LINE SMOOTH",
"727 657 OFFCURVE",
"748 669 OFFCURVE",
"784 669 CURVE SMOOTH",
"813 669 LINE",
"819 700 LINE",
"598 700 LINE",
"592 669 LINE",
"620 669 LINE SMOOTH",
"653 669 OFFCURVE",
"669 660 OFFCURVE",
"669 641 CURVE SMOOTH",
"669 638 OFFCURVE",
"669 635 OFFCURVE",
"668 632 CURVE SMOOTH",
"570 151 LINE",
"328 700 LINE",
"123 700 LINE",
"117 669 LINE",
"145 669 LINE SMOOTH",
"178 669 OFFCURVE",
"194 660 OFFCURVE",
"194 640 CURVE SMOOTH",
"194 638 OFFCURVE",
"194 635 OFFCURVE",
"193 632 CURVE SMOOTH",
"78 67 LINE SMOOTH",
"72 42 OFFCURVE",
"52 31 OFFCURVE",
"14 31 CURVE SMOOTH",
"-13 31 LINE",
"-19 0 LINE"
);
},
{
closed = 1;
nodes = (
"372 817 OFFCURVE",
"393 837 OFFCURVE",
"425 837 CURVE SMOOTH",
"477 837 OFFCURVE",
"516 785 OFFCURVE",
"567 785 CURVE SMOOTH",
"628 785 OFFCURVE",
"668 840 OFFCURVE",
"692 890 CURVE",
"672 903 LINE",
"648 863 OFFCURVE",
"629 842 OFFCURVE",
"595 842 CURVE SMOOTH",
"544 842 OFFCURVE",
"503 893 OFFCURVE",
"451 893 CURVE SMOOTH",
"394 893 OFFCURVE",
"350 841 OFFCURVE",
"328 791 CURVE",
"348 778 LINE"
);
}
);
width = 734;
}
);
note = Ntilde;
unicode = 00D1;
},
{
glyphname = O;
lastChange = "2015-12-01 11:19:45 +0000";
layers = (
{
layerId = "29476F1E-CD12-4295-B0EC-F6BA1C34E337";
name = "Regular Italic";
paths = (
{
closed = 1;
nodes = (
"554 -10 OFFCURVE",
"694 127 OFFCURVE",
"740 350 CURVE SMOOTH",
"748 388 OFFCURVE",
"752 424 OFFCURVE",
"752 457 CURVE SMOOTH",
"752 616 OFFCURVE",
"662 710 OFFCURVE",
"476 710 CURVE SMOOTH",
"252 710 OFFCURVE",
"111 572 OFFCURVE",
"66 350 CURVE SMOOTH",
"58 311 OFFCURVE",
"54 275 OFFCURVE",
"54 241 CURVE SMOOTH",
"54 83 OFFCURVE",
"144 -10 OFFCURVE",
"329 -10 CURVE SMOOTH"
);
},
{
closed = 1;
nodes = (
"224 38 OFFCURVE",
"170 113 OFFCURVE",
"170 237 CURVE SMOOTH",
"170 271 OFFCURVE",
"174 309 OFFCURVE",
"182 350 CURVE SMOOTH",
"221 540 OFFCURVE",
"320 663 OFFCURVE",
"466 663 CURVE SMOOTH",
"581 663 OFFCURVE",
"636 587 OFFCURVE",
"636 463 CURVE SMOOTH",
"636 429 OFFCURVE",
"632 391 OFFCURVE",
"624 350 CURVE SMOOTH",
"586 160 OFFCURVE",
"487 38 OFFCURVE",
"339 38 CURVE SMOOTH"
);
}
);
width = 741;
}
);
leftKerningGroup = O;
note = O;
rightKerningGroup = O;
unicode = 004F;
},
{
glyphname = Oacute;
lastChange = "2015-12-01 11:19:47 +0000";
layers = (
{
layerId = "29476F1E-CD12-4295-B0EC-F6BA1C34E337";
name = "Regular Italic";
paths = (
{
closed = 1;
nodes = (
"554 -10 OFFCURVE",
"694 127 OFFCURVE",
"740 350 CURVE SMOOTH",
"748 388 OFFCURVE",
"752 424 OFFCURVE",
"752 457 CURVE SMOOTH",
"752 616 OFFCURVE",
"662 710 OFFCURVE",
"476 710 CURVE SMOOTH",
"252 710 OFFCURVE",
"111 572 OFFCURVE",
"66 350 CURVE SMOOTH",
"58 311 OFFCURVE",
"54 275 OFFCURVE",
"54 241 CURVE SMOOTH",
"54 83 OFFCURVE",
"144 -10 OFFCURVE",
"329 -10 CURVE SMOOTH"
);
},
{
closed = 1;
nodes = (
"224 38 OFFCURVE",
"170 113 OFFCURVE",
"170 237 CURVE SMOOTH",
"170 271 OFFCURVE",
"174 309 OFFCURVE",
"182 350 CURVE SMOOTH",
"221 540 OFFCURVE",
"320 663 OFFCURVE",
"466 663 CURVE SMOOTH",
"581 663 OFFCURVE",
"636 587 OFFCURVE",
"636 463 CURVE SMOOTH",
"636 429 OFFCURVE",
"632 391 OFFCURVE",
"624 350 CURVE SMOOTH",
"586 160 OFFCURVE",
"487 38 OFFCURVE",
"339 38 CURVE SMOOTH"
);
},
{
closed = 1;
nodes = (
"571 867 LINE SMOOTH",
"602 883 OFFCURVE",
"619 900 OFFCURVE",
"619 924 CURVE SMOOTH",
"619 938 OFFCURVE",
"610 951 OFFCURVE",
"588 951 CURVE SMOOTH",
"565 951 OFFCURVE",
"543 932 OFFCURVE",
"534 924 CURVE SMOOTH",
"397 810 LINE",
"411 780 LINE"
);
}
);
width = 741;
}
);
leftKerningGroup = O;
note = Oacute;
rightKerningGroup = O;
unicode = 00D3;
},
{
glyphname = Obreve;
lastChange = "2015-12-01 11:19:47 +0000";
layers = (
{
layerId = "29476F1E-CD12-4295-B0EC-F6BA1C34E337";
name = "Regular Italic";
paths = (
{
closed = 1;
nodes = (
"554 -10 OFFCURVE",
"694 127 OFFCURVE",
"740 350 CURVE SMOOTH",
"748 388 OFFCURVE",
"752 424 OFFCURVE",
"752 457 CURVE SMOOTH",
"752 616 OFFCURVE",
"662 710 OFFCURVE",
"476 710 CURVE SMOOTH",
"252 710 OFFCURVE",
"111 572 OFFCURVE",
"66 350 CURVE SMOOTH",
"58 311 OFFCURVE",
"54 275 OFFCURVE",
"54 241 CURVE SMOOTH",
"54 83 OFFCURVE",
"144 -10 OFFCURVE",
"329 -10 CURVE SMOOTH"
);
},
{
closed = 1;
nodes = (
"224 38 OFFCURVE",
"170 113 OFFCURVE",
"170 237 CURVE SMOOTH",
"170 271 OFFCURVE",
"174 309 OFFCURVE",
"182 350 CURVE SMOOTH",
"221 540 OFFCURVE",
"320 663 OFFCURVE",
"466 663 CURVE SMOOTH",
"581 663 OFFCURVE",
"636 587 OFFCURVE",
"636 463 CURVE SMOOTH",
"636 429 OFFCURVE",
"632 391 OFFCURVE",
"624 350 CURVE SMOOTH",
"586 160 OFFCURVE",
"487 38 OFFCURVE",
"339 38 CURVE SMOOTH"
);
},
{
closed = 1;
nodes = (
"594 775 OFFCURVE",
"644 838 OFFCURVE",
"662 912 CURVE",
"628 912 LINE",
"612 860 OFFCURVE",
"570 829 OFFCURVE",
"500 829 CURVE SMOOTH",
"431 829 OFFCURVE",
"400 860 OFFCURVE",
"405 912 CURVE",
"372 912 LINE",
"370 900 OFFCURVE",
"369 888 OFFCURVE",
"369 877 CURVE SMOOTH",
"369 818 OFFCURVE",
"401 775 OFFCURVE",
"490 775 CURVE SMOOTH"
);
}
);
width = 741;
}
);
leftKerningGroup = O;
note = Obreve;
rightKerningGroup = O;
unicode = 014E;
},
{
glyphname = Ocaron;
lastChange = "2015-12-01 11:19:47 +0000";
layers = (
{
layerId = "29476F1E-CD12-4295-B0EC-F6BA1C34E337";
name = "Regular Italic";
paths = (
{
closed = 1;
nodes = (
"554 -10 OFFCURVE",
"694 127 OFFCURVE",
"740 350 CURVE SMOOTH",
"748 388 OFFCURVE",
"752 424 OFFCURVE",
"752 457 CURVE SMOOTH",
"752 616 OFFCURVE",
"662 710 OFFCURVE",
"476 710 CURVE SMOOTH",
"252 710 OFFCURVE",
"111 572 OFFCURVE",
"66 350 CURVE SMOOTH",
"58 311 OFFCURVE",
"54 275 OFFCURVE",
"54 241 CURVE SMOOTH",
"54 83 OFFCURVE",
"144 -10 OFFCURVE",
"329 -10 CURVE SMOOTH"
);
},
{
closed = 1;
nodes = (
"224 38 OFFCURVE",
"170 113 OFFCURVE",
"170 237 CURVE SMOOTH",
"170 271 OFFCURVE",
"174 309 OFFCURVE",
"182 350 CURVE SMOOTH",
"221 540 OFFCURVE",
"320 663 OFFCURVE",
"466 663 CURVE SMOOTH",
"581 663 OFFCURVE",
"636 587 OFFCURVE",
"636 463 CURVE SMOOTH",
"636 429 OFFCURVE",
"632 391 OFFCURVE",
"624 350 CURVE SMOOTH",
"586 160 OFFCURVE",
"487 38 OFFCURVE",
"339 38 CURVE SMOOTH"
);
},
{
closed = 1;
nodes = (
"520 781 LINE",
"675 921 LINE",
"660 944 LINE",
"531 855 LINE SMOOTH",
"520 848 OFFCURVE",
"510 842 OFFCURVE",
"503 842 CURVE SMOOTH",
"496 842 OFFCURVE",
"488 848 OFFCURVE",
"478 855 CURVE",
"386 944 LINE",
"363 921 LINE",
"461 781 LINE"
);
}
);
width = 741;
}
);
leftKerningGroup = O;
note = Ocaron;
rightKerningGroup = O;
unicode = 01D1;
},
{
glyphname = Ocircumflex;
lastChange = "2015-12-01 11:19:46 +0000";
layers = (
{
layerId = "29476F1E-CD12-4295-B0EC-F6BA1C34E337";
name = "Regular Italic";
paths = (
{
closed = 1;
nodes = (
"554 -10 OFFCURVE",
"694 127 OFFCURVE",
"740 350 CURVE SMOOTH",
"748 388 OFFCURVE",
"752 424 OFFCURVE",
"752 457 CURVE SMOOTH",
"752 616 OFFCURVE",
"662 710 OFFCURVE",
"476 710 CURVE SMOOTH",
"252 710 OFFCURVE",
"111 572 OFFCURVE",
"66 350 CURVE SMOOTH",
"58 311 OFFCURVE",
"54 275 OFFCURVE",
"54 241 CURVE SMOOTH",
"54 83 OFFCURVE",
"144 -10 OFFCURVE",
"329 -10 CURVE SMOOTH"
);
},
{
closed = 1;
nodes = (
"224 38 OFFCURVE",
"170 113 OFFCURVE",
"170 237 CURVE SMOOTH",
"170 271 OFFCURVE",
"174 309 OFFCURVE",
"182 350 CURVE SMOOTH",
"221 540 OFFCURVE",
"320 663 OFFCURVE",
"466 663 CURVE SMOOTH",
"581 663 OFFCURVE",
"636 587 OFFCURVE",
"636 463 CURVE SMOOTH",
"636 429 OFFCURVE",
"632 391 OFFCURVE",
"624 350 CURVE SMOOTH",
"586 160 OFFCURVE",
"487 38 OFFCURVE",
"339 38 CURVE SMOOTH"
);
},
{
closed = 1;
nodes = (
"481 870 LINE SMOOTH",
"492 878 OFFCURVE",
"504 883 OFFCURVE",
"511 883 CURVE SMOOTH",
"517 883 OFFCURVE",
"526 877 OFFCURVE",
"534 870 CURVE SMOOTH",
"627 781 LINE",
"651 804 LINE",
"553 944 LINE",
"493 944 LINE",
"339 804 LINE",
"354 781 LINE"
);
}
);
width = 741;
}
);
leftKerningGroup = O;
note = Ocircumflex;
rightKerningGroup = O;
unicode = 00D4;
},
{
glyphname = Ocircumflexacute;
lastChange = "2015-12-01 11:19:47 +0000";
layers = (
{
layerId = "29476F1E-CD12-4295-B0EC-F6BA1C34E337";
name = "Regular Italic";
paths = (
{
closed = 1;
nodes = (
"554 -10 OFFCURVE",
"694 127 OFFCURVE",
"740 350 CURVE SMOOTH",
"748 388 OFFCURVE",
"752 424 OFFCURVE",
"752 457 CURVE SMOOTH",
"752 616 OFFCURVE",
"662 710 OFFCURVE",
"476 710 CURVE SMOOTH",
"252 710 OFFCURVE",
"111 572 OFFCURVE",
"66 350 CURVE SMOOTH",
"58 311 OFFCURVE",
"54 275 OFFCURVE",
"54 241 CURVE SMOOTH",
"54 83 OFFCURVE",
"144 -10 OFFCURVE",
"329 -10 CURVE SMOOTH"
);
},
{
closed = 1;
nodes = (
"224 38 OFFCURVE",
"170 113 OFFCURVE",
"170 237 CURVE SMOOTH",
"170 271 OFFCURVE",
"174 309 OFFCURVE",
"182 350 CURVE SMOOTH",
"221 540 OFFCURVE",
"320 663 OFFCURVE",
"466 663 CURVE SMOOTH",
"581 663 OFFCURVE",
"636 587 OFFCURVE",
"636 463 CURVE SMOOTH",
"636 429 OFFCURVE",
"632 391 OFFCURVE",
"624 350 CURVE SMOOTH",
"586 160 OFFCURVE",
"487 38 OFFCURVE",
"339 38 CURVE SMOOTH"
);
},
{
closed = 1;
nodes = (
"474 861 LINE SMOOTH",
"488 871 OFFCURVE",
"501 881 OFFCURVE",
"511 881 CURVE SMOOTH",
"517 881 OFFCURVE",
"525 875 OFFCURVE",
"533 868 CURVE",
"623 779 LINE",
"646 802 LINE",
"552 942 LINE",
"494 942 LINE",
"342 802 LINE",
"356 779 LINE"
);
},
{
closed = 1;
nodes = (
"759 962 LINE SMOOTH",
"791 978 OFFCURVE",
"812 998 OFFCURVE",
"812 1018 CURVE SMOOTH",
"812 1033 OFFCURVE",
"803 1049 OFFCURVE",
"780 1049 CURVE SMOOTH",
"758 1049 OFFCURVE",
"736 1030 OFFCURVE",
"723 1018 CURVE SMOOTH",
"616 924 LINE",
"630 897 LINE"
);
}
);
width = 741;
}
);
leftKerningGroup = O;
note = Ocircumflexacute;
rightKerningGroup = O;
unicode = 1ED0;
},
{
glyphname = Ocircumflexdotbelow;
lastChange = "2015-12-01 11:23:13 +0000";
layers = (
{
layerId = "29476F1E-CD12-4295-B0EC-F6BA1C34E337";
name = "Regular Italic";
paths = (
{
closed = 1;
nodes = (
"54 83 OFFCURVE",
"144 -10 OFFCURVE",
"329 -10 CURVE SMOOTH",
"554 -10 OFFCURVE",
"694 127 OFFCURVE",
"740 350 CURVE SMOOTH",
"748 388 OFFCURVE",
"752 424 OFFCURVE",
"752 457 CURVE SMOOTH",
"752 616 OFFCURVE",
"662 710 OFFCURVE",
"476 710 CURVE SMOOTH",
"252 710 OFFCURVE",
"111 572 OFFCURVE",
"66 350 CURVE SMOOTH",
"58 311 OFFCURVE",
"54 275 OFFCURVE",
"54 241 CURVE SMOOTH"
);
},
{
closed = 1;
nodes = (
"170 271 OFFCURVE",
"174 309 OFFCURVE",
"182 350 CURVE SMOOTH",
"221 540 OFFCURVE",
"320 663 OFFCURVE",
"466 663 CURVE SMOOTH",
"581 663 OFFCURVE",
"636 587 OFFCURVE",
"636 463 CURVE SMOOTH",
"636 429 OFFCURVE",
"632 391 OFFCURVE",
"624 350 CURVE SMOOTH",
"586 160 OFFCURVE",
"487 38 OFFCURVE",
"339 38 CURVE SMOOTH",
"224 38 OFFCURVE",
"170 113 OFFCURVE",
"170 237 CURVE SMOOTH"
);
},
{
closed = 1;
nodes = (
"246 -154 OFFCURVE",
"261 -170 OFFCURVE",
"287 -170 CURVE SMOOTH",
"322 -170 OFFCURVE",
"349 -141 OFFCURVE",
"349 -104 CURVE SMOOTH",
"349 -81 OFFCURVE",
"335 -64 OFFCURVE",
"309 -64 CURVE SMOOTH",
"274 -64 OFFCURVE",
"246 -93 OFFCURVE",
"246 -131 CURVE SMOOTH"
);
},
{
closed = 1;
nodes = (
"354 781 LINE",
"481 870 LINE SMOOTH",
"492 878 OFFCURVE",
"504 883 OFFCURVE",
"511 883 CURVE SMOOTH",
"517 883 OFFCURVE",
"526 877 OFFCURVE",
"534 870 CURVE",
"627 781 LINE",
"651 804 LINE",
"553 944 LINE",
"493 944 LINE",
"339 804 LINE"
);
}
);
width = 741;
}
);
leftKerningGroup = O;
note = Ocircumflexdotbelow;
rightKerningGroup = O;
unicode = 1ED8;
},
{
glyphname = Ocircumflexgrave;
lastChange = "2015-12-01 11:19:46 +0000";
layers = (
{
layerId = "29476F1E-CD12-4295-B0EC-F6BA1C34E337";
name = "Regular Italic";
paths = (
{
closed = 1;
nodes = (
"554 -10 OFFCURVE",
"694 127 OFFCURVE",
"740 350 CURVE SMOOTH",
"748 388 OFFCURVE",
"752 424 OFFCURVE",
"752 457 CURVE SMOOTH",
"752 616 OFFCURVE",
"662 710 OFFCURVE",
"476 710 CURVE SMOOTH",
"252 710 OFFCURVE",
"111 572 OFFCURVE",
"66 350 CURVE SMOOTH",
"58 311 OFFCURVE",
"54 275 OFFCURVE",
"54 241 CURVE SMOOTH",
"54 83 OFFCURVE",
"144 -10 OFFCURVE",
"329 -10 CURVE SMOOTH"
);
},
{
closed = 1;
nodes = (
"224 38 OFFCURVE",
"170 113 OFFCURVE",
"170 237 CURVE SMOOTH",
"170 271 OFFCURVE",
"174 309 OFFCURVE",
"182 350 CURVE SMOOTH",
"221 540 OFFCURVE",
"320 663 OFFCURVE",
"466 663 CURVE SMOOTH",
"581 663 OFFCURVE",
"636 587 OFFCURVE",
"636 463 CURVE SMOOTH",
"636 429 OFFCURVE",
"632 391 OFFCURVE",
"624 350 CURVE SMOOTH",
"586 160 OFFCURVE",
"487 38 OFFCURVE",
"339 38 CURVE SMOOTH"
);
},
{
closed = 1;
nodes = (
"426 924 LINE",
"357 1018 LINE",
"349 1030 OFFCURVE",
"335 1049 OFFCURVE",
"313 1049 CURVE SMOOTH",
"283 1049 OFFCURVE",
"266 1021 OFFCURVE",
"266 1005 CURVE SMOOTH",
"266 989 OFFCURVE",
"278 974 OFFCURVE",
"298 962 CURVE SMOOTH",
"400 897 LINE"
);
},
{
closed = 1;
nodes = (
"474 861 LINE SMOOTH",
"488 871 OFFCURVE",
"501 881 OFFCURVE",
"511 881 CURVE SMOOTH",
"517 881 OFFCURVE",
"525 875 OFFCURVE",
"533 868 CURVE",
"623 779 LINE",
"646 802 LINE",
"552 942 LINE",
"494 942 LINE",
"342 802 LINE",
"356 779 LINE"
);
}
);
width = 741;
}
);
leftKerningGroup = O;
note = Ocircumflexgrave;
rightKerningGroup = O;
unicode = 1ED2;
},
{
glyphname = Ocircumflexhookabove;
lastChange = "2015-12-01 11:19:47 +0000";
layers = (
{
layerId = "29476F1E-CD12-4295-B0EC-F6BA1C34E337";
name = "Regular Italic";
paths = (
{
closed = 1;
nodes = (
"554 -10 OFFCURVE",
"694 127 OFFCURVE",
"740 350 CURVE SMOOTH",
"748 388 OFFCURVE",
"752 424 OFFCURVE",
"752 457 CURVE SMOOTH",
"752 616 OFFCURVE",
"662 710 OFFCURVE",
"476 710 CURVE SMOOTH",
"252 710 OFFCURVE",
"111 572 OFFCURVE",
"66 350 CURVE SMOOTH",
"58 311 OFFCURVE",
"54 275 OFFCURVE",
"54 241 CURVE SMOOTH",
"54 83 OFFCURVE",
"144 -10 OFFCURVE",
"329 -10 CURVE SMOOTH"
);
},
{
closed = 1;
nodes = (
"224 38 OFFCURVE",
"170 113 OFFCURVE",
"170 237 CURVE SMOOTH",
"170 271 OFFCURVE",
"174 309 OFFCURVE",
"182 350 CURVE SMOOTH",
"221 540 OFFCURVE",
"320 663 OFFCURVE",
"466 663 CURVE SMOOTH",
"581 663 OFFCURVE",
"636 587 OFFCURVE",
"636 463 CURVE SMOOTH",
"636 429 OFFCURVE",
"632 391 OFFCURVE",
"624 350 CURVE SMOOTH",
"586 160 OFFCURVE",
"487 38 OFFCURVE",
"339 38 CURVE SMOOTH"
);
},
{
closed = 1;
nodes = (
"474 862 LINE SMOOTH",
"488 872 OFFCURVE",
"501 882 OFFCURVE",
"511 882 CURVE SMOOTH",
"517 882 OFFCURVE",
"525 876 OFFCURVE",
"533 869 CURVE",
"623 780 LINE",
"646 803 LINE",
"552 943 LINE",
"494 943 LINE",
"342 803 LINE",
"356 780 LINE"
);
},
{
closed = 1;
nodes = (
"692 907 LINE",
"676 915 OFFCURVE",
"666 917 OFFCURVE",
"670 935 CURVE SMOOTH",
"677 967 OFFCURVE",
"769 977 OFFCURVE",
"769 1033 CURVE SMOOTH",
"769 1065 OFFCURVE",
"732 1079 OFFCURVE",
"694 1079 CURVE SMOOTH",
"663 1079 OFFCURVE",
"617 1068 OFFCURVE",
"611 1036 CURVE SMOOTH",
"608 1023 OFFCURVE",
"617 1014 OFFCURVE",
"628 1014 CURVE SMOOTH",
"655 1014 OFFCURVE",
"651 1055 OFFCURVE",
"694 1055 CURVE SMOOTH",
"710 1055 OFFCURVE",
"717 1046 OFFCURVE",
"717 1034 CURVE SMOOTH",
"717 986 OFFCURVE",
"634 978 OFFCURVE",
"626 934 CURVE SMOOTH",
"625 930 OFFCURVE",
"625 927 OFFCURVE",
"625 923 CURVE SMOOTH",
"625 903 OFFCURVE",
"638 887 OFFCURVE",
"680 887 CURVE"
);
}
);
width = 741;
}
);
leftKerningGroup = O;
note = Ocircumflexhookabove;
rightKerningGroup = O;
unicode = 1ED4;
},
{
glyphname = Ocircumflextilde;
lastChange = "2015-12-01 11:19:46 +0000";
layers = (
{
layerId = "29476F1E-CD12-4295-B0EC-F6BA1C34E337";
name = "Regular Italic";
paths = (
{
closed = 1;
nodes = (
"554 -10 OFFCURVE",
"694 127 OFFCURVE",
"740 350 CURVE SMOOTH",
"748 388 OFFCURVE",
"752 424 OFFCURVE",
"752 457 CURVE SMOOTH",
"752 616 OFFCURVE",
"662 710 OFFCURVE",
"476 710 CURVE SMOOTH",
"252 710 OFFCURVE",
"111 572 OFFCURVE",
"66 350 CURVE SMOOTH",
"58 311 OFFCURVE",
"54 275 OFFCURVE",
"54 241 CURVE SMOOTH",
"54 83 OFFCURVE",
"144 -10 OFFCURVE",
"329 -10 CURVE SMOOTH"
);
},
{
closed = 1;
nodes = (
"224 38 OFFCURVE",
"170 113 OFFCURVE",
"170 237 CURVE SMOOTH",
"170 271 OFFCURVE",
"174 309 OFFCURVE",
"182 350 CURVE SMOOTH",
"221 540 OFFCURVE",
"320 663 OFFCURVE",
"466 663 CURVE SMOOTH",
"581 663 OFFCURVE",
"636 587 OFFCURVE",
"636 463 CURVE SMOOTH",
"636 429 OFFCURVE",
"632 391 OFFCURVE",
"624 350 CURVE SMOOTH",
"586 160 OFFCURVE",
"487 38 OFFCURVE",
"339 38 CURVE SMOOTH"
);
},
{
closed = 1;
nodes = (
"474 862 LINE SMOOTH",
"488 872 OFFCURVE",
"501 882 OFFCURVE",
"511 882 CURVE SMOOTH",
"517 882 OFFCURVE",
"525 876 OFFCURVE",
"533 869 CURVE",
"623 780 LINE",
"646 803 LINE",
"552 943 LINE",
"494 943 LINE",
"342 803 LINE",
"356 780 LINE"
);
},
{
closed = 1;
nodes = (
"411 1006 OFFCURVE",
"432 1026 OFFCURVE",
"463 1026 CURVE SMOOTH",
"512 1026 OFFCURVE",
"547 974 OFFCURVE",
"596 974 CURVE SMOOTH",
"651 974 OFFCURVE",
"690 1029 OFFCURVE",
"713 1079 CURVE",
"694 1092 LINE",
"671 1052 OFFCURVE",
"653 1031 OFFCURVE",
"621 1031 CURVE SMOOTH",
"574 1031 OFFCURVE",
"537 1082 OFFCURVE",
"488 1082 CURVE SMOOTH",
"434 1082 OFFCURVE",
"392 1030 OFFCURVE",
"371 980 CURVE",
"389 967 LINE"
);
}
);
width = 741;
}
);
leftKerningGroup = O;
note = Ocircumflextilde;
rightKerningGroup = O;
unicode = 1ED6;
},
{
glyphname = Odieresis;
lastChange = "2015-12-01 11:19:47 +0000";
layers = (
{
layerId = "29476F1E-CD12-4295-B0EC-F6BA1C34E337";
name = "Regular Italic";
paths = (
{
closed = 1;
nodes = (
"554 -10 OFFCURVE",
"694 127 OFFCURVE",
"740 350 CURVE SMOOTH",
"748 388 OFFCURVE",
"752 424 OFFCURVE",
"752 457 CURVE SMOOTH",
"752 616 OFFCURVE",
"662 710 OFFCURVE",
"476 710 CURVE SMOOTH",
"252 710 OFFCURVE",
"111 572 OFFCURVE",
"66 350 CURVE SMOOTH",
"58 311 OFFCURVE",
"54 275 OFFCURVE",
"54 241 CURVE SMOOTH",
"54 83 OFFCURVE",
"144 -10 OFFCURVE",
"329 -10 CURVE SMOOTH"
);
},
{
closed = 1;
nodes = (
"224 38 OFFCURVE",
"170 113 OFFCURVE",
"170 237 CURVE SMOOTH",
"170 271 OFFCURVE",
"174 309 OFFCURVE",
"182 350 CURVE SMOOTH",
"221 540 OFFCURVE",
"320 663 OFFCURVE",
"466 663 CURVE SMOOTH",
"581 663 OFFCURVE",
"636 587 OFFCURVE",
"636 463 CURVE SMOOTH",
"636 429 OFFCURVE",
"632 391 OFFCURVE",
"624 350 CURVE SMOOTH",
"586 160 OFFCURVE",
"487 38 OFFCURVE",
"339 38 CURVE SMOOTH"
);
},
{
closed = 1;
nodes = (
"419 780 OFFCURVE",
"445 809 OFFCURVE",
"445 845 CURVE SMOOTH",
"445 869 OFFCURVE",
"431 885 OFFCURVE",
"404 885 CURVE SMOOTH",
"369 885 OFFCURVE",
"343 857 OFFCURVE",
"343 819 CURVE SMOOTH",
"343 796 OFFCURVE",
"357 780 OFFCURVE",
"382 780 CURVE SMOOTH"
);
},
{
closed = 1;
nodes = (
"631 780 OFFCURVE",
"658 809 OFFCURVE",
"658 845 CURVE SMOOTH",
"658 869 OFFCURVE",
"644 885 OFFCURVE",
"618 885 CURVE SMOOTH",
"587 885 OFFCURVE",
"563 863 OFFCURVE",
"556 832 CURVE SMOOTH",
"555 827 OFFCURVE",
"555 823 OFFCURVE",
"555 819 CURVE SMOOTH",
"555 796 OFFCURVE",
"569 780 OFFCURVE",
"596 780 CURVE SMOOTH"
);
}
);
width = 741;
}
);
leftKerningGroup = O;
note = Odieresis;
rightKerningGroup = O;
unicode = 00D6;
},
{
glyphname = Odotbelow;
lastChange = "2015-12-01 11:23:17 +0000";
layers = (
{
layerId = "29476F1E-CD12-4295-B0EC-F6BA1C34E337";
name = "Regular Italic";
paths = (
{
closed = 1;
nodes = (
"54 83 OFFCURVE",
"144 -10 OFFCURVE",
"329 -10 CURVE SMOOTH",
"554 -10 OFFCURVE",
"694 127 OFFCURVE",
"740 350 CURVE SMOOTH",
"748 388 OFFCURVE",
"752 424 OFFCURVE",
"752 457 CURVE SMOOTH",
"752 616 OFFCURVE",
"662 710 OFFCURVE",
"476 710 CURVE SMOOTH",
"252 710 OFFCURVE",
"111 572 OFFCURVE",
"66 350 CURVE SMOOTH",
"58 311 OFFCURVE",
"54 275 OFFCURVE",
"54 241 CURVE SMOOTH"
);
},
{
closed = 1;
nodes = (
"170 271 OFFCURVE",
"174 309 OFFCURVE",
"182 350 CURVE SMOOTH",
"221 540 OFFCURVE",
"320 663 OFFCURVE",
"466 663 CURVE SMOOTH",
"581 663 OFFCURVE",
"636 587 OFFCURVE",
"636 463 CURVE SMOOTH",
"636 429 OFFCURVE",
"632 391 OFFCURVE",
"624 350 CURVE SMOOTH",
"586 160 OFFCURVE",
"487 38 OFFCURVE",
"339 38 CURVE SMOOTH",
"224 38 OFFCURVE",
"170 113 OFFCURVE",
"170 237 CURVE SMOOTH"
);
},
{
closed = 1;
nodes = (
"256 -153 OFFCURVE",
"271 -170 OFFCURVE",
"298 -170 CURVE SMOOTH",
"333 -170 OFFCURVE",
"360 -141 OFFCURVE",
"360 -104 CURVE SMOOTH",
"360 -80 OFFCURVE",
"345 -64 OFFCURVE",
"320 -64 CURVE SMOOTH",
"289 -64 OFFCURVE",
"264 -87 OFFCURVE",
"257 -118 CURVE SMOOTH",
"256 -122 OFFCURVE",
"256 -125 OFFCURVE",
"256 -129 CURVE SMOOTH"
);
}
);
width = 741;
}
);
leftKerningGroup = O;
note = Odotbelow;
rightKerningGroup = O;
unicode = 1ECC;
},
{
glyphname = Ograve;
lastChange = "2015-12-01 11:19:46 +0000";
layers = (
{
layerId = "29476F1E-CD12-4295-B0EC-F6BA1C34E337";
name = "Regular Italic";
paths = (
{
closed = 1;
nodes = (
"554 -10 OFFCURVE",
"694 127 OFFCURVE",
"740 350 CURVE SMOOTH",
"748 388 OFFCURVE",
"752 424 OFFCURVE",
"752 457 CURVE SMOOTH",
"752 616 OFFCURVE",
"662 710 OFFCURVE",
"476 710 CURVE SMOOTH",
"252 710 OFFCURVE",
"111 572 OFFCURVE",
"66 350 CURVE SMOOTH",
"58 311 OFFCURVE",
"54 275 OFFCURVE",
"54 241 CURVE SMOOTH",
"54 83 OFFCURVE",
"144 -10 OFFCURVE",
"329 -10 CURVE SMOOTH"
);
},
{
closed = 1;
nodes = (
"224 38 OFFCURVE",
"170 113 OFFCURVE",
"170 237 CURVE SMOOTH",
"170 271 OFFCURVE",
"174 309 OFFCURVE",
"182 350 CURVE SMOOTH",
"221 540 OFFCURVE",
"320 663 OFFCURVE",
"466 663 CURVE SMOOTH",
"581 663 OFFCURVE",
"636 587 OFFCURVE",
"636 463 CURVE SMOOTH",
"636 429 OFFCURVE",
"632 391 OFFCURVE",
"624 350 CURVE SMOOTH",
"586 160 OFFCURVE",
"487 38 OFFCURVE",
"339 38 CURVE SMOOTH"
);
},
{
closed = 1;
nodes = (
"586 810 LINE",
"496 923 LINE SMOOTH",
"490 932 OFFCURVE",
"475 951 OFFCURVE",
"452 951 CURVE SMOOTH",
"427 951 OFFCURVE",
"412 934 OFFCURVE",
"408 917 CURVE",
"407 914 OFFCURVE",
"407 910 OFFCURVE",
"407 907 CURVE SMOOTH",
"407 891 OFFCURVE",
"416 880 OFFCURVE",
"434 867 CURVE SMOOTH",
"559 780 LINE"
);
}
);
width = 741;
}
);
leftKerningGroup = O;
note = Ograve;
rightKerningGroup = O;
unicode = 00D2;
},
{
glyphname = Ohookabove;
lastChange = "2015-12-01 11:19:47 +0000";
layers = (
{
layerId = "29476F1E-CD12-4295-B0EC-F6BA1C34E337";
name = "Regular Italic";
paths = (
{
closed = 1;
nodes = (
"554 -10 OFFCURVE",
"694 127 OFFCURVE",
"740 350 CURVE SMOOTH",
"748 388 OFFCURVE",
"752 424 OFFCURVE",
"752 457 CURVE SMOOTH",
"752 616 OFFCURVE",
"662 710 OFFCURVE",
"476 710 CURVE SMOOTH",
"252 710 OFFCURVE",
"111 572 OFFCURVE",
"66 350 CURVE SMOOTH",
"58 311 OFFCURVE",
"54 275 OFFCURVE",
"54 241 CURVE SMOOTH",
"54 83 OFFCURVE",
"144 -10 OFFCURVE",
"329 -10 CURVE SMOOTH"
);
},
{
closed = 1;
nodes = (
"224 38 OFFCURVE",
"170 113 OFFCURVE",
"170 237 CURVE SMOOTH",
"170 271 OFFCURVE",
"174 309 OFFCURVE",
"182 350 CURVE SMOOTH",
"221 540 OFFCURVE",
"320 663 OFFCURVE",
"466 663 CURVE SMOOTH",
"581 663 OFFCURVE",
"636 587 OFFCURVE",
"636 463 CURVE SMOOTH",
"636 429 OFFCURVE",
"632 391 OFFCURVE",
"624 350 CURVE SMOOTH",
"586 160 OFFCURVE",
"487 38 OFFCURVE",
"339 38 CURVE SMOOTH"
);
},
{
closed = 1;
nodes = (
"529 801 LINE",
"512 808 OFFCURVE",
"501 815 OFFCURVE",
"505 831 CURVE",
"512 865 OFFCURVE",
"604 879 OFFCURVE",
"613 932 CURVE",
"614 938 OFFCURVE",
"615 943 OFFCURVE",
"615 948 CURVE SMOOTH",
"615 982 OFFCURVE",
"585 1001 OFFCURVE",
"538 1001 CURVE SMOOTH",
"490 1001 OFFCURVE",
"444 983 OFFCURVE",
"436 947 CURVE SMOOTH",
"435 944 OFFCURVE",
"435 941 OFFCURVE",
"435 938 CURVE SMOOTH",
"435 925 OFFCURVE",
"443 919 OFFCURVE",
"455 919 CURVE SMOOTH",
"481 919 OFFCURVE",
"488 943 OFFCURVE",
"491 948 CURVE SMOOTH",
"499 962 OFFCURVE",
"516 968 OFFCURVE",
"531 968 CURVE SMOOTH",
"549 968 OFFCURVE",
"560 953 OFFCURVE",
"556 936 CURVE SMOOTH",
"545 885 OFFCURVE",
"453 878 OFFCURVE",
"453 820 CURVE SMOOTH",
"453 797 OFFCURVE",
"469 779 OFFCURVE",
"516 779 CURVE"
);
}
);
width = 741;
}
);
leftKerningGroup = O;
note = Ohookabove;
rightKerningGroup = O;
unicode = 1ECE;
},
{
glyphname = Ohorn;
lastChange = "2015-12-01 11:23:31 +0000";
layers = (
{
layerId = "29476F1E-CD12-4295-B0EC-F6BA1C34E337";
name = "Regular Italic";
paths = (
{
closed = 1;
nodes = (
"554 -10 OFFCURVE",
"694 127 OFFCURVE",
"740 350 CURVE SMOOTH",
"748 388 OFFCURVE",
"752 424 OFFCURVE",
"752 457 CURVE SMOOTH",
"752 616 OFFCURVE",
"662 710 OFFCURVE",
"476 710 CURVE SMOOTH",
"251 710 OFFCURVE",
"111 572 OFFCURVE",
"66 350 CURVE SMOOTH",
"58 311 OFFCURVE",
"54 275 OFFCURVE",
"54 241 CURVE SMOOTH",
"54 83 OFFCURVE",
"144 -10 OFFCURVE",
"329 -10 CURVE SMOOTH"
);
},
{
closed = 1;
nodes = (
"224 38 OFFCURVE",
"170 113 OFFCURVE",
"170 237 CURVE SMOOTH",
"170 271 OFFCURVE",
"174 309 OFFCURVE",
"182 350 CURVE SMOOTH",
"221 540 OFFCURVE",
"320 663 OFFCURVE",
"466 663 CURVE SMOOTH",
"581 663 OFFCURVE",
"636 587 OFFCURVE",
"636 463 CURVE SMOOTH",
"636 429 OFFCURVE",
"632 391 OFFCURVE",
"624 350 CURVE SMOOTH",
"586 160 OFFCURVE",
"487 38 OFFCURVE",
"339 38 CURVE SMOOTH"
);
},
{
closed = 1;
nodes = (
"785 568 OFFCURVE",
"886 651 OFFCURVE",
"886 742 CURVE SMOOTH",
"886 777 OFFCURVE",
"866 793 OFFCURVE",
"840 793 CURVE SMOOTH",
"804 793 OFFCURVE",
"778 764 OFFCURVE",
"778 735 CURVE SMOOTH",
"778 710 OFFCURVE",
"799 698 OFFCURVE",
"799 672 CURVE SMOOTH",
"799 669 OFFCURVE",
"799 666 OFFCURVE",
"798 662 CURVE SMOOTH",
"790 624 OFFCURVE",
"754 594 OFFCURVE",
"712 572 CURVE",
"706 544 LINE"
);
}
);
width = 750;
}
);
leftKerningGroup = O;
note = Ohorn;
rightKerningGroup = O;
unicode = 01A0;
},
{
glyphname = Ohornacute;
lastChange = "2015-12-01 11:23:31 +0000";
layers = (
{
layerId = "29476F1E-CD12-4295-B0EC-F6BA1C34E337";
name = "Regular Italic";
paths = (
{
closed = 1;
nodes = (
"554 -10 OFFCURVE",
"694 127 OFFCURVE",
"740 350 CURVE SMOOTH",
"748 388 OFFCURVE",
"752 424 OFFCURVE",
"752 457 CURVE SMOOTH",
"752 616 OFFCURVE",
"662 710 OFFCURVE",
"476 710 CURVE SMOOTH",
"251 710 OFFCURVE",
"111 572 OFFCURVE",
"66 350 CURVE SMOOTH",
"58 311 OFFCURVE",
"54 275 OFFCURVE",
"54 241 CURVE SMOOTH",
"54 83 OFFCURVE",
"144 -10 OFFCURVE",
"329 -10 CURVE SMOOTH"
);
},
{
closed = 1;
nodes = (
"224 38 OFFCURVE",
"170 113 OFFCURVE",
"170 237 CURVE SMOOTH",
"170 271 OFFCURVE",
"174 309 OFFCURVE",
"182 350 CURVE SMOOTH",
"221 540 OFFCURVE",
"320 663 OFFCURVE",
"466 663 CURVE SMOOTH",
"581 663 OFFCURVE",
"636 587 OFFCURVE",
"636 463 CURVE SMOOTH",
"636 429 OFFCURVE",
"632 391 OFFCURVE",
"624 350 CURVE SMOOTH",
"586 160 OFFCURVE",
"487 38 OFFCURVE",
"339 38 CURVE SMOOTH"
);
},
{
closed = 1;
nodes = (
"556 866 LINE SMOOTH",
"587 882 OFFCURVE",
"604 899 OFFCURVE",
"604 923 CURVE SMOOTH",
"604 937 OFFCURVE",
"595 950 OFFCURVE",
"573 950 CURVE SMOOTH",
"550 950 OFFCURVE",
"528 931 OFFCURVE",
"518 923 CURVE SMOOTH",
"382 809 LINE",
"395 779 LINE"
);
},
{
closed = 1;
nodes = (
"760 552 OFFCURVE",
"860 635 OFFCURVE",
"860 726 CURVE SMOOTH",
"860 761 OFFCURVE",
"840 777 OFFCURVE",
"814 777 CURVE SMOOTH",
"777 777 OFFCURVE",
"753 747 OFFCURVE",
"753 718 CURVE SMOOTH",
"753 693 OFFCURVE",
"773 682 OFFCURVE",
"773 656 CURVE SMOOTH",
"773 653 OFFCURVE",
"773 650 OFFCURVE",
"772 646 CURVE SMOOTH",
"764 608 OFFCURVE",
"728 578 OFFCURVE",
"686 556 CURVE",
"681 528 LINE"
);
}
);
width = 750;
}
);
leftKerningGroup = O;
note = Ohornacute;
rightKerningGroup = O;
unicode = 1EDA;
},
{
glyphname = Ohorndotbelow;
lastChange = "2015-12-01 11:23:31 +0000";
layers = (
{
layerId = "29476F1E-CD12-4295-B0EC-F6BA1C34E337";
name = "Regular Italic";
paths = (
{
closed = 1;
nodes = (
"554 -10 OFFCURVE",
"694 127 OFFCURVE",
"740 350 CURVE SMOOTH",
"748 388 OFFCURVE",
"752 424 OFFCURVE",
"752 457 CURVE SMOOTH",
"752 616 OFFCURVE",
"662 710 OFFCURVE",
"476 710 CURVE SMOOTH",
"251 710 OFFCURVE",
"111 572 OFFCURVE",
"66 350 CURVE SMOOTH",
"58 311 OFFCURVE",
"54 275 OFFCURVE",
"54 241 CURVE SMOOTH",
"54 83 OFFCURVE",
"144 -10 OFFCURVE",
"329 -10 CURVE SMOOTH"
);
},
{
closed = 1;
nodes = (
"326 -170 OFFCURVE",
"352 -140 OFFCURVE",
"352 -103 CURVE SMOOTH",
"352 -80 OFFCURVE",
"338 -64 OFFCURVE",
"312 -64 CURVE SMOOTH",
"277 -64 OFFCURVE",
"249 -93 OFFCURVE",
"249 -131 CURVE SMOOTH",
"249 -154 OFFCURVE",
"264 -170 OFFCURVE",
"290 -170 CURVE SMOOTH"
);
},
{
closed = 1;
nodes = (
"224 38 OFFCURVE",
"170 113 OFFCURVE",
"170 237 CURVE SMOOTH",
"170 271 OFFCURVE",
"174 309 OFFCURVE",
"182 350 CURVE SMOOTH",
"221 540 OFFCURVE",
"320 663 OFFCURVE",
"466 663 CURVE SMOOTH",
"581 663 OFFCURVE",
"636 587 OFFCURVE",
"636 463 CURVE SMOOTH",
"636 429 OFFCURVE",
"632 391 OFFCURVE",
"624 350 CURVE SMOOTH",
"586 160 OFFCURVE",
"487 38 OFFCURVE",
"339 38 CURVE SMOOTH"
);
},
{
closed = 1;
nodes = (
"760 552 OFFCURVE",
"860 635 OFFCURVE",
"860 726 CURVE SMOOTH",
"860 761 OFFCURVE",
"840 777 OFFCURVE",
"814 777 CURVE SMOOTH",
"777 777 OFFCURVE",
"753 747 OFFCURVE",
"753 718 CURVE SMOOTH",
"753 693 OFFCURVE",
"773 682 OFFCURVE",
"773 656 CURVE SMOOTH",
"773 653 OFFCURVE",
"773 650 OFFCURVE",
"772 646 CURVE SMOOTH",
"764 608 OFFCURVE",
"728 578 OFFCURVE",
"686 556 CURVE",
"681 528 LINE"
);
}
);
width = 750;
}
);
leftKerningGroup = O;
note = Ohorndotbelow;
rightKerningGroup = O;
unicode = 1EE2;
},
{
glyphname = Ohorngrave;
lastChange = "2015-12-01 11:23:31 +0000";
layers = (
{
layerId = "29476F1E-CD12-4295-B0EC-F6BA1C34E337";
name = "Regular Italic";
paths = (
{
closed = 1;
nodes = (
"554 -10 OFFCURVE",
"694 127 OFFCURVE",
"740 350 CURVE SMOOTH",
"748 388 OFFCURVE",
"752 424 OFFCURVE",
"752 457 CURVE SMOOTH",
"752 616 OFFCURVE",
"662 710 OFFCURVE",
"476 710 CURVE SMOOTH",
"251 710 OFFCURVE",
"111 572 OFFCURVE",
"66 350 CURVE SMOOTH",
"58 311 OFFCURVE",
"54 275 OFFCURVE",
"54 241 CURVE SMOOTH",
"54 83 OFFCURVE",
"144 -10 OFFCURVE",
"329 -10 CURVE SMOOTH"
);
},
{
closed = 1;
nodes = (
"224 38 OFFCURVE",
"170 113 OFFCURVE",
"170 237 CURVE SMOOTH",
"170 271 OFFCURVE",
"174 309 OFFCURVE",
"182 350 CURVE SMOOTH",
"221 540 OFFCURVE",
"320 663 OFFCURVE",
"466 663 CURVE SMOOTH",
"581 663 OFFCURVE",
"636 587 OFFCURVE",
"636 463 CURVE SMOOTH",
"636 429 OFFCURVE",
"632 391 OFFCURVE",
"624 350 CURVE SMOOTH",
"586 160 OFFCURVE",
"487 38 OFFCURVE",
"339 38 CURVE SMOOTH"
);
},
{
closed = 1;
nodes = (
"592 823 LINE",
"503 936 LINE SMOOTH",
"496 945 OFFCURVE",
"482 964 OFFCURVE",
"459 964 CURVE SMOOTH",
"434 964 OFFCURVE",
"418 947 OFFCURVE",
"415 930 CURVE",
"414 926 OFFCURVE",
"414 923 OFFCURVE",
"414 920 CURVE SMOOTH",
"414 904 OFFCURVE",
"422 892 OFFCURVE",
"441 880 CURVE SMOOTH",
"565 793 LINE"
);
},
{
closed = 1;
nodes = (
"760 552 OFFCURVE",
"860 635 OFFCURVE",
"860 726 CURVE SMOOTH",
"860 761 OFFCURVE",
"840 777 OFFCURVE",
"814 777 CURVE SMOOTH",
"777 777 OFFCURVE",
"753 747 OFFCURVE",
"753 718 CURVE SMOOTH",
"753 693 OFFCURVE",
"773 682 OFFCURVE",
"773 656 CURVE SMOOTH",
"773 653 OFFCURVE",
"773 650 OFFCURVE",
"772 646 CURVE SMOOTH",
"764 608 OFFCURVE",
"728 578 OFFCURVE",
"686 556 CURVE",
"681 528 LINE"
);
}
);
width = 750;
}
);
leftKerningGroup = O;
note = Ohorngrave;
rightKerningGroup = O;
unicode = 1EDC;
},
{
glyphname = Ohornhookabove;
lastChange = "2015-12-01 11:23:31 +0000";
layers = (
{
layerId = "29476F1E-CD12-4295-B0EC-F6BA1C34E337";
name = "Regular Italic";
paths = (
{
closed = 1;
nodes = (
"554 -10 OFFCURVE",
"694 127 OFFCURVE",
"740 350 CURVE SMOOTH",
"748 388 OFFCURVE",
"752 424 OFFCURVE",
"752 457 CURVE SMOOTH",
"752 616 OFFCURVE",
"662 710 OFFCURVE",
"476 710 CURVE SMOOTH",
"251 710 OFFCURVE",
"111 572 OFFCURVE",
"66 350 CURVE SMOOTH",
"58 311 OFFCURVE",
"54 275 OFFCURVE",
"54 241 CURVE SMOOTH",
"54 83 OFFCURVE",
"144 -10 OFFCURVE",
"329 -10 CURVE SMOOTH"
);
},
{
closed = 1;
nodes = (
"224 38 OFFCURVE",
"170 113 OFFCURVE",
"170 237 CURVE SMOOTH",
"170 271 OFFCURVE",
"174 309 OFFCURVE",
"182 350 CURVE SMOOTH",
"221 540 OFFCURVE",
"320 663 OFFCURVE",
"466 663 CURVE SMOOTH",
"581 663 OFFCURVE",
"636 587 OFFCURVE",
"636 463 CURVE SMOOTH",
"636 429 OFFCURVE",
"632 391 OFFCURVE",
"624 350 CURVE SMOOTH",
"586 160 OFFCURVE",
"487 38 OFFCURVE",
"339 38 CURVE SMOOTH"
);
},
{
closed = 1;
nodes = (
"760 552 OFFCURVE",
"860 635 OFFCURVE",
"860 726 CURVE SMOOTH",
"860 761 OFFCURVE",
"840 777 OFFCURVE",
"814 777 CURVE SMOOTH",
"777 777 OFFCURVE",
"753 747 OFFCURVE",
"753 718 CURVE SMOOTH",
"753 693 OFFCURVE",
"773 682 OFFCURVE",
"773 656 CURVE SMOOTH",
"773 653 OFFCURVE",
"773 650 OFFCURVE",
"772 646 CURVE SMOOTH",
"764 608 OFFCURVE",
"728 578 OFFCURVE",
"686 556 CURVE",
"681 528 LINE"
);
},
{
closed = 1;
nodes = (
"532 815 LINE",
"514 822 OFFCURVE",
"504 829 OFFCURVE",
"508 845 CURVE",
"514 879 OFFCURVE",
"607 893 OFFCURVE",
"616 946 CURVE",
"617 952 OFFCURVE",
"618 957 OFFCURVE",
"618 962 CURVE SMOOTH",
"618 996 OFFCURVE",
"588 1015 OFFCURVE",
"540 1015 CURVE SMOOTH",
"488 1015 OFFCURVE",
"438 994 OFFCURVE",
"438 951 CURVE SMOOTH",
"438 939 OFFCURVE",
"445 933 OFFCURVE",
"458 933 CURVE SMOOTH",
"484 933 OFFCURVE",
"490 957 OFFCURVE",
"493 962 CURVE SMOOTH",
"502 976 OFFCURVE",
"518 982 OFFCURVE",
"534 982 CURVE SMOOTH",
"552 982 OFFCURVE",
"562 967 OFFCURVE",
"559 950 CURVE SMOOTH",
"549 903 OFFCURVE",
"466 893 OFFCURVE",
"457 846 CURVE SMOOTH",
"456 842 OFFCURVE",
"456 838 OFFCURVE",
"456 834 CURVE SMOOTH",
"456 811 OFFCURVE",
"472 793 OFFCURVE",
"518 793 CURVE"
);
}
);
width = 750;
}
);
leftKerningGroup = O;
note = Ohornhookabove;
rightKerningGroup = O;
unicode = 1EDE;
},
{
glyphname = Ohorntilde;
lastChange = "2015-12-01 11:23:31 +0000";
layers = (
{
layerId = "29476F1E-CD12-4295-B0EC-F6BA1C34E337";
name = "Regular Italic";
paths = (
{
closed = 1;
nodes = (
"554 -10 OFFCURVE",
"694 127 OFFCURVE",
"740 350 CURVE SMOOTH",
"748 388 OFFCURVE",
"752 424 OFFCURVE",
"752 457 CURVE SMOOTH",
"752 616 OFFCURVE",
"662 710 OFFCURVE",
"476 710 CURVE SMOOTH",
"251 710 OFFCURVE",
"111 572 OFFCURVE",
"66 350 CURVE SMOOTH",
"58 311 OFFCURVE",
"54 275 OFFCURVE",
"54 241 CURVE SMOOTH",
"54 83 OFFCURVE",
"144 -10 OFFCURVE",
"329 -10 CURVE SMOOTH"
);
},
{
closed = 1;
nodes = (
"224 38 OFFCURVE",
"170 113 OFFCURVE",
"170 237 CURVE SMOOTH",
"170 271 OFFCURVE",
"174 309 OFFCURVE",
"182 350 CURVE SMOOTH",
"221 540 OFFCURVE",
"320 663 OFFCURVE",
"466 663 CURVE SMOOTH",
"581 663 OFFCURVE",
"636 587 OFFCURVE",
"636 463 CURVE SMOOTH",
"636 429 OFFCURVE",
"632 391 OFFCURVE",
"624 350 CURVE SMOOTH",
"586 160 OFFCURVE",
"487 38 OFFCURVE",
"339 38 CURVE SMOOTH"
);
},
{
closed = 1;
nodes = (
"360 831 OFFCURVE",
"381 851 OFFCURVE",
"414 851 CURVE SMOOTH",
"466 851 OFFCURVE",
"504 799 OFFCURVE",
"556 799 CURVE SMOOTH",
"616 799 OFFCURVE",
"657 854 OFFCURVE",
"681 904 CURVE",
"660 917 LINE",
"636 877 OFFCURVE",
"617 856 OFFCURVE",
"584 856 CURVE SMOOTH",
"533 856 OFFCURVE",
"491 907 OFFCURVE",
"440 907 CURVE SMOOTH",
"382 907 OFFCURVE",
"339 855 OFFCURVE",
"317 805 CURVE",
"337 792 LINE"
);
},
{
closed = 1;
nodes = (
"760 552 OFFCURVE",
"860 635 OFFCURVE",
"860 726 CURVE SMOOTH",
"860 761 OFFCURVE",
"840 777 OFFCURVE",
"814 777 CURVE SMOOTH",
"777 777 OFFCURVE",
"753 747 OFFCURVE",
"753 718 CURVE SMOOTH",
"753 693 OFFCURVE",
"773 682 OFFCURVE",
"773 656 CURVE SMOOTH",
"773 653 OFFCURVE",
"773 650 OFFCURVE",
"772 646 CURVE SMOOTH",
"764 608 OFFCURVE",
"728 578 OFFCURVE",
"686 556 CURVE",
"681 528 LINE"
);
}
);
width = 750;
}
);
leftKerningGroup = O;
note = Ohorntilde;
rightKerningGroup = O;
unicode = 1EE0;
},
{
glyphname = Ohungarumlaut;
lastChange = "2015-12-01 11:19:45 +0000";
layers = (
{
layerId = "29476F1E-CD12-4295-B0EC-F6BA1C34E337";
name = "Regular Italic";
paths = (
{
closed = 1;
nodes = (
"554 -10 OFFCURVE",
"694 127 OFFCURVE",
"740 350 CURVE SMOOTH",
"748 388 OFFCURVE",
"752 424 OFFCURVE",
"752 457 CURVE SMOOTH",
"752 616 OFFCURVE",
"662 710 OFFCURVE",
"476 710 CURVE SMOOTH",
"252 710 OFFCURVE",
"111 572 OFFCURVE",
"66 350 CURVE SMOOTH",
"58 311 OFFCURVE",
"54 275 OFFCURVE",
"54 241 CURVE SMOOTH",
"54 83 OFFCURVE",
"144 -10 OFFCURVE",
"329 -10 CURVE SMOOTH"
);
},
{
closed = 1;
nodes = (
"224 38 OFFCURVE",
"170 113 OFFCURVE",
"170 237 CURVE SMOOTH",
"170 271 OFFCURVE",
"174 309 OFFCURVE",
"182 350 CURVE SMOOTH",
"221 540 OFFCURVE",
"320 663 OFFCURVE",
"466 663 CURVE SMOOTH",
"581 663 OFFCURVE",
"636 587 OFFCURVE",
"636 463 CURVE SMOOTH",
"636 429 OFFCURVE",
"632 391 OFFCURVE",
"624 350 CURVE SMOOTH",
"586 160 OFFCURVE",
"487 38 OFFCURVE",
"339 38 CURVE SMOOTH"
);
},
{
closed = 1;
nodes = (
"522 866 LINE SMOOTH",
"549 881 OFFCURVE",
"565 897 OFFCURVE",
"569 916 CURVE",
"573 932 OFFCURVE",
"564 950 OFFCURVE",
"538 950 CURVE SMOOTH",
"514 950 OFFCURVE",
"491 929 OFFCURVE",
"483 923 CURVE",
"349 810 LINE",
"363 780 LINE"
);
},
{
closed = 1;
nodes = (
"689 866 LINE SMOOTH",
"716 881 OFFCURVE",
"732 897 OFFCURVE",
"736 916 CURVE",
"740 932 OFFCURVE",
"732 950 OFFCURVE",
"706 950 CURVE SMOOTH",
"681 950 OFFCURVE",
"658 929 OFFCURVE",
"650 923 CURVE",
"516 810 LINE",
"529 780 LINE"
);
}
);
width = 741;
}
);
leftKerningGroup = O;
note = Ohungarumlaut;
rightKerningGroup = O;
unicode = 0150;
},
{
glyphname = Omacron;
lastChange = "2015-12-01 11:19:46 +0000";
layers = (
{
layerId = "29476F1E-CD12-4295-B0EC-F6BA1C34E337";
name = "Regular Italic";
paths = (
{
closed = 1;
nodes = (
"554 -10 OFFCURVE",
"694 127 OFFCURVE",
"740 350 CURVE SMOOTH",
"748 388 OFFCURVE",
"752 424 OFFCURVE",
"752 457 CURVE SMOOTH",
"752 616 OFFCURVE",
"662 710 OFFCURVE",
"476 710 CURVE SMOOTH",
"252 710 OFFCURVE",
"111 572 OFFCURVE",
"66 350 CURVE SMOOTH",
"58 311 OFFCURVE",
"54 275 OFFCURVE",
"54 241 CURVE SMOOTH",
"54 83 OFFCURVE",
"144 -10 OFFCURVE",
"329 -10 CURVE SMOOTH"
);
},
{
closed = 1;
nodes = (
"224 38 OFFCURVE",
"170 113 OFFCURVE",
"170 237 CURVE SMOOTH",
"170 271 OFFCURVE",
"174 309 OFFCURVE",
"182 350 CURVE SMOOTH",
"221 540 OFFCURVE",
"320 663 OFFCURVE",
"466 663 CURVE SMOOTH",
"581 663 OFFCURVE",
"636 587 OFFCURVE",
"636 463 CURVE SMOOTH",
"636 429 OFFCURVE",
"632 391 OFFCURVE",
"624 350 CURVE SMOOTH",
"586 160 OFFCURVE",
"487 38 OFFCURVE",
"339 38 CURVE SMOOTH"
);
},
{
closed = 1;
nodes = (
"660 790 LINE",
"670 838 LINE",
"333 838 LINE",
"324 790 LINE"
);
}
);
width = 741;
}
);
leftKerningGroup = O;
note = Omacron;
rightKerningGroup = O;
unicode = 014C;
},
{
glyphname = Oslash;
lastChange = "2015-12-01 11:23:38 +0000";
layers = (
{
layerId = "29476F1E-CD12-4295-B0EC-F6BA1C34E337";
name = "Regular Italic";
paths = (
{
closed = 1;
nodes = (
"554 -10 OFFCURVE",
"694 127 OFFCURVE",
"740 350 CURVE SMOOTH",
"748 388 OFFCURVE",
"752 424 OFFCURVE",
"752 457 CURVE SMOOTH",
"752 616 OFFCURVE",
"662 710 OFFCURVE",
"476 710 CURVE SMOOTH",
"252 710 OFFCURVE",
"111 572 OFFCURVE",
"66 350 CURVE SMOOTH",
"58 311 OFFCURVE",
"54 275 OFFCURVE",
"54 241 CURVE SMOOTH",
"54 83 OFFCURVE",
"144 -10 OFFCURVE",
"329 -10 CURVE SMOOTH"
);
},
{
closed = 1;
nodes = (
"224 38 OFFCURVE",
"170 113 OFFCURVE",
"170 237 CURVE SMOOTH",
"170 271 OFFCURVE",
"174 309 OFFCURVE",
"182 350 CURVE SMOOTH",
"221 540 OFFCURVE",
"320 663 OFFCURVE",
"466 663 CURVE SMOOTH",
"581 663 OFFCURVE",
"636 587 OFFCURVE",
"636 463 CURVE SMOOTH",
"636 429 OFFCURVE",
"632 391 OFFCURVE",
"624 350 CURVE SMOOTH",
"586 160 OFFCURVE",
"487 38 OFFCURVE",
"339 38 CURVE SMOOTH"
);
},
{
closed = 1;
nodes = (
"759 696 LINE",
"725 726 LINE",
"14 4 LINE",
"48 -25 LINE"
);
}
);
width = 741;
}
);
leftKerningGroup = O;
note = Oslash;
rightKerningGroup = O;
unicode = 00D8;
},
{
glyphname = Oslashacute;
lastChange = "2015-12-01 11:23:40 +0000";
layers = (
{
layerId = "29476F1E-CD12-4295-B0EC-F6BA1C34E337";
name = "Regular Italic";
paths = (
{
closed = 1;
nodes = (
"554 -10 OFFCURVE",
"694 127 OFFCURVE",
"740 350 CURVE SMOOTH",
"748 388 OFFCURVE",
"752 424 OFFCURVE",
"752 457 CURVE SMOOTH",
"752 616 OFFCURVE",
"662 710 OFFCURVE",
"476 710 CURVE SMOOTH",
"252 710 OFFCURVE",
"111 572 OFFCURVE",
"66 350 CURVE SMOOTH",
"58 311 OFFCURVE",
"54 275 OFFCURVE",
"54 241 CURVE SMOOTH",
"54 83 OFFCURVE",
"144 -10 OFFCURVE",
"329 -10 CURVE SMOOTH"
);
},
{
closed = 1;
nodes = (
"224 38 OFFCURVE",
"170 113 OFFCURVE",
"170 237 CURVE SMOOTH",
"170 271 OFFCURVE",
"174 309 OFFCURVE",
"182 350 CURVE SMOOTH",
"221 540 OFFCURVE",
"320 663 OFFCURVE",
"466 663 CURVE SMOOTH",
"581 663 OFFCURVE",
"636 587 OFFCURVE",
"636 463 CURVE SMOOTH",
"636 429 OFFCURVE",
"632 391 OFFCURVE",
"624 350 CURVE SMOOTH",
"586 160 OFFCURVE",
"487 38 OFFCURVE",
"339 38 CURVE SMOOTH"
);
},
{
closed = 1;
nodes = (
"575 867 LINE SMOOTH",
"606 883 OFFCURVE",
"623 900 OFFCURVE",
"623 924 CURVE SMOOTH",
"623 938 OFFCURVE",
"614 951 OFFCURVE",
"592 951 CURVE SMOOTH",
"569 951 OFFCURVE",
"547 932 OFFCURVE",
"538 924 CURVE SMOOTH",
"401 810 LINE",
"415 780 LINE"
);
},
{
closed = 1;
nodes = (
"759 696 LINE",
"725 726 LINE",
"14 4 LINE",
"48 -25 LINE"
);
}
);
width = 741;
}
);
leftKerningGroup = O;
note = Oslashacute;
rightKerningGroup = O;
unicode = 01FE;
},
{
glyphname = Otilde;
lastChange = "2015-12-01 11:19:47 +0000";
layers = (
{
layerId = "29476F1E-CD12-4295-B0EC-F6BA1C34E337";
name = "Regular Italic";
paths = (
{
closed = 1;
nodes = (
"554 -10 OFFCURVE",
"694 127 OFFCURVE",
"740 350 CURVE SMOOTH",
"748 388 OFFCURVE",
"752 424 OFFCURVE",
"752 457 CURVE SMOOTH",
"752 616 OFFCURVE",
"662 710 OFFCURVE",
"476 710 CURVE SMOOTH",
"252 710 OFFCURVE",
"111 572 OFFCURVE",
"66 350 CURVE SMOOTH",
"58 311 OFFCURVE",
"54 275 OFFCURVE",
"54 241 CURVE SMOOTH",
"54 83 OFFCURVE",
"144 -10 OFFCURVE",
"329 -10 CURVE SMOOTH"
);
},
{
closed = 1;
nodes = (
"224 38 OFFCURVE",
"170 113 OFFCURVE",
"170 237 CURVE SMOOTH",
"170 271 OFFCURVE",
"174 309 OFFCURVE",
"182 350 CURVE SMOOTH",
"221 540 OFFCURVE",
"320 663 OFFCURVE",
"466 663 CURVE SMOOTH",
"581 663 OFFCURVE",
"636 587 OFFCURVE",
"636 463 CURVE SMOOTH",
"636 429 OFFCURVE",
"632 391 OFFCURVE",
"624 350 CURVE SMOOTH",
"586 160 OFFCURVE",
"487 38 OFFCURVE",
"339 38 CURVE SMOOTH"
);
},
{
closed = 1;
nodes = (
"360 817 OFFCURVE",
"381 837 OFFCURVE",
"414 837 CURVE SMOOTH",
"466 837 OFFCURVE",
"504 785 OFFCURVE",
"556 785 CURVE SMOOTH",
"616 785 OFFCURVE",
"657 840 OFFCURVE",
"681 890 CURVE",
"660 903 LINE",
"636 863 OFFCURVE",
"617 842 OFFCURVE",
"584 842 CURVE SMOOTH",
"533 842 OFFCURVE",
"492 893 OFFCURVE",
"440 893 CURVE SMOOTH",
"382 893 OFFCURVE",
"339 841 OFFCURVE",
"317 791 CURVE",
"337 778 LINE"
);
}
);
width = 741;
}
);
leftKerningGroup = O;
note = Otilde;
rightKerningGroup = O;
unicode = 00D5;
},
{
glyphname = OE;
lastChange = "2015-12-01 11:19:46 +0000";
layers = (
{
layerId = "29476F1E-CD12-4295-B0EC-F6BA1C34E337";
name = "Regular Italic";
paths = (
{
closed = 1;
nodes = (
"427 -10 OFFCURVE",
"515 37 OFFCURVE",
"577 109 CURVE",
"544 155 LINE",
"493 79 OFFCURVE",
"424 37 OFFCURVE",
"341 37 CURVE SMOOTH",
"225 37 OFFCURVE",
"170 113 OFFCURVE",
"170 238 CURVE SMOOTH",
"170 272 OFFCURVE",
"174 309 OFFCURVE",
"182 350 CURVE SMOOTH",
"221 540 OFFCURVE",
"322 663 OFFCURVE",
"468 663 CURVE SMOOTH",
"551 663 OFFCURVE",
"604 620 OFFCURVE",
"624 545 CURVE",
"674 593 LINE",
"641 664 OFFCURVE",
"573 710 OFFCURVE",
"467 710 CURVE SMOOTH",
"254 710 OFFCURVE",
"111 572 OFFCURVE",
"66 350 CURVE SMOOTH",
"58 311 OFFCURVE",
"54 276 OFFCURVE",
"54 242 CURVE SMOOTH",
"54 84 OFFCURVE",
"145 -10 OFFCURVE",
"320 -10 CURVE SMOOTH"
);
},
{
closed = 1;
nodes = (
"935 0 LINE",
"990 184 LINE",
"960 184 LINE",
"940 125 OFFCURVE",
"905 46 OFFCURVE",
"842 46 CURVE SMOOTH",
"622 46 LINE",
"747 654 LINE",
"950 654 LINE SMOOTH",
"1003 654 OFFCURVE",
"1015 608 OFFCURVE",
"1015 566 CURVE SMOOTH",
"1015 549 OFFCURVE",
"1013 533 OFFCURVE",
"1011 521 CURVE",
"1041 521 LINE",
"1077 700 LINE",
"640 700 LINE",
"498 0 LINE"
);
},
{
closed = 1;
nodes = (
"902 249 LINE",
"951 485 LINE",
"926 485 LINE",
"912 437 OFFCURVE",
"898 390 OFFCURVE",
"855 390 CURVE SMOOTH",
"664 390 LINE",
"656 344 LINE",
"847 344 LINE SMOOTH",
"874 344 OFFCURVE",
"882 324 OFFCURVE",
"882 297 CURVE SMOOTH",
"882 283 OFFCURVE",
"879 266 OFFCURVE",
"877 249 CURVE"
);
}
);
width = 1024;
}
);
leftKerningGroup = O;
note = OE;
rightKerningGroup = E;
unicode = 0152;
},
